<svg width="474" height="448" viewBox="0 0 474 448" fill="none" xmlns="http://www.w3.org/2000/svg">
<path fill-rule="evenodd" clip-rule="evenodd" d="M238.496 0.474107C361.829 0.474107 461.812 100.457 461.812 223.79C461.812 347.125 361.829 447.107 238.496 447.107C115.163 447.106 15.1802 347.123 15.1802 223.789C15.1802 100.455 115.163 0.474107 238.496 0.474107Z" fill="#FFB773" fill-opacity="0.06"/>
<path fill-rule="evenodd" clip-rule="evenodd" d="M149.306 396.184C149.306 396.184 134.909 397.982 121.806 395.724C117.785 395.029 119.946 398.662 120.434 398.976C122.975 400.614 132.078 402.848 131.557 403.393C130.467 404.537 113.225 406.205 107.158 406.082C106.547 406.07 99.962 405.705 99.9767 406.624C100.006 408.764 103.483 409.292 105.099 409.514C110.581 410.268 127.415 410.016 126.578 410.138C125.071 410.356 112.286 412.769 107.357 413.478C107.035 413.525 100.065 414.52 100.206 415.413C100.495 417.225 105.938 417.093 107.194 416.982C112.135 416.554 125.585 415.566 127.293 415.46C128.002 415.413 122.622 417.077 121.117 417.522C116.457 418.894 111.498 419.53 106.903 421.05C106.003 421.35 102.827 422.1 103.233 423.642C103.497 424.648 106.105 424.7 106.814 424.694C111.231 424.656 140.258 418.55 147.602 414.285C150.427 412.645 156.078 412.45 156.078 412.45C156.078 412.45 156.965 398.945 149.306 396.184" fill="#DAB6E4"/>
<path fill-rule="evenodd" clip-rule="evenodd" d="M136.407 192.441C136.407 179.052 125.535 168.18 112.146 168.18H51.227C37.8377 168.18 26.9657 179.052 26.9657 192.441V218.053C26.9657 231.444 37.8377 242.314 51.227 242.314H71.6604L86.1164 263.689C86.1164 263.689 89.7964 269.172 93.4697 268.605C97.715 267.946 97.0444 260.758 97.0444 260.758L97.9724 242.314H112.146C125.535 242.314 136.407 231.444 136.407 218.053V192.441Z" fill="#FF5F6D"/>
<path fill-rule="evenodd" clip-rule="evenodd" d="M46.4955 193.065L46.6355 193.082L46.7728 193.107L46.9102 193.143L47.0448 193.189L47.1728 193.242L47.2995 193.306L47.4208 193.375L47.5382 193.455L47.6488 193.542L47.7528 193.637L47.8502 193.738L47.9422 193.846L48.0248 193.961L48.0995 194.079L48.1675 194.202L48.2262 194.331L48.2742 194.463L48.3142 194.598L48.3462 194.735L48.3675 194.874L48.3795 195.014L48.5355 198.056L48.6915 201.105L48.7675 202.631L48.8422 204.157L48.9142 205.683L48.9862 207.21L49.0555 208.738L49.1222 210.267L49.1862 211.795L49.2448 213.323L49.3008 214.852L49.3528 216.38L49.3782 217.146L49.4008 217.908L49.4235 218.675L49.4435 219.436V219.577L49.4315 219.716L49.4128 219.855L49.3835 219.994L49.3435 220.128L49.2955 220.26L49.2382 220.39L49.1728 220.514L49.0982 220.635L49.0168 220.75L48.9275 220.858L48.8302 220.959L48.7275 221.056L48.6168 221.143L48.5008 221.225L48.3808 221.296L48.2542 221.359L48.1262 221.415L47.9928 221.461L47.8568 221.499L47.7182 221.527L47.5782 221.544L47.4382 221.554H47.2982L47.1568 221.542L47.0168 221.522L46.8795 221.494L46.7448 221.454L46.6115 221.404L46.4822 221.347L46.3582 221.283L46.2395 221.21L46.1248 221.126L46.0155 221.038L45.9142 220.94L45.8182 220.838L45.7288 220.727L45.6488 220.611L45.5782 220.49L45.5128 220.364L45.4582 220.235L45.4115 220.102L45.3742 219.966L45.3462 219.828L45.3288 219.687L45.3195 219.549L45.2995 218.788L45.2782 218.032L45.2528 217.274L45.2302 216.517L45.1782 214.998L45.1235 213.48L45.0635 211.962L44.9995 210.442L44.9342 208.92L44.8648 207.399L44.7955 205.878L44.7222 204.356L44.6462 202.834L44.5702 201.312L44.4155 198.267L44.2595 195.227L44.2582 195.084L44.2648 194.945L44.2808 194.803L44.3075 194.666L44.3435 194.53L44.3875 194.398L44.4422 194.266L44.5048 194.14L44.5768 194.019L44.6555 193.903L44.7422 193.791L44.8368 193.686L44.9382 193.59L45.0462 193.499L45.1595 193.414L45.2782 193.341L45.4022 193.273L45.5302 193.214L45.6622 193.165L45.7968 193.125L45.9342 193.093L46.0742 193.071L46.2155 193.061L46.3555 193.058L46.4955 193.065Z" fill="white"/>
<path fill-rule="evenodd" clip-rule="evenodd" d="M61.8354 191.817L61.9781 191.834L62.1208 191.861L62.2594 191.897L62.3954 191.945L62.5288 192.001L62.6581 192.065L62.7808 192.138L62.8994 192.221L63.0114 192.312L63.1168 192.409L63.2168 192.513L63.3074 192.625L63.3901 192.742L63.4648 192.866L63.5301 192.993L63.5874 193.126L63.6354 193.262L63.6714 193.4L63.7008 193.541L63.7194 193.685L63.7261 193.828L63.7248 193.973L63.7061 194.362L63.6888 194.746L63.6754 195.132L63.6634 195.517L63.6528 195.902L63.6461 196.289L63.6394 196.676L63.6368 197.062L63.6328 197.452L63.6314 197.84L63.6328 198.228L63.6368 198.617L63.6408 199.006L63.6448 199.396L63.6514 199.788L63.6608 200.178L63.6688 200.569L63.6794 200.96L63.7034 201.748L63.7301 202.534L63.7621 203.324L63.7954 204.114L63.8314 204.906L63.9048 206.497L63.9794 208.093L64.0154 208.892L64.0501 209.694L64.0834 210.497L64.1128 211.301L64.1394 212.106L64.1501 212.51L64.1608 212.914L64.1701 213.317L64.1768 213.722L64.1848 214.128L64.1901 214.532L64.1941 214.937L64.1968 215.342V215.749L64.1954 216.154L64.1914 216.561L64.1874 216.968L64.1808 217.374L64.1714 217.781L64.1621 218.189L64.1474 218.596L64.1328 219.005L64.1141 219.408L64.1034 219.55L64.0834 219.694L64.0514 219.834L64.0101 219.972L63.9594 220.106L63.8994 220.238L63.8314 220.365L63.7528 220.485L63.6688 220.601L63.5741 220.71L63.4741 220.814L63.3661 220.909L63.2514 220.997L63.1314 221.076L63.0074 221.148L62.8768 221.209L62.7421 221.261L62.6061 221.305L62.4661 221.338L62.3234 221.362L62.1808 221.376L62.0354 221.38L61.8928 221.373L61.7501 221.357L61.6074 221.33L61.4688 221.296L61.3314 221.25L61.1994 221.196L61.0701 221.13L60.9461 221.057L60.8274 220.976L60.7141 220.885L60.6088 220.788L60.5088 220.684L60.4181 220.573L60.3341 220.456L60.2581 220.332L60.1928 220.206L60.1354 220.073L60.0861 219.937L60.0474 219.798L60.0194 219.657L60.0008 219.514L59.9914 219.372L59.9941 219.226L60.0101 218.837L60.0248 218.452L60.0381 218.068L60.0474 217.681L60.0568 217.296L60.0621 216.909L60.0674 216.521L60.0701 216.134V215.746V215.356L60.0674 214.968L60.0648 214.578L60.0594 214.188L60.0541 213.798L60.0448 213.406L60.0368 213.014L60.0261 212.622L60.0154 212.23L59.9888 211.445L59.9608 210.656L59.9288 209.866L59.8941 209.074L59.8594 208.281L59.7834 206.69L59.7101 205.094L59.6741 204.293L59.6394 203.492L59.6088 202.688L59.5808 201.882L59.5554 201.077L59.5448 200.674L59.5354 200.27L59.5288 199.865L59.5208 199.46L59.5154 199.056L59.5101 198.65L59.5074 198.246L59.5061 197.84L59.5074 197.433L59.5101 197.026L59.5154 196.62L59.5208 196.213L59.5301 195.806L59.5394 195.4L59.5528 194.992L59.5674 194.584L59.5861 194.176L59.6034 193.774L59.6168 193.629L59.6381 193.488L59.6688 193.346L59.7114 193.209L59.7621 193.074L59.8234 192.945L59.8914 192.817L59.9701 192.697L60.0568 192.581L60.1488 192.472L60.2514 192.37L60.3608 192.276L60.4741 192.188L60.5954 192.109L60.7208 192.04L60.8514 191.977L60.9848 191.925L61.1221 191.882L61.2621 191.85L61.4048 191.826L61.5474 191.813L61.6928 191.81L61.8354 191.817Z" fill="white"/>
<path fill-rule="evenodd" clip-rule="evenodd" d="M61.4858 204.859L61.5952 204.867L61.7045 204.881L61.8125 204.901L61.9192 204.925L62.0245 204.957L62.1272 204.993L62.2298 205.034L62.3285 205.082L62.4258 205.135L62.5192 205.193L62.6085 205.253L62.6965 205.321L62.7792 205.393L62.8592 205.469L62.9338 205.549L63.0058 205.633L63.0712 205.721L63.1338 205.81L63.1885 205.905L63.2405 206.002L63.2872 206.102L63.3285 206.203L63.3645 206.307L63.3938 206.414L63.4165 206.521L63.4352 206.629L63.4485 206.738L63.4565 206.847L63.4578 206.958L63.4512 207.067L63.4418 207.175L63.4245 207.285L63.4018 207.391L63.3738 207.498L63.3418 207.603L63.3005 207.706L63.2565 207.806L63.2085 207.903L63.1525 207.999L63.0925 208.091L63.0272 208.179L62.9578 208.266L62.8845 208.346L62.8072 208.423L62.7245 208.497L62.6392 208.565L62.5485 208.63L62.4578 208.689L62.3618 208.743L62.2632 208.791L62.1618 208.834L62.0592 208.873L61.9552 208.906L61.8485 208.934L61.7392 208.955L61.6325 208.97L61.5218 208.979L61.0592 209.007L60.5912 209.035L60.1232 209.061L59.6525 209.083L58.7138 209.129L57.7765 209.17L56.8392 209.211L55.9045 209.255L55.4392 209.279L54.9752 209.303L54.5138 209.331L54.0525 209.359L53.5938 209.391L53.1365 209.425L52.6805 209.462L52.2285 209.502L51.7765 209.545L51.3272 209.59L51.1045 209.617L50.8832 209.641L50.6618 209.667L50.4418 209.697L50.2218 209.725L50.0018 209.755L49.7845 209.787L49.5672 209.818L49.3498 209.853L49.1338 209.887L48.9192 209.923L48.7058 209.962L48.4925 210.001L48.2805 210.041L48.0698 210.082L47.8605 210.125L47.6512 210.169L47.4432 210.215L47.2352 210.262L47.0232 210.313L46.9152 210.335L46.8058 210.353L46.6978 210.362L46.5872 210.369L46.4778 210.367L46.3685 210.361L46.2592 210.349L46.1512 210.331L46.0445 210.307L45.9378 210.277L45.8338 210.243L45.7325 210.201L45.6312 210.155L45.5352 210.105L45.4418 210.047L45.3498 209.986L45.2618 209.921L45.1778 209.85L45.0965 209.775L45.0218 209.695L44.9498 209.611L44.8818 209.526L44.8192 209.437L44.7632 209.343L44.7085 209.246L44.6618 209.146L44.6205 209.045L44.5832 208.942L44.5512 208.837L44.5272 208.73L44.5072 208.622L44.4925 208.513L44.4845 208.403L44.4832 208.293L44.4858 208.185L44.4952 208.074L44.5125 207.965L44.5312 207.858L44.5592 207.751L44.5925 207.647L44.6285 207.543L44.6725 207.442L44.7205 207.343L44.7752 207.249L44.8338 207.155L44.8965 207.065L44.9658 206.979L45.0392 206.898L45.1165 206.819L45.1965 206.746L45.2818 206.675L45.3698 206.611L45.4632 206.551L45.5578 206.495L45.6538 206.445L45.7552 206.401L45.8578 206.362L45.9618 206.327L46.0685 206.299L46.2992 206.245L46.5392 206.19L46.7778 206.137L47.0165 206.085L47.2578 206.037L47.4978 205.99L47.7392 205.943L47.9792 205.899L48.2218 205.858L48.4618 205.818L48.7045 205.777L48.9458 205.741L49.1872 205.705L49.4298 205.67L49.6712 205.637L49.9138 205.605L50.1552 205.574L50.3992 205.545L50.6405 205.517L50.8845 205.49L51.3672 205.439L51.8512 205.394L52.3352 205.351L52.8192 205.311L53.3005 205.275L53.7845 205.243L54.2645 205.214L54.7445 205.186L55.2232 205.159L55.7018 205.135L56.6498 205.09L57.5925 205.049L58.5272 205.007L59.4525 204.965L59.9072 204.941L60.3618 204.915L60.8125 204.889L61.2645 204.862L61.3752 204.858L61.4858 204.859Z" fill="white"/>
<path fill-rule="evenodd" clip-rule="evenodd" d="M82.0828 190.873L82.1961 190.885L82.3094 190.902L82.4188 190.928L82.5294 190.957L82.6374 190.993L82.7441 191.036L82.8468 191.084L82.9468 191.137L83.0428 191.196L83.1374 191.26L83.2268 191.329L83.3134 191.402L83.3948 191.482L83.4721 191.565L83.5454 191.652L83.6134 191.744L83.6774 191.838L83.7348 191.936L83.7854 192.038L83.8321 192.141L83.8734 192.246L83.9081 192.356L83.9361 192.466L83.9574 192.577L83.9748 192.689L83.9854 192.802L83.9894 192.917L83.9868 193.03L83.9774 193.144L83.9628 193.257L83.9428 193.369L83.9148 193.478L83.8814 193.588L83.8414 193.693L83.7974 193.798L83.7468 193.9L83.6908 193.998L83.6281 194.094L83.5628 194.186L83.4894 194.273L83.4134 194.358L83.3334 194.438L83.2481 194.513L83.1588 194.585L83.0654 194.649L82.9681 194.709L82.8694 194.764L82.7668 194.814L82.6614 194.857L82.5548 194.894L82.4454 194.926L82.3348 194.952L82.2214 194.972L81.9641 195.009L81.6961 195.044L81.4294 195.078L81.1641 195.109L80.8974 195.137L80.6321 195.165L80.3654 195.189L80.1014 195.21L79.8361 195.23L79.5748 195.249L79.3108 195.266L79.0494 195.281L78.7868 195.294L78.5268 195.306L78.2654 195.317L78.0041 195.326L77.4894 195.342L76.9748 195.356L76.4641 195.365L75.9534 195.373L74.9454 195.384L74.4454 195.389L73.9481 195.397L73.4548 195.405L72.9654 195.417L72.4774 195.43L72.2361 195.44L71.9961 195.449L71.7548 195.458L71.5161 195.472L71.2774 195.484L71.0414 195.498L70.8054 195.514L70.5694 195.532L70.3348 195.55L70.1028 195.57L69.8694 195.593L69.6388 195.616L69.4094 195.642L69.1801 195.67L68.9508 195.701L68.7241 195.732L68.4974 195.766L68.2734 195.802L68.0481 195.841L67.8241 195.882L67.6041 195.925L67.3814 195.972L67.1628 196.02L66.9441 196.072L66.7241 196.124L66.4934 196.185L66.3841 196.21L66.2721 196.23L66.1588 196.244L66.0454 196.25L65.9321 196.252L65.8174 196.246L65.7041 196.234L65.5921 196.216L65.4814 196.193L65.3721 196.164L65.2641 196.125L65.1588 196.084L65.0548 196.037L64.9548 195.984L64.8588 195.924L64.7628 195.861L64.6734 195.79L64.5868 195.717L64.5054 195.638L64.4281 195.556L64.3548 195.468L64.2868 195.377L64.2228 195.282L64.1654 195.185L64.1148 195.084L64.0668 194.98L64.0268 194.873L63.9934 194.765L63.9641 194.656L63.9414 194.544L63.9241 194.43L63.9148 194.318L63.9094 194.205L63.9121 194.092L63.9214 193.977L63.9361 193.865L63.9574 193.754L63.9841 193.644L64.0174 193.534L64.0548 193.428L64.1014 193.322L64.1521 193.221L64.2081 193.122L64.2694 193.026L64.3348 192.934L64.4068 192.846L64.4841 192.762L64.5641 192.682L64.6508 192.606L64.7388 192.537L64.8321 192.47L64.9281 192.41L65.0281 192.356L65.1308 192.308L65.2348 192.262L65.3414 192.225L65.4508 192.194L65.7081 192.126L65.9774 192.06L66.2494 191.996L66.5188 191.937L66.7868 191.881L67.0561 191.829L67.3268 191.78L67.5934 191.733L67.8614 191.689L68.1294 191.65L68.3961 191.612L68.6641 191.576L68.9308 191.545L69.1948 191.514L69.4601 191.488L69.7254 191.461L69.9908 191.438L70.2534 191.417L70.5174 191.4L70.7788 191.38L71.0414 191.365L71.3041 191.35L71.5641 191.338L71.8254 191.328L72.0841 191.316L72.3454 191.308L72.8601 191.293L73.3721 191.281L73.8841 191.272L74.3921 191.265L74.8961 191.258L75.8988 191.246L76.3948 191.24L76.8881 191.232L77.3774 191.218L77.8654 191.204L78.1054 191.196L78.3454 191.185L78.5868 191.174L78.8254 191.161L79.0628 191.149L79.3001 191.132L79.5361 191.117L79.7721 191.098L80.0054 191.08L80.2401 191.058L80.4721 191.036L80.7028 191.009L80.9348 190.982L81.1641 190.953L81.3921 190.924L81.6308 190.889L81.7441 190.874L81.8574 190.868H81.9694L82.0828 190.873Z" fill="white"/>
<path fill-rule="evenodd" clip-rule="evenodd" d="M74.0066 192.327L74.1466 192.343L74.2853 192.367L74.4226 192.403L74.5559 192.445L74.6853 192.499L74.8133 192.56L74.9346 192.632L75.0533 192.709L75.1626 192.797L75.2693 192.889L75.3679 192.991L75.4573 193.097L75.5426 193.211L75.6186 193.329L75.6853 193.453L75.7453 193.58L75.7959 193.712L75.8373 193.847L75.8693 193.984L75.8906 194.123L75.9053 194.264L75.9493 195.035L75.9906 195.809L76.0293 196.583L76.0666 197.357L76.0999 198.132L76.1306 198.904L76.1613 199.677L76.1879 200.449L76.2133 201.221L76.2373 201.993L76.2586 202.764L76.2799 203.536L76.3186 205.076L76.3533 206.613L76.3866 208.151L76.4173 209.687L76.4506 211.219L76.4853 212.751L76.5239 214.281L76.5439 215.045L76.5653 215.809L76.5879 216.572L76.6133 217.336L76.6399 218.099L76.6666 218.863L76.6679 219.004L76.6586 219.143L76.6399 219.284L76.6133 219.421L76.5733 219.557L76.5279 219.689L76.4719 219.82L76.4079 219.944L76.3346 220.065L76.2533 220.181L76.1653 220.289L76.0693 220.393L75.9666 220.489L75.8573 220.579L75.7426 220.66L75.6226 220.735L75.4986 220.799L75.3693 220.855L75.2359 220.903L75.1013 220.941L74.9626 220.971L74.8239 220.989L74.6826 221L74.5426 221.001L74.4026 220.992L74.2613 220.972L74.1239 220.944L73.9879 220.908L73.8546 220.859L73.7266 220.803L73.5999 220.741L73.4799 220.668L73.3653 220.585L73.2546 220.497L73.1519 220.403L73.0559 220.299L72.9666 220.191L72.8853 220.076L72.8106 219.956L72.7466 219.831L72.6893 219.701L72.6426 219.569L72.6026 219.433L72.5746 219.296L72.5546 219.156L72.5439 219.016L72.5159 218.245L72.4893 217.473L72.4639 216.701L72.4413 215.931L72.4199 215.159L72.3986 214.388L72.3613 212.848L72.3266 211.309L72.2933 209.772L72.2626 208.239L72.2293 206.704L72.1946 205.173L72.1559 203.643L72.1346 202.88L72.1133 202.116L72.0906 201.353L72.0639 200.589L72.0373 199.827L72.0079 199.067L71.9786 198.304L71.9439 197.544L71.9093 196.783L71.8706 196.024L71.8293 195.265L71.7853 194.501L71.7826 194.361L71.7879 194.22L71.8039 194.08L71.8293 193.941L71.8639 193.805L71.9079 193.672L71.9613 193.541L72.0226 193.413L72.0933 193.292L72.1719 193.175L72.2573 193.064L72.3519 192.959L72.4519 192.86L72.5599 192.769L72.6733 192.685L72.7919 192.609L72.9159 192.541L73.0426 192.481L73.1746 192.432L73.3093 192.389L73.4466 192.359L73.5866 192.336L73.7266 192.323L73.8666 192.32L74.0066 192.327Z" fill="white"/>
<path fill-rule="evenodd" clip-rule="evenodd" d="M102.432 188.842L102.576 188.854L102.586 188.855L102.739 188.878L102.89 188.912L103.036 188.958L103.044 188.96L103.156 189.004L103.266 189.052L103.372 189.108L103.38 189.114L103.494 189.183L103.603 189.258L103.612 189.266L103.69 189.326L103.764 189.39L103.772 189.399L103.851 189.474L103.927 189.552L103.946 189.575L104.01 189.647L104.068 189.723L104.128 189.804L104.211 189.932L104.274 190.042L104.328 190.142L104.376 190.234L104.423 190.33L104.498 190.494L104.57 190.663L104.636 190.826L104.698 190.984L104.758 191.139L104.854 191.406L104.926 191.61L104.968 191.732L105.034 191.943L105.091 192.14L105.146 192.339L105.195 192.538L105.244 192.735L105.288 192.934L105.331 193.134L105.372 193.331L105.408 193.528L105.443 193.727L105.475 193.924L105.504 194.122L105.532 194.319L105.558 194.515L105.582 194.712L105.603 194.907L105.623 195.103L105.64 195.296L105.656 195.491L105.671 195.683L105.683 195.876L105.695 196.067L105.706 196.259L105.715 196.451L105.728 196.824L105.738 197.198L105.744 197.566L105.747 197.924L105.75 198.648V199.37L105.747 200.806L105.742 202.242L105.738 203.676L105.732 205.107L105.731 206.538V207.25L105.734 207.963L105.738 208.675L105.742 209.387L105.751 210.098L105.762 210.808L105.772 211.518L105.788 212.227L105.807 212.934L105.827 213.64L105.851 214.346L105.88 215.052L105.911 215.756L105.948 216.462L105.967 216.812L105.988 217.163L106.011 217.514L106.034 217.864L106.058 218.215L106.082 218.564L106.11 218.914L106.136 219.266L106.166 219.615L106.196 219.964L106.228 220.312L106.262 220.667L106.27 220.82L106.267 220.974L106.252 221.127L106.227 221.28L106.19 221.43L106.142 221.575L106.083 221.719L106.014 221.856L105.934 221.988L105.844 222.115L105.747 222.232L105.639 222.344L105.524 222.447L105.402 222.542L105.272 222.626L105.138 222.7L104.998 222.764L104.852 222.819L104.706 222.862L104.555 222.894L104.402 222.914L104.247 222.922L104.094 222.919L103.939 222.904L103.787 222.879L103.638 222.842L103.491 222.795L103.348 222.735L103.211 222.667L103.078 222.587L102.954 222.498L102.835 222.399L102.723 222.291L102.62 222.176L102.527 222.055L102.44 221.926L102.367 221.79L102.302 221.651L102.248 221.506L102.206 221.358L102.175 221.208L102.155 221.055L102.12 220.694L102.087 220.328L102.055 219.963L102.026 219.599L101.995 219.234L101.968 218.868L101.942 218.504L101.916 218.139L101.894 217.776L101.871 217.412L101.85 217.047L101.828 216.682L101.792 215.955L101.759 215.227L101.728 214.502L101.704 213.774L101.683 213.048L101.664 212.322L101.648 211.598L101.635 210.872L101.626 210.15L101.619 209.426L101.612 208.703L101.608 207.98L101.606 207.259V206.538L101.607 205.099L101.611 203.662L101.618 202.227L101.622 200.795L101.624 199.367V198.654L101.622 197.946L101.62 197.612L101.619 197.551L101.564 197.692L101.367 198.222L100.967 199.29L100.763 199.83L100.558 200.37L100.348 200.911L100.242 201.186L100.132 201.458L100.024 201.73L99.9124 202.002L99.8004 202.275L99.6857 202.547L99.571 202.82L99.451 203.092L99.331 203.367L99.2097 203.634L99.059 203.968L98.9657 204.172L98.8617 204.392L98.747 204.626L98.683 204.754L98.6177 204.879L98.5497 205.007L98.479 205.139L98.4044 205.271L98.3257 205.403L98.243 205.538L98.159 205.675L98.0697 205.812L97.975 205.95L97.875 206.087L97.7684 206.224L97.6564 206.362L97.5364 206.502L97.4137 206.63L97.3404 206.706L97.2684 206.775L97.195 206.842L97.1177 206.911L97.0377 206.978L96.9537 207.043L96.8644 207.11L96.771 207.175L96.675 207.236L96.5737 207.299L96.4657 207.358L96.3537 207.415L96.2377 207.468L96.155 207.503L96.0137 207.554L95.867 207.595L95.719 207.626L95.5697 207.646L95.419 207.654L95.2684 207.651L95.1164 207.639L94.967 207.614L94.8217 207.578L94.6777 207.532L94.5364 207.476L94.4004 207.408L94.2697 207.334L94.267 207.332L94.1444 207.247L94.0284 207.154L93.9177 207.052L93.8164 206.942L93.751 206.868L93.6537 206.732L93.5537 206.583L93.4444 206.41L93.315 206.202L93.0057 205.699L92.6537 205.119L91.9804 204.011L91.743 203.624L91.675 203.512L91.6457 203.468L91.511 203.262L91.3644 203.028L91.2217 202.796L91.083 202.566L90.947 202.335L90.815 202.106L90.6844 201.878L90.559 201.652L90.3124 201.21L90.071 200.775L89.8324 200.348L89.7164 200.144L89.599 199.94L89.4817 199.739L89.363 199.543L89.2444 199.352L89.127 199.166L89.007 198.982L88.8844 198.8L88.8257 198.715L88.7657 198.63L88.7044 198.543L88.6417 198.459L88.5804 198.378L88.5177 198.296L88.455 198.215L88.391 198.135L88.3284 198.058L88.2644 197.982L88.199 197.906L88.1337 197.832L88.095 197.788L88.107 198.042L88.127 198.344L88.1697 198.942L88.1857 199.231L88.195 199.379L88.2004 199.516L88.2244 200.04L88.247 200.562L88.271 201.09L88.2924 201.622L88.303 201.892L88.3124 202.164L88.3204 202.438L88.3257 202.712L88.331 202.988L88.3337 203.266V203.547L88.3324 203.827L88.327 204.22L88.319 204.614L88.3084 205.003L88.295 205.392L88.283 205.779L88.2684 206.166L88.2364 206.931L88.2044 207.692L88.171 208.448L88.1417 209.199L88.1284 209.568L88.1177 209.942L88.111 210.232L88.1044 210.522L88.0937 211.11L88.0884 211.696L88.0844 212.284L88.083 212.874L88.0857 213.466L88.091 214.059L88.0964 214.651L88.103 215.247L88.111 215.843L88.1284 217.042L88.147 218.243L88.1537 218.846L88.159 219.448L88.155 219.6L88.139 219.754L88.1124 219.906L88.0737 220.056L88.0244 220.202L87.9644 220.343L87.8924 220.482L87.8124 220.612L87.723 220.738L87.623 220.855L87.515 220.966L87.399 221.067L87.275 221.16L87.1457 221.243L87.011 221.316L86.8684 221.38L86.7244 221.432L86.575 221.474L86.4244 221.504L86.271 221.523L86.1164 221.53L85.963 221.526L85.8097 221.51L85.6577 221.483L85.5084 221.444L85.3617 221.395L85.2204 221.334L85.083 221.264L84.9524 221.183L84.8257 221.094L84.7084 220.994L84.599 220.886L84.4964 220.77L84.4044 220.646L84.3204 220.515L84.247 220.38L84.1844 220.239L84.131 220.095L84.0897 219.946L84.0604 219.795L84.0417 219.642L84.0337 219.487L84.0284 218.892L84.0204 218.296L84.0044 217.102L83.987 215.903L83.9777 215.3L83.971 214.698L83.9644 214.092L83.9604 213.487L83.9577 212.879L83.9604 212.271L83.9617 211.66L83.9697 211.05L83.979 210.44L83.987 210.132L83.995 209.826L84.007 209.438L84.019 209.048L84.0497 208.28L84.0817 207.515L84.1137 206.758L84.1457 206.003L84.1604 205.63L84.1724 205.256L84.1844 204.886L84.1937 204.515L84.2017 204.147L84.207 203.783L84.2084 203.536V203.291L84.2057 203.043L84.2017 202.795L84.1964 202.544L84.1884 202.292L84.1804 202.039L84.1697 201.786L84.1484 201.268L84.1257 200.748L84.1004 200.22L84.079 199.694L84.0737 199.58L84.0684 199.471L84.0524 199.212L84.011 198.619L83.991 198.29L83.971 197.947L83.963 197.764L83.9564 197.582L83.951 197.395L83.9484 197.207L83.947 197.015L83.9484 196.822L83.9524 196.626L83.9604 196.426L83.971 196.226L83.987 196.024L84.007 195.819L84.0324 195.62L84.0484 195.51L84.0644 195.406L84.083 195.299L84.103 195.194L84.1244 195.087L84.1484 194.98L84.175 194.874L84.203 194.764L84.2337 194.656L84.2657 194.547L84.3017 194.436L84.3417 194.327L84.383 194.216L84.4297 194.104L84.479 193.992L84.551 193.842L84.6004 193.752L84.6644 193.647L84.7337 193.548L84.751 193.523L84.827 193.426L84.9084 193.332L84.9297 193.311L85.0164 193.224L85.1084 193.142L85.1297 193.122L85.2244 193.047L85.3217 192.98L85.3457 192.963L85.4417 192.904L85.539 192.85L85.567 192.835L85.6604 192.79L85.7564 192.75L85.7857 192.738L85.875 192.704L85.9644 192.678L86.0764 192.646L86.2684 192.606L86.4444 192.583L86.6084 192.574L86.7604 192.572L86.899 192.579L87.0297 192.591L87.151 192.608L87.2657 192.626L87.375 192.648L87.4777 192.674L87.5764 192.699L87.6697 192.727L87.7617 192.755L87.859 192.788L88.0177 192.847L88.179 192.912L88.335 192.98L88.4844 193.05L88.6284 193.12L88.771 193.194L88.907 193.267L89.039 193.34L89.1657 193.411L89.2884 193.484L89.407 193.555L89.519 193.624L89.6297 193.695L89.8217 193.822L89.9977 193.943L90.1457 194.051L90.2377 194.123L90.323 194.195L90.4577 194.316L90.571 194.424L90.683 194.531L90.7937 194.64L90.9017 194.751L91.007 194.862L91.1097 194.972L91.211 195.084L91.311 195.198L91.4084 195.312L91.5044 195.424L91.599 195.539L91.6897 195.654L91.7804 195.771L91.8697 195.887L91.955 196.003L92.0417 196.119L92.1244 196.235L92.2084 196.352L92.291 196.471L92.4457 196.702L92.5977 196.935L92.7444 197.168L92.8884 197.4L93.027 197.632L93.163 197.863L93.2964 198.092L93.427 198.322L93.6764 198.768L93.919 199.208L94.159 199.639L94.2777 199.848L94.395 200.055L94.511 200.259L94.6284 200.458L94.7457 200.652L94.863 200.843L94.9817 201.031L95.1177 201.238L95.1737 201.328L95.2617 201.468L95.4897 201.846L95.5644 201.684L95.6724 201.439L95.7804 201.191L95.8857 200.942L95.9924 200.69L96.0964 200.438L96.2004 200.184L96.3017 199.927L96.403 199.671L96.5044 199.415L96.7057 198.894L96.9044 198.37L97.103 197.842L97.503 196.775L97.7044 196.238L97.9084 195.698L98.1164 195.156L98.3284 194.615L98.4364 194.34L98.547 194.067L98.6577 193.795L98.7657 193.536L98.775 193.51L98.7897 193.475L98.843 193.33L98.999 192.899L99.0964 192.632L99.2057 192.342L99.3217 192.036L99.3857 191.875L99.451 191.715L99.5177 191.554L99.587 191.392L99.6604 191.228L99.735 191.066L99.8124 190.903L99.8924 190.742L99.979 190.579L100.068 190.418L100.162 190.263L100.219 190.172L100.275 190.09L100.334 190.006L100.398 189.918L100.466 189.83L100.542 189.739L100.626 189.646L100.719 189.55L100.826 189.45L100.95 189.346L101.095 189.24L101.263 189.134L101.372 189.078L101.466 189.034L101.562 188.994L101.588 188.982L101.72 188.936L101.855 188.899L101.991 188.871L101.998 188.87L102.143 188.85L102.288 188.842H102.432Z" fill="white"/>
<path fill-rule="evenodd" clip-rule="evenodd" d="M111.511 189.147L111.667 189.167L111.822 189.201L111.974 189.243L112.122 189.299L112.266 189.365L112.403 189.442L112.535 189.53L112.659 189.627L112.776 189.733L112.884 189.849L112.983 189.973L113.072 190.102L113.151 190.238L113.22 190.382L113.278 190.53L113.323 190.679L113.358 190.835L113.379 190.99L113.39 191.149L113.387 191.306L113.351 192.015L113.316 192.723L113.286 193.433L113.256 194.145L113.227 194.859L113.202 195.575L113.178 196.294L113.156 197.014L113.138 197.734L113.123 198.457L113.111 199.178L113.1 199.902L113.095 200.626L113.091 201.35V202.074L113.095 202.797L113.102 203.521L113.114 204.242L113.13 204.965L113.148 205.686L113.159 206.045L113.172 206.402L113.186 206.762L113.2 207.119L113.215 207.478L113.232 207.837L113.25 208.193L113.268 208.55L113.288 208.905L113.31 209.259L113.332 209.615L113.358 209.969L113.382 210.323L113.407 210.675L113.435 211.027L113.464 211.378L113.495 211.73L113.524 212.079L113.558 212.429L113.592 212.777L113.628 213.123L113.664 213.47L113.703 213.815L113.744 214.175L113.754 214.269L113.763 214.377L113.77 214.482L113.775 214.593L113.782 214.795L113.784 215.006V215.221L113.783 215.442L113.774 215.893L113.764 216.363L113.754 216.846L113.75 217.087L113.748 217.326V217.565L113.751 217.801L113.756 218.03L113.763 218.253L113.772 218.473L113.78 218.571L113.787 218.671L113.794 218.77L113.804 218.863L113.814 218.954L113.823 219.042L113.835 219.123L113.846 219.201L113.859 219.274L113.871 219.342L113.883 219.402L113.895 219.455L113.919 219.465L113.976 219.485L114.03 219.499L114.088 219.514L114.151 219.529L114.216 219.542L114.288 219.554L114.363 219.563L114.442 219.573L114.523 219.581L114.608 219.587L114.696 219.593L114.787 219.595L114.878 219.597L114.974 219.598L115.068 219.597L115.167 219.594L115.266 219.59L115.364 219.585L115.464 219.579L115.56 219.571L115.767 219.554L115.975 219.534L116.472 219.481L116.983 219.427L117.495 219.373L118.008 219.321L118.523 219.265L119.036 219.206L119.288 219.174L119.542 219.142L119.796 219.111L120.048 219.077L120.299 219.042L120.55 219.007L120.798 218.967L121.043 218.929L121.287 218.89L121.53 218.846L121.77 218.803L122.008 218.757L122.243 218.709L122.475 218.659L122.704 218.609L122.931 218.554L123.154 218.498L123.374 218.441L123.591 218.381L123.818 218.314L123.97 218.275L124.126 218.249L124.284 218.234L124.442 218.231L124.599 218.239L124.756 218.261L124.911 218.295L125.062 218.341L125.21 218.397L125.352 218.465L125.49 218.543L125.62 218.633L125.743 218.731L125.859 218.839L125.967 218.954L126.064 219.078L126.152 219.21L126.231 219.347L126.298 219.491L126.354 219.638L126.399 219.79L126.431 219.945L126.451 220.101L126.459 220.258L126.456 220.417L126.442 220.573L126.414 220.73L126.374 220.883L126.323 221.031L126.26 221.178L126.187 221.317L126.104 221.453L126.011 221.579L125.908 221.698L125.795 221.81L125.676 221.913L125.547 222.006L125.414 222.089L125.274 222.161L125.127 222.223L124.978 222.273L124.722 222.347L124.452 222.423L124.179 222.495L123.906 222.563L123.632 222.627L123.358 222.689L123.082 222.747L122.807 222.803L122.532 222.857L122.256 222.906L121.98 222.955L121.704 223.002L121.428 223.045L121.154 223.087L120.879 223.126L120.606 223.165L120.332 223.201L120.058 223.235L119.788 223.27L119.515 223.302L118.98 223.363L118.45 223.421L117.926 223.477L117.41 223.53L116.904 223.583L116.4 223.635L116.15 223.662L115.886 223.685L115.739 223.694L115.596 223.703L115.448 223.713L115.299 223.718L115.147 223.721L114.991 223.723L114.832 223.722L114.672 223.719L114.51 223.714L114.344 223.705L114.176 223.691L114.007 223.675L113.835 223.657L113.659 223.63L113.483 223.602L113.306 223.567L113.124 223.527L112.943 223.479L112.76 223.427L112.586 223.37L112.483 223.334L112.391 223.298L112.299 223.262L112.206 223.222L112.112 223.179L112.019 223.137L111.927 223.091L111.834 223.043L111.742 222.991L111.648 222.939L111.556 222.883L111.467 222.825L111.376 222.762L111.286 222.698L111.198 222.631L111.104 222.558L111.02 222.487L110.936 222.411L110.858 222.334L110.784 222.255L110.714 222.175L110.648 222.095L110.587 222.014L110.52 221.925L110.424 221.777L110.331 221.619L110.248 221.462L110.178 221.309L110.112 221.155L110.055 221.005L110.006 220.855L109.959 220.709L109.919 220.562L109.882 220.417L109.851 220.273L109.82 220.127L109.795 219.985L109.77 219.842L109.748 219.699L109.731 219.557L109.712 219.414L109.699 219.273L109.684 219.129L109.674 218.987L109.663 218.846L109.654 218.699L109.64 218.422L109.631 218.139L109.626 217.861L109.623 217.583V217.31L109.626 217.041L109.628 216.777L109.639 216.275L109.65 215.806L109.658 215.385L109.659 215.202V215.034L109.658 214.891L109.652 214.765L109.651 214.723L109.648 214.685L109.646 214.655L109.643 214.625L109.603 214.277L109.563 213.914L109.524 213.55L109.487 213.186L109.451 212.821L109.416 212.455L109.386 212.091L109.354 211.725L109.323 211.357L109.295 210.989L109.266 210.621L109.24 210.253L109.216 209.885L109.194 209.515L109.171 209.146L109.15 208.775L109.13 208.405L109.111 208.034L109.095 207.665L109.079 207.293L109.063 206.921L109.05 206.55L109.038 206.177L109.026 205.805L109.006 205.063L108.99 204.318L108.979 203.573L108.97 202.83L108.966 202.085V201.342L108.97 200.598L108.975 199.857L108.986 199.115L108.999 198.377L109.014 197.639L109.032 196.901L109.054 196.167L109.079 195.434L109.104 194.705L109.132 193.977L109.164 193.251L109.196 192.53L109.232 191.81L109.267 191.098L109.282 190.941L109.308 190.785L109.344 190.631L109.395 190.481L109.455 190.335L109.528 190.194L109.61 190.059L109.703 189.93L109.804 189.811L109.915 189.699L110.036 189.594L110.162 189.501L110.295 189.417L110.435 189.342L110.58 189.279L110.731 189.227L110.882 189.187L111.039 189.161L111.196 189.143L111.354 189.141L111.511 189.147Z" fill="white"/>
<path fill-rule="evenodd" clip-rule="evenodd" d="M169.378 48.1623C169.378 34.7716 163.576 23.9009 150.186 23.9009H89.2676C75.8783 23.9009 70.2263 34.7716 70.2263 48.1623V73.7743C70.2263 87.1649 75.8783 98.0356 89.2676 98.0356H109.702L124.157 119.41C124.157 119.41 127.837 124.893 131.512 124.325C135.756 123.668 135.085 116.48 135.085 116.48L136.013 98.0356H150.186C163.576 98.0356 169.378 87.1649 169.378 73.7743V48.1623Z" fill="#FF8D73"/>
<path fill-rule="evenodd" clip-rule="evenodd" d="M107.063 48.5372L107.175 48.5478L107.286 48.5638L107.397 48.5852L107.503 48.6118L107.611 48.6452L107.715 48.6838L107.818 48.7278L107.917 48.7772L108.014 48.8332L108.109 48.8932L108.199 48.9585L108.286 49.0292L108.37 49.1025L108.449 49.1812L108.523 49.2652L108.591 49.3518L108.658 49.4438L108.718 49.5372L108.773 49.6345L108.821 49.7345L108.866 49.8385L108.903 49.9425L108.935 50.0505L108.963 50.1585L108.985 50.2678L108.999 50.3798L109.007 50.4892L109.01 50.6012L109.007 50.7132L108.997 50.8252L108.982 50.9358L108.961 51.0452L108.934 51.1532L108.901 51.2598L108.863 51.3652L108.818 51.4678L108.767 51.5665L108.713 51.6638L108.651 51.7598L108.587 51.8492L108.517 51.9372L108.442 52.0198L108.363 52.0985L108.279 52.1732L108.193 52.2412L107.919 52.4492L107.638 52.6585L107.355 52.8652L107.073 53.0692L106.79 53.2705L106.506 53.4705L106.221 53.6665L105.935 53.8638L105.651 54.0572L105.366 54.2465L105.081 54.4372L104.793 54.6265L104.225 54.9972L103.653 55.3665L103.085 55.7305L102.517 56.0905L101.953 56.4492L101.391 56.8065L100.834 57.1652L100.279 57.5225L100.006 57.7025L99.7312 57.8812L99.4605 58.0625L99.1792 58.2505L99.0712 58.3212L98.9539 58.3958L98.8352 58.4665L98.7165 58.5372L98.5992 58.6052L98.4765 58.6718L98.2432 58.7958L98.0059 58.9212L97.7699 59.0412L97.3032 59.2798L97.0765 59.3958L96.8565 59.5092L96.6445 59.6238L96.5459 59.6772L96.4512 59.7318L96.4472 59.7332L96.4779 59.7492L96.5445 59.7838L96.6085 59.8145L96.7552 59.8852L96.9045 59.9518L97.0592 60.0185L97.1965 60.0758L97.3379 60.1332L97.4805 60.1905L97.6245 60.2465L97.7712 60.3012L97.9179 60.3545L98.2232 60.4652L98.5352 60.5745L98.8525 60.6838L99.4992 60.9065L99.7472 60.9918L99.9925 61.0732L100.238 61.1518L100.486 61.2292L100.734 61.3052L100.986 61.3785L101.238 61.4545L101.491 61.5252L101.746 61.5972L102.003 61.6692L102.525 61.8105L103.587 62.0932L103.793 62.1492L104.003 62.2078L104.414 62.3265L104.822 62.4465L105.225 62.5665L105.622 62.6905L106.014 62.8118L106.793 63.0505L107.174 63.1665L107.554 63.2798L107.931 63.3892L108.117 63.4412L108.301 63.4918L108.486 63.5425L108.671 63.5892L108.854 63.6372L109.037 63.6812L109.219 63.7238L109.401 63.7652L109.582 63.8065L109.774 63.8452L109.882 63.8718L109.989 63.9025L110.094 63.9398L110.198 63.9825L110.298 64.0318L110.395 64.0852L110.491 64.1452L110.582 64.2078L110.67 64.2785L110.754 64.3518L110.834 64.4292L110.91 64.5118L110.979 64.5972L111.047 64.6878L111.107 64.7812L111.165 64.8785L111.214 64.9772L111.261 65.0798L111.299 65.1838L111.334 65.2905L111.362 65.3985L111.383 65.5078L111.401 65.6198L111.411 65.7292L111.415 65.8412L111.414 65.9532L111.405 66.0652L111.393 66.1758L111.371 66.2852L111.346 66.3945L111.314 66.5012L111.278 66.6065L111.234 66.7092L111.186 66.8118L111.131 66.9078L111.073 67.0038L111.007 67.0945L110.939 67.1825L110.865 67.2665L110.787 67.3465L110.705 67.4212L110.619 67.4932L110.529 67.5585L110.435 67.6212L110.339 67.6758L110.239 67.7265L110.138 67.7718L110.033 67.8132L109.926 67.8465L109.818 67.8732L109.709 67.8972L109.598 67.9132L109.487 67.9225L109.375 67.9265L109.263 67.9252L109.151 67.9185L109.042 67.9038L108.931 67.8838L108.722 67.8412L108.503 67.7918L108.286 67.7438L108.069 67.6918L107.854 67.6385L107.642 67.5852L107.43 67.5305L107.219 67.4732L107.01 67.4158L106.801 67.3572L106.393 67.2398L105.986 67.1185L105.583 66.9958L104.795 66.7518L104.406 66.6318L104.022 66.5145L103.642 66.3985L103.265 66.2878L102.886 66.1785L102.703 66.1292L102.515 66.0772L101.451 65.7932L100.913 65.6465L100.639 65.5718L100.367 65.4945L100.093 65.4172L99.8192 65.3372L99.5445 65.2558L99.2672 65.1705L98.9899 65.0838L98.7125 64.9945L98.4325 64.9025L98.1605 64.8105L97.5085 64.5852L97.1779 64.4705L96.8405 64.3532L96.5019 64.2305L96.3272 64.1652L96.1525 64.0998L95.9779 64.0318L95.8019 63.9612L95.6232 63.8905L95.4432 63.8145L95.2339 63.7238L95.0205 63.6278L94.8099 63.5278L94.6965 63.4718L94.5885 63.4158L94.4792 63.3585L94.3685 63.2998L94.2579 63.2385L94.1485 63.1758L94.0365 63.1092L93.9259 63.0425L93.8152 62.9718L93.7059 62.8998L93.6045 62.8318L93.5059 62.7625L93.4099 62.6932L93.3139 62.6212L93.2219 62.5478L93.1299 62.4758L93.0392 62.3985L92.9525 62.3212L92.8672 62.2412L92.7819 62.1612L92.6992 62.0772L92.6192 61.9918L92.5392 61.9038L92.4619 61.8118L92.3885 61.7172L92.3152 61.6198L92.2445 61.5198L92.1765 61.4145L92.1125 61.3078L92.0512 61.1972L91.9939 61.0825L91.9392 60.9638L91.8899 60.8438L91.8432 60.7172L91.8032 60.5905L91.7672 60.4598L91.7379 60.3265L91.7152 60.1918L91.6965 60.0558L91.6845 59.9198L91.6805 59.7825L91.6819 59.6465L91.6885 59.5092L91.7019 59.3758L91.7205 59.2452L91.7445 59.1158L91.7752 58.9918L91.8099 58.8678L91.8459 58.7505L91.8899 58.6345L91.9352 58.5238L91.9819 58.4172L92.0339 58.3145L92.0872 58.2158L92.1432 58.1198L92.2005 58.0292L92.2579 57.9412L92.3179 57.8572L92.3779 57.7772L92.4392 57.6985L92.5032 57.6212L92.5712 57.5412L92.6912 57.4132L92.8192 57.2838L92.9499 57.1638L93.0792 57.0492L93.2112 56.9412L93.3432 56.8398L93.4752 56.7412L93.6072 56.6478L93.7405 56.5572L93.8712 56.4705L94.0059 56.3878L94.1379 56.3052L94.2699 56.2265L94.4019 56.1505L94.5339 56.0758L94.6685 56.0025L94.9232 55.8652L95.1779 55.7318L95.4272 55.6038L95.8965 55.3665L96.1125 55.2558L96.3125 55.1505L96.4992 55.0505L96.5779 55.0065L96.6552 54.9638L96.7245 54.9238L96.7872 54.8852L96.8405 54.8518L96.8979 54.8132L97.1725 54.6292L97.4565 54.4412L97.7432 54.2532L98.0299 54.0652L98.5992 53.6958L99.1699 53.3318L99.7379 52.9692L100.302 52.6105L100.866 52.2518L101.425 51.8945L101.979 51.5372L102.531 51.1772L102.803 50.9972L103.074 50.8158L103.345 50.6358L103.613 50.4532L103.881 50.2705L104.146 50.0878L104.407 49.9025L104.67 49.7158L104.929 49.5292L105.187 49.3398L105.443 49.1492L105.702 48.9532L105.794 48.8878L105.887 48.8278L105.985 48.7718L106.085 48.7238L106.189 48.6785L106.293 48.6425L106.399 48.6092L106.509 48.5825L106.618 48.5625L106.73 48.5465L106.841 48.5372L106.951 48.5345L107.063 48.5372Z" fill="white"/>
<path fill-rule="evenodd" clip-rule="evenodd" d="M130.962 43.5151L131.122 43.5391L131.28 43.5751L131.434 43.6244L131.585 43.6844L131.73 43.7564L131.869 43.8391L132.001 43.9338L132.125 44.0364L132.241 44.1498L132.348 44.2724L132.445 44.4018L132.53 44.5404L132.605 44.6831L132.668 44.8311L132.72 44.9858L132.76 45.1431L132.788 45.3031L132.801 45.4631L132.802 45.6258L132.792 45.7871L132.768 45.9471L132.732 46.1044L132.684 46.2604L132.622 46.4098L132.34 47.0404L132.05 47.6751L131.76 48.3058L131.465 48.9351L131.166 49.5618L130.868 50.1858L130.565 50.8098L130.262 51.4298L129.956 52.0498L129.649 52.6658L129.34 53.2818L129.028 53.8964L128.717 54.5098L128.405 55.1231L127.778 56.3418L127.15 57.5578L126.522 58.7724L125.897 59.9844L125.276 61.1964L124.965 61.8004L124.657 62.4058L124.352 63.0124L124.046 63.6178L123.744 64.2258L123.444 64.8311L123.145 65.4404L122.852 66.0458L122.657 66.4538L122.466 66.8591L122.278 67.2698L122.094 67.6818L121.91 68.0964L121.729 68.5138L121.549 68.9324L121.37 69.3538L121.193 69.7764L121.016 70.2018L120.66 71.0564L120.305 71.9178L119.945 72.7818L119.762 73.2164L119.578 73.6511L119.39 74.0871L119.202 74.5231L119.01 74.9591L118.814 75.3964L118.614 75.8324L118.409 76.2684L118.204 76.7018L118.096 76.9231L117.989 77.1404L117.881 77.3578L117.77 77.5738L117.66 77.7924L117.548 78.0098L117.433 78.2258L117.318 78.4418L117.201 78.6591L117.081 78.8751L116.962 79.0911L116.84 79.3058L116.716 79.5204L116.594 79.7284L116.508 79.8671L116.41 79.9951L116.302 80.1178L116.185 80.2284L116.061 80.3324L115.928 80.4258L115.789 80.5071L115.642 80.5764L115.492 80.6364L115.337 80.6831L115.178 80.7191L115.018 80.7404L114.856 80.7498L114.694 80.7471L114.533 80.7311L114.373 80.7031L114.217 80.6631L114.064 80.6098L113.914 80.5444L113.773 80.4684L113.636 80.3818L113.506 80.2831L113.386 80.1764L113.273 80.0604L113.17 79.9351L113.078 79.8018L112.994 79.6618L112.925 79.5164L112.866 79.3644L112.82 79.2098L112.784 79.0524L112.762 78.8924L112.752 78.7311L112.754 78.5684L112.77 78.4071L112.798 78.2471L112.838 78.0911L112.892 77.9378L112.957 77.7898L113.034 77.6458L113.149 77.4511L113.257 77.2604L113.366 77.0684L113.473 76.8764L113.58 76.6844L113.684 76.4898L113.788 76.2951L113.89 76.1004L113.992 75.9044L114.093 75.7071L114.193 75.5084L114.292 75.3098L114.39 75.1111L114.486 74.9124L114.68 74.5071L114.869 74.1004L115.056 73.6924L115.241 73.2818L115.424 72.8671L115.604 72.4524L115.784 72.0338L115.962 71.6124L116.14 71.1898L116.494 70.3378L116.849 69.4804L117.206 68.6178L117.386 68.1831L117.57 67.7484L117.756 67.3124L117.941 66.8764L118.132 66.4404L118.325 66.0031L118.521 65.5644L118.722 65.1271L118.926 64.6898L119.134 64.2538L119.438 63.6298L119.742 63.0084L120.049 62.3898L120.357 61.7711L120.668 61.1551L120.978 60.5404L121.29 59.9271L121.604 59.3151L122.23 58.0951L122.857 56.8778L123.485 55.6658L124.11 54.4538L124.733 53.2418L125.042 52.6364L125.349 52.0324L125.656 51.4271L125.958 50.8204L126.261 50.2151L126.56 49.6084L126.858 49.0018L127.152 48.3938L127.444 47.7858L127.733 47.1764L128.02 46.5671L128.302 45.9551L128.581 45.3418L128.86 44.7218L128.932 44.5764L129.014 44.4378L129.109 44.3058L129.212 44.1818L129.325 44.0658L129.446 43.9591L129.577 43.8631L129.714 43.7778L129.857 43.7018L130.006 43.6391L130.16 43.5871L130.318 43.5471L130.478 43.5191L130.638 43.5058L130.8 43.5044L130.962 43.5151Z" fill="white"/>
<path fill-rule="evenodd" clip-rule="evenodd" d="M137.981 50.2937L138.109 50.3031L138.233 50.3217L138.357 50.3484L138.481 50.3804L138.601 50.4231L138.718 50.4697L138.832 50.5257L138.944 50.5884L139.049 50.6577L139.153 50.7324L139.25 50.8137L139.342 50.9017L139.428 50.9937L139.548 51.1311L139.66 51.2564L139.776 51.3804L139.893 51.5057L140.013 51.6297L140.136 51.7537L140.26 51.8764L140.386 51.9977L140.514 52.1204L140.646 52.2417L140.78 52.3631L140.914 52.4844L141.052 52.6044L141.19 52.7244L141.332 52.8431L141.474 52.9631L141.62 53.0831L141.765 53.2004L141.914 53.3191L142.064 53.4364L142.216 53.5537L142.368 53.6711L142.521 53.7884L142.676 53.9031L142.992 54.1377L143.313 54.3711L143.636 54.6004L143.964 54.8324L144.297 55.0644L144.63 55.2937L145.308 55.7604L145.989 56.2257L146.332 56.4604L146.676 56.6964L147.018 56.9351L147.361 57.1764L147.701 57.4191L148.041 57.6644L148.377 57.9124L148.546 58.0404L148.714 58.1657L148.88 58.2951L149.046 58.4244L149.212 58.5524L149.333 58.6511L149.336 58.6524L149.373 58.6751L149.428 58.7071L149.492 58.7431L149.664 58.8377L150.09 59.0711L150.333 59.2031L150.584 59.3444L150.717 59.4217L150.848 59.5004L150.981 59.5804L151.117 59.6631L151.252 59.7511L151.385 59.8431L151.521 59.9377L151.66 60.0404L151.798 60.1484L151.93 60.2617L152.009 60.3337L152.081 60.4031L152.154 60.4764L152.229 60.5564L152.306 60.6444L152.384 60.7404L152.461 60.8457L152.54 60.9631L152.62 61.0964L152.697 61.2431L152.768 61.4124L152.824 61.5737L152.861 61.7044L152.886 61.8111L152.908 61.9177L152.925 62.0244L152.941 62.1311L152.952 62.2391L152.958 62.3444L152.961 62.4497V62.5537L152.958 62.6564L152.952 62.7591L152.941 62.8591L152.929 62.9577L152.914 63.0537L152.897 63.1497L152.874 63.2564L152.832 63.4231L152.777 63.5964L152.714 63.7617L152.649 63.9204L152.577 64.0724L152.504 64.2164L152.425 64.3551L152.342 64.4884L152.258 64.6164L152.17 64.7391L152.084 64.8591L151.993 64.9737L151.901 65.0831L151.809 65.1911L151.713 65.2951L151.62 65.3977L151.521 65.4964L151.425 65.5924L151.326 65.6857L151.228 65.7764L151.129 65.8671L151.029 65.9551L150.929 66.0391L150.829 66.1244L150.729 66.2057L150.626 66.2844L150.526 66.3631L150.422 66.4417L150.224 66.5871L150.025 66.7297L149.829 66.8644L149.634 66.9924L149.445 67.1164L149.261 67.2324L149.082 67.3431L148.912 67.4457L148.75 67.5417L148.593 67.6311L148.325 67.7844L148.102 67.9071L147.878 68.0284L147.656 68.1497L147.43 68.2657L147.204 68.3817L146.98 68.4964L146.753 68.6097L146.526 68.7204L146.301 68.8297L146.073 68.9364L145.846 69.0417L145.618 69.1457L145.393 69.2484L145.165 69.3497L144.937 69.4497L144.709 69.5484L144.48 69.6471L144.028 69.8377L143.572 70.0257L143.118 70.2111L142.665 70.3911L142.212 70.5697L141.76 70.7457L140.865 71.0937L139.972 71.4404L139.53 71.6137L139.092 71.7871L138.654 71.9604L138.22 72.1364L137.79 72.3151L137.362 72.4951L136.937 72.6791L136.728 72.7697L136.518 72.8631L136.309 72.9564L136.101 73.0524L135.896 73.1484L135.69 73.2444L135.485 73.3431L135.282 73.4417L135.08 73.5431L134.88 73.6444L134.678 73.7457L134.48 73.8497L134.282 73.9551L134.078 74.0657L133.965 74.1231L133.848 74.1724L133.729 74.2151L133.608 74.2511L133.482 74.2777L133.357 74.2977L133.23 74.3111L133.105 74.3164L132.977 74.3124L132.852 74.3017L132.725 74.2831L132.601 74.2551L132.48 74.2204L132.358 74.1804L132.241 74.1311L132.126 74.0751L132.016 74.0124L131.91 73.9417L131.809 73.8657L131.713 73.7831L131.621 73.6951L131.536 73.6017L131.454 73.5031L131.38 73.4004L131.313 73.2937L131.253 73.1817L131.198 73.0657L131.152 72.9471L131.114 72.8257L131.082 72.7031L131.058 72.5777L131.042 72.4524L131.034 72.3257L131.032 72.1991L131.038 72.0724L131.056 71.9444L131.078 71.8204L131.108 71.6977L131.146 71.5751L131.192 71.4577L131.244 71.3417L131.305 71.2297L131.37 71.1217L131.444 71.0164L131.522 70.9177L131.608 70.8231L131.698 70.7351L131.794 70.6511L131.896 70.5737L132.001 70.5044L132.11 70.4391L132.329 70.3217L132.554 70.2004L132.781 70.0831L133.009 69.9671L133.234 69.8524L133.462 69.7391L133.69 69.6271L133.918 69.5177L134.148 69.4111L134.376 69.3044L134.604 69.2004L134.833 69.0977L135.06 68.9951L135.29 68.8951L135.746 68.6991L136.204 68.5071L136.658 68.3177L137.114 68.1324L137.568 67.9524L138.022 67.7737L138.474 67.5964L139.372 67.2484L140.262 66.9031L140.704 66.7311L141.142 66.5577L141.578 66.3831L142.009 66.2084L142.438 66.0311L142.866 65.8497L143.074 65.7617L143.285 65.6697L143.494 65.5777L143.704 65.4844L143.909 65.3911L144.116 65.2964L144.321 65.2017L144.526 65.1044L144.728 65.0084L144.929 64.9084L145.13 64.8097L145.329 64.7084L145.528 64.6071L145.725 64.5031L145.92 64.3991L146.116 64.2937L146.308 64.1857L146.541 64.0537L146.665 63.9804L146.797 63.9031L146.934 63.8204L147.077 63.7324L147.221 63.6417L147.368 63.5457L147.514 63.4484L147.661 63.3484L147.805 63.2457L147.949 63.1391L148.013 63.0897L148.081 63.0377L148.148 62.9857L148.212 62.9337L148.273 62.8817L148.333 62.8311L148.346 62.8191L148.328 62.8084L148.113 62.6897L147.681 62.4564L147.476 62.3417L147.368 62.2817L147.262 62.2204L147.157 62.1551L147.046 62.0857L146.925 62.0017L146.817 61.9204L146.648 61.7857L146.504 61.6724L146.36 61.5604L146.212 61.4471L146.062 61.3351L145.916 61.2231L145.608 60.9951L145.294 60.7684L144.977 60.5431L144.653 60.3164L144.326 60.0884L143.994 59.8591L143.658 59.6284L142.978 59.1644L142.29 58.6937L141.945 58.4524L141.596 58.2111L141.248 57.9657L140.901 57.7177L140.553 57.4657L140.209 57.2124L140.037 57.0804L139.864 56.9497L139.693 56.8191L139.521 56.6844L139.35 56.5524L139.181 56.4164L139.012 56.2777L138.842 56.1404L138.677 56.0004L138.509 55.8604L138.345 55.7164L138.18 55.5737L138.017 55.4271L137.854 55.2804L137.694 55.1311L137.536 54.9804L137.376 54.8271L137.22 54.6724L137.065 54.5151L136.91 54.3577L136.758 54.1964L136.61 54.0337L136.461 53.8697L136.324 53.7111L136.244 53.6137L136.169 53.5111L136.101 53.4044L136.04 53.2924L135.985 53.1777L135.938 53.0591L135.898 52.9391L135.866 52.8164L135.841 52.6911L135.824 52.5657L135.814 52.4391V52.3124L135.821 52.1844L135.836 52.0591L135.857 51.9337L135.886 51.8111L135.924 51.6884L135.968 51.5697L136.02 51.4537L136.078 51.3404L136.145 51.2324L136.216 51.1271L136.294 51.0284L136.38 50.9337L136.469 50.8444L136.565 50.7604L136.666 50.6831L136.772 50.6111L136.881 50.5471L136.994 50.4884L137.11 50.4377L137.23 50.3937L137.352 50.3577L137.476 50.3297L137.601 50.3097L137.728 50.2964L137.853 50.2911L137.981 50.2937Z" fill="white"/>
<path fill-rule="evenodd" clip-rule="evenodd" d="M285.242 73.9479C285.242 60.5572 291.045 49.6866 304.434 49.6866H365.352C378.742 49.6866 384.394 60.5572 384.394 73.9479V99.5599C384.394 112.951 378.742 123.821 365.352 123.821H344.92L330.464 145.196C330.464 145.196 326.782 150.679 323.109 150.111C318.865 149.453 319.536 142.265 319.536 142.265L318.606 123.821H304.434C291.045 123.821 285.242 112.951 285.242 99.5599V73.9479Z" fill="#FF5F6D"/>
<path fill-rule="evenodd" clip-rule="evenodd" d="M316.331 70.0444L316.46 70.0484L316.587 70.0551L316.716 70.0657L316.847 70.0817L316.976 70.0991L317.109 70.1217L317.24 70.1457L317.371 70.1764L317.501 70.2111L317.633 70.2471L317.763 70.2911L317.893 70.3364L318.024 70.3857L318.149 70.4404L318.277 70.5004L318.404 70.5644L318.528 70.6311L318.651 70.7031L318.772 70.7791L318.891 70.8591L319.007 70.9431L319.121 71.0311L319.233 71.1231L319.343 71.2177L319.449 71.3164L319.552 71.4177L319.652 71.5217L319.751 71.6311L319.847 71.7417L319.937 71.8564L320.028 71.9724L320.115 72.0911L320.196 72.2137L320.277 72.3377L320.376 72.4991L320.471 72.6604L320.561 72.8244L320.647 72.9884L320.729 73.1537L320.804 73.3204L320.877 73.4884L320.948 73.6551L321.012 73.8231L321.075 73.9911L321.133 74.1604L321.187 74.3311L321.236 74.5004L321.283 74.6697L321.327 74.8404L321.367 75.0097L321.404 75.1791L321.437 75.3484L321.469 75.5177L321.496 75.6857L321.523 75.8551L321.545 76.0244L321.565 76.1924L321.581 76.3591L321.597 76.5271L321.609 76.6937L321.621 76.8591L321.628 77.0257L321.636 77.1924L321.639 77.3551L321.64 77.5204L321.641 77.6831L321.64 77.8471L321.637 78.0084L321.633 78.1697L321.627 78.3311L321.62 78.4897L321.611 78.6511L321.599 78.8084L321.588 78.9671L321.577 79.1231L321.563 79.2817L321.532 79.5871L321.497 79.8937L321.46 80.1964L321.419 80.4924L321.377 80.7857L321.333 81.0751L321.288 81.3591L321.241 81.6377L321.193 81.9111L321.103 82.4377L321.072 82.5884L321.025 82.7377L320.972 82.8817L320.908 83.0204L320.832 83.1551L320.748 83.2844L320.652 83.4057L320.549 83.5204L320.437 83.6284L320.319 83.7257L320.192 83.8137L320.06 83.8924L319.921 83.9617L319.779 84.0204L319.633 84.0684L319.483 84.1044L319.331 84.1284L319.177 84.1431L319.023 84.1457L318.868 84.1364L318.716 84.1151L318.564 84.0831L318.416 84.0391L318.272 83.9844L318.133 83.9204L317.999 83.8457L317.869 83.7604L317.747 83.6657L317.633 83.5617L317.525 83.4497L317.428 83.3311L317.34 83.2057L317.26 83.0724L317.192 82.9337L317.133 82.7911L317.085 82.6457L317.048 82.4951L317.025 82.3431L317.011 82.1897L317.009 82.0351L317.017 81.8817L317.039 81.7284L317.129 81.2111L317.173 80.9537L317.215 80.6951L317.256 80.4364L317.297 80.1791L317.333 79.9204L317.368 79.6644L317.4 79.4071L317.428 79.1537L317.455 78.8964L317.467 78.7737L317.475 78.6484L317.484 78.5244L317.492 78.4017L317.5 78.2777L317.505 78.1551L317.511 78.0324L317.513 77.9124L317.516 77.7924L317.517 77.6737L317.516 77.5537L317.515 77.4364L317.512 77.3217L317.507 77.2071L317.501 77.0937L317.495 76.9804L317.485 76.8684L317.475 76.7577L317.464 76.6497L317.453 76.5417L317.439 76.4351L317.423 76.3311L317.405 76.2284L317.387 76.1257L317.367 76.0244L317.344 75.9257L317.32 75.8284L317.297 75.7324L317.271 75.6377L317.244 75.5444L317.213 75.4537L317.184 75.3631L317.151 75.2751L317.117 75.1884L317.081 75.1017L317.044 75.0177L317.005 74.9337L316.967 74.8524L316.924 74.7724L316.88 74.6924L316.835 74.6151L316.788 74.5377L316.764 74.5004L316.74 74.4657L316.717 74.4337L316.695 74.4057L316.675 74.3804L316.655 74.3564L316.636 74.3377L316.619 74.3191L316.601 74.3031L316.585 74.2884L316.572 74.2751L316.559 74.2644L316.545 74.2537L316.532 74.2457L316.523 74.2391L316.512 74.2311L316.501 74.2257L316.491 74.2191L316.481 74.2137L316.471 74.2097L316.46 74.2057L316.451 74.2017L316.439 74.1964L316.427 74.1937L316.413 74.1897L316.401 74.1871L316.387 74.1831L316.371 74.1804L316.355 74.1764L316.336 74.1751L316.315 74.1724L316.295 74.1711L316.271 74.1697L316.247 74.1684H316.219H316.192L316.161 74.1697L316.131 74.1724L316.097 74.1751L316.064 74.1777L316.025 74.1831L315.988 74.1884L315.949 74.1951L315.909 74.2031L315.865 74.2111L315.823 74.2204L315.777 74.2324L315.729 74.2457L315.683 74.2591L315.635 74.2724L315.583 74.2884L315.531 74.3057L315.48 74.3244L315.427 74.3444L315.372 74.3644L315.316 74.3857L315.26 74.4084L315.205 74.4337L315.148 74.4591L315.095 74.4831L314.971 74.5417L314.852 74.6017L314.729 74.6684L314.607 74.7377L314.483 74.8097L314.359 74.8857L314.233 74.9644L314.108 75.0471L313.983 75.1337L313.859 75.2204L313.735 75.3111L313.611 75.4044L313.489 75.4991L313.369 75.5951L313.251 75.6924L313.136 75.7897L313.021 75.8884L312.909 75.9884L312.8 76.0897L312.693 76.1871L312.591 76.2871L312.491 76.3844L312.395 76.4817L312.303 76.5777L312.215 76.6724L312.132 76.7644L312.052 76.8524L311.977 76.9377L311.909 77.0204L311.847 77.0991L311.788 77.1724L311.736 77.2404L311.692 77.3031L311.648 77.3644L311.579 77.4711L311.504 77.5844L311.431 77.6977L311.359 77.8124L311.288 77.9284L311.219 78.0444L311.149 78.1617L311.08 78.2791L311.016 78.3977L310.949 78.5164L310.885 78.6377L310.82 78.7591L310.757 78.8804L310.697 79.0031L310.636 79.1257L310.576 79.2484L310.519 79.3737L310.46 79.4977L310.404 79.6244L310.348 79.7497L310.293 79.8777L310.239 80.0057L310.188 80.1337L310.136 80.2631L310.084 80.3937L310.035 80.5231L309.987 80.6551L309.937 80.7857L309.892 80.9191L309.847 81.0511L309.801 81.1844L309.757 81.3191L309.715 81.4537L309.673 81.5884L309.632 81.7244L309.591 81.8604L309.553 81.9964L309.516 82.1337L309.477 82.2711L309.441 82.4084L309.407 82.5471L309.372 82.6871L309.34 82.8257L309.305 82.9657L309.275 83.1057L309.245 83.2484L309.216 83.3884L309.188 83.5311L309.16 83.6724L309.133 83.8111L309.083 84.1017L309.035 84.3884L308.992 84.6777L308.953 84.9671L308.916 85.2591L308.885 85.5511L308.857 85.8444L308.831 86.1391L308.809 86.4337L308.791 86.7297L308.776 87.0257L308.764 87.3217L308.757 87.6191L308.753 87.9164L308.752 88.2124L308.755 88.5111L308.759 88.8097L308.769 89.1071L308.781 89.4044L308.797 89.7017L308.813 89.9977L308.835 90.2951L308.86 90.5911L308.888 90.8857L308.917 91.1804L308.953 91.4737L308.988 91.7671L309.028 92.0591L309.071 92.3484L309.116 92.6391L309.164 92.9271L309.215 93.2137L309.268 93.4991L309.324 93.7831L309.383 94.0644L309.444 94.3457L309.508 94.6231L309.575 94.9004L309.643 95.1751L309.668 95.2671L309.692 95.3591L309.719 95.4511L309.747 95.5417L309.773 95.6311L309.801 95.7191L309.831 95.8071L309.859 95.8937L309.889 95.9791L309.92 96.0631L309.952 96.1444L309.984 96.2257L310.017 96.3084L310.049 96.3871L310.084 96.4657L310.119 96.5431L310.152 96.6191L310.189 96.6937L310.224 96.7671L310.261 96.8391L310.3 96.9111L310.336 96.9817L310.375 97.0497L310.413 97.1191L310.452 97.1844L310.491 97.2497L310.531 97.3151L310.572 97.3777L310.612 97.4404L310.652 97.5017L310.693 97.5617L310.736 97.6204L310.779 97.6777L310.82 97.7337L310.863 97.7897L310.907 97.8417L310.949 97.8951L310.993 97.9471L311.037 97.9964L311.08 98.0471L311.125 98.0937L311.171 98.1417L311.216 98.1871L311.26 98.2324L311.305 98.2751L311.351 98.3177L311.396 98.3591L311.443 98.3991L311.488 98.4377L311.535 98.4751L311.58 98.5124L311.627 98.5484L311.675 98.5831L311.72 98.6164L311.767 98.6484L311.815 98.6804L311.861 98.7111L311.908 98.7404L311.957 98.7684L312.004 98.7964L312.051 98.8231L312.097 98.8497L312.147 98.8737L312.195 98.8964L312.244 98.9191L312.292 98.9404L312.34 98.9617L312.389 98.9831L312.437 99.0004L312.488 99.0191L312.536 99.0364L312.587 99.0524L312.636 99.0684L312.688 99.0831L312.739 99.0951L312.789 99.1084L312.84 99.1204L312.892 99.1311L312.945 99.1417L312.996 99.1497L313.049 99.1577L313.103 99.1657L313.156 99.1724L313.209 99.1791L313.265 99.1831L313.32 99.1857L313.376 99.1884L313.432 99.1897L313.489 99.1911H313.547L313.605 99.1897L313.664 99.1871L313.723 99.1844L313.783 99.1804L313.843 99.1737L313.905 99.1671L313.967 99.1591L314.028 99.1511L314.092 99.1417L314.155 99.1297L314.221 99.1164L314.285 99.1044L314.352 99.0884L314.419 99.0724L314.485 99.0537L314.555 99.0351L314.624 99.0151L314.693 98.9937L314.764 98.9711L314.836 98.9471L314.908 98.9204L314.98 98.8924L315.053 98.8631L315.128 98.8337L315.203 98.8004L315.279 98.7671L315.356 98.7324L315.433 98.6937L315.511 98.6564L315.587 98.6164L315.668 98.5737L315.748 98.5311L315.828 98.4857L315.909 98.4377L315.992 98.3897L316.073 98.3391L316.156 98.2857L316.251 98.2257L316.383 98.1457L316.52 98.0764L316.663 98.0177L316.809 97.9711L316.96 97.9351L317.112 97.9097L317.267 97.8951L317.419 97.8937L317.575 97.9031L317.727 97.9244L317.877 97.9551L318.025 97.9977L318.171 98.0524L318.311 98.1177L318.445 98.1924L318.575 98.2777L318.696 98.3724L318.811 98.4751L318.916 98.5871L319.016 98.7057L319.104 98.8324L319.184 98.9644L319.251 99.1017L319.309 99.2457L319.359 99.3924L319.395 99.5431L319.419 99.6937L319.433 99.8471L319.435 100.002L319.427 100.155L319.405 100.308L319.373 100.459L319.331 100.608L319.276 100.752L319.212 100.891L319.136 101.026L319.051 101.155L318.957 101.276L318.855 101.391L318.743 101.499L318.623 101.596L318.497 101.684L318.381 101.76L318.255 101.84L318.129 101.918L318.003 101.992L317.875 102.067L317.748 102.138L317.621 102.208L317.495 102.275L317.367 102.342L317.239 102.404L317.111 102.466L316.981 102.524L316.853 102.582L316.724 102.638L316.595 102.691L316.467 102.74L316.337 102.79L316.207 102.836L316.079 102.882L315.947 102.924L315.816 102.964L315.687 103.003L315.556 103.039L315.425 103.072L315.296 103.104L315.165 103.134L315.035 103.162L314.905 103.186L314.773 103.21L314.643 103.231L314.513 103.25L314.381 103.266L314.251 103.279L314.121 103.291L313.992 103.3L313.861 103.308L313.732 103.314L313.603 103.316H313.471L313.343 103.315L313.213 103.311L313.087 103.306L312.957 103.296L312.831 103.287L312.703 103.274L312.577 103.258L312.451 103.24L312.324 103.22L312.2 103.199L312.076 103.175L311.951 103.15L311.827 103.12L311.705 103.091L311.581 103.058L311.463 103.023L311.343 102.986L311.221 102.946L311.103 102.906L310.985 102.863L310.867 102.818L310.751 102.77L310.636 102.72L310.523 102.67L310.409 102.616L310.299 102.56L310.187 102.504L310.076 102.446L309.967 102.384L309.859 102.322L309.751 102.258L309.645 102.192L309.541 102.124L309.439 102.055L309.336 101.983L309.235 101.91L309.135 101.835L309.035 101.76L308.939 101.683L308.843 101.603L308.748 101.522L308.653 101.44L308.56 101.355L308.469 101.271L308.377 101.183L308.289 101.095L308.201 101.006L308.116 100.915L308.029 100.823L307.945 100.728L307.863 100.634L307.783 100.538L307.701 100.44L307.624 100.342L307.544 100.242L307.469 100.139L307.395 100.038L307.319 99.9351L307.247 99.8284L307.175 99.7231L307.104 99.6164L307.036 99.5084L306.969 99.3977L306.903 99.2871L306.837 99.1764L306.773 99.0644L306.711 98.9497L306.649 98.8351L306.588 98.7191L306.529 98.6004L306.471 98.4844L306.415 98.3644L306.359 98.2444L306.307 98.1244L306.253 98.0031L306.201 97.8791L306.152 97.7564L306.103 97.6311L306.056 97.5057L306.009 97.3777L305.965 97.2497L305.92 97.1231L305.877 96.9924L305.836 96.8617L305.796 96.7324L305.756 96.6004L305.719 96.4671L305.683 96.3324L305.647 96.1991L305.568 95.8831L305.492 95.5657L305.419 95.2484L305.349 94.9271L305.281 94.6031L305.216 94.2791L305.155 93.9537L305.097 93.6257L305.043 93.2951L304.992 92.9644L304.943 92.6324L304.897 92.3004L304.856 91.9644L304.817 91.6284L304.783 91.2924L304.751 90.9537L304.723 90.6151L304.697 90.2737L304.677 89.9337L304.66 89.5924L304.645 89.2497L304.636 88.9071L304.629 88.5657L304.627 88.2217L304.628 87.8777L304.633 87.5337L304.641 87.1884L304.655 86.8457L304.672 86.5004L304.692 86.1564L304.719 85.8124L304.748 85.4671L304.781 85.1231L304.82 84.7817L304.861 84.4364L304.909 84.0951L304.959 83.7524L305.015 83.4111L305.076 83.0737L305.107 82.9004L305.139 82.7311L305.173 82.5604L305.209 82.3924L305.245 82.2231L305.284 82.0537L305.323 81.8844L305.363 81.7164L305.405 81.5497L305.447 81.3804L305.491 81.2137L305.535 81.0471L305.581 80.8804L305.629 80.7124L305.679 80.5471L305.728 80.3817L305.779 80.2151L305.831 80.0511L305.885 79.8857L305.94 79.7231L305.997 79.5577L306.055 79.3951L306.113 79.2337L306.173 79.0697L306.236 78.9084L306.299 78.7471L306.363 78.5857L306.428 78.4257L306.496 78.2671L306.565 78.1057L306.635 77.9471L306.705 77.7897L306.779 77.6311L306.853 77.4737L306.927 77.3177L307.004 77.1617L307.083 77.0057L307.161 76.8511L307.244 76.6977L307.327 76.5444L307.411 76.3911L307.496 76.2391L307.583 76.0897L307.671 75.9377L307.76 75.7884L307.853 75.6391L307.945 75.4911L308.04 75.3444L308.136 75.1964L308.237 75.0444L308.324 74.9204L308.417 74.7897L308.516 74.6591L308.617 74.5284L308.724 74.3991L308.833 74.2671L308.948 74.1351L309.067 74.0017L309.188 73.8684L309.313 73.7337L309.443 73.6004L309.577 73.4644L309.713 73.3297L309.856 73.1937L310 73.0591L310.147 72.9244L310.3 72.7884L310.455 72.6551L310.612 72.5217L310.773 72.3884L310.937 72.2577L311.105 72.1271L311.276 71.9977L311.451 71.8724L311.627 71.7457L311.807 71.6231L311.989 71.5017L312.176 71.3844L312.364 71.2684L312.555 71.1564L312.749 71.0484L312.948 70.9417L313.148 70.8404L313.348 70.7457L313.455 70.6964L313.56 70.6497L313.664 70.6057L313.769 70.5631L313.876 70.5191L313.983 70.4791L314.091 70.4391L314.199 70.4004L314.309 70.3644L314.421 70.3284L314.533 70.2964L314.644 70.2644L314.759 70.2351L314.873 70.2057L314.991 70.1804L315.107 70.1551L315.225 70.1337L315.343 70.1137L315.464 70.0964L315.584 70.0804L315.707 70.0671L315.829 70.0564L315.955 70.0497L316.08 70.0444L316.204 70.0431L316.331 70.0444Z" fill="white"/>
<path fill-rule="evenodd" clip-rule="evenodd" d="M334.552 72.7969L334.707 72.8009L334.86 72.8089L335.016 72.8182L335.171 72.8316L335.325 72.8489L335.48 72.8676L335.635 72.8889L335.789 72.9142L335.944 72.9436L336.099 72.9742L336.252 73.0089L336.407 73.0462L336.56 73.0876L336.712 73.1316L336.844 73.1742L336.983 73.2222L337.117 73.2809L337.247 73.3502L337.372 73.4276L337.492 73.5156L337.604 73.6089L337.709 73.7116L337.808 73.8222L337.9 73.9369L337.98 74.0596L338.053 74.1876L338.117 74.3209L338.171 74.4569L338.215 74.5982L338.247 74.7422L338.272 74.8876L338.285 75.0329L338.287 75.1809L338.279 75.3276L338.26 75.4742L338.232 75.6196L338.191 75.7609L338.143 75.8996L338.084 76.0342L338.016 76.1649L337.937 76.2902L337.852 76.4089L337.757 76.5209L337.655 76.6276L337.545 76.7262L337.428 76.8169L337.305 76.8982L337.177 76.9702L337.045 77.0342L336.908 77.0876L336.768 77.1316L336.625 77.1649L336.477 77.1889L336.332 77.2022L336.185 77.2036L336.037 77.1956L335.891 77.1782L335.747 77.1489L335.605 77.1089L335.516 77.0809L335.447 77.0596L335.376 77.0422L335.304 77.0236L335.233 77.0089L335.16 76.9929L335.087 76.9796L335.013 76.9662L334.937 76.9569L334.86 76.9462L334.785 76.9396L334.707 76.9329L334.629 76.9289L334.551 76.9236L334.469 76.9222L334.389 76.9209H334.308L334.227 76.9236L334.143 76.9276L334.06 76.9329L333.975 76.9382L333.893 76.9449L333.808 76.9556L333.723 76.9649L333.636 76.9782L333.551 76.9929L333.464 77.0076L333.377 77.0236L333.289 77.0422L333.2 77.0609L333.113 77.0836L333.025 77.1049L332.937 77.1289L332.849 77.1542L332.759 77.1809L332.672 77.2089L332.583 77.2396L332.495 77.2689L332.407 77.3022L332.317 77.3356L332.229 77.3716L332.14 77.4076L332.053 77.4449L331.967 77.4849L331.879 77.5236L331.792 77.5662L331.704 77.6089L331.619 77.6529L331.532 77.6996L331.447 77.7449L331.361 77.7942L331.277 77.8422L331.192 77.8929L331.109 77.9436L331.027 77.9956L330.945 78.0502L330.864 78.1036L330.783 78.1596L330.704 78.2156L330.625 78.2742L330.547 78.3329L330.469 78.3929L330.393 78.4542L330.319 78.5156L330.245 78.5769L330.172 78.6396L330.097 78.7049L330.028 78.7689L329.959 78.8342L329.889 78.9009L329.82 78.9676L329.753 79.0356L329.689 79.1036L329.625 79.1742L329.563 79.2422L329.501 79.3129L329.441 79.3849L329.381 79.4556L329.323 79.5262L329.267 79.5996L329.213 79.6729L329.16 79.7462L329.108 79.8196L329.057 79.8916L329.008 79.9662L328.961 80.0409L328.915 80.1156L328.871 80.1902L328.828 80.2662L328.787 80.3409L328.747 80.4156L328.707 80.4916L328.672 80.5662L328.636 80.6422L328.603 80.7182L328.572 80.7942L328.54 80.8702L328.512 80.9449L328.484 81.0222L328.46 81.0969L328.435 81.1729L328.413 81.2489L328.392 81.3236L328.372 81.3996L328.356 81.4742L328.34 81.5489L328.325 81.6236L328.312 81.6996L328.301 81.7742L328.291 81.8502L328.284 81.9249L328.276 81.9996L328.272 82.0742L328.269 82.1502L328.268 82.2236V82.2982L328.269 82.3742L328.272 82.4489L328.277 82.5249L328.284 82.6009L328.292 82.6769L328.303 82.7516L328.313 82.8289L328.328 82.9062L328.344 82.9822L328.36 83.0596L328.379 83.1369L328.401 83.2129L328.423 83.2889L328.447 83.3622L328.473 83.4369L328.503 83.5129L328.533 83.5902L328.569 83.6689L328.605 83.7476L328.644 83.8276L328.687 83.9102L328.731 83.9929L328.777 84.0756L328.827 84.1609L328.877 84.2449L328.932 84.3316L328.988 84.4169L329.047 84.5049L329.107 84.5916L329.168 84.6796L329.233 84.7689L329.3 84.8569L329.367 84.9462L329.436 85.0356L329.508 85.1262L329.579 85.2142L329.731 85.3969L329.885 85.5782L330.043 85.7622L330.201 85.9422L330.308 86.0649L330.417 86.1836L330.528 86.3022L330.64 86.4209L330.755 86.5396L330.872 86.6582L330.991 86.7782L331.108 86.8956L331.356 87.1369L331.607 87.3796L331.861 87.6222L332.123 87.8676L332.385 88.1156L332.677 88.3902L332.991 88.6916L333.321 89.0129L333.495 89.1849L333.671 89.3582L333.852 89.5382L334.031 89.7222L334.216 89.9116L334.403 90.1062L334.588 90.3049L334.776 90.5062L334.967 90.7129L335.155 90.9236L335.343 91.1369L335.529 91.3542L335.716 91.5742L335.903 91.7996L336.084 92.0276L336.267 92.2596L336.444 92.4942L336.616 92.7276L336.704 92.8529L336.791 92.9729L336.873 93.0956L336.959 93.2182L337.04 93.3409L337.12 93.4636L337.2 93.5902L337.279 93.7169L337.357 93.8422L337.432 93.9716L337.507 94.1009L337.579 94.2289L337.649 94.3596L337.72 94.4916L337.788 94.6249L337.856 94.7582L337.917 94.8929L337.98 95.0289L338.041 95.1662L338.1 95.3036L338.156 95.4422L338.208 95.5822L338.26 95.7262L338.308 95.8689L338.357 96.0142L338.4 96.1596L338.439 96.3076L338.477 96.4569L338.513 96.6076L338.543 96.7596L338.571 96.9129L338.593 97.0689L338.613 97.2262L338.629 97.3849L338.639 97.5449L338.647 97.7062L338.648 97.8689L338.644 98.0329L338.636 98.1982L338.623 98.3649L338.603 98.5302L338.577 98.6982L338.545 98.8662L338.507 99.0342L338.463 99.2009L338.413 99.3676L338.356 99.5342L338.292 99.6969L338.221 99.8596L338.144 100.021L338.063 100.178L337.972 100.334L337.877 100.486L337.776 100.637L337.671 100.782L337.559 100.925L337.44 101.064L337.317 101.198L337.191 101.33L337.057 101.456L336.92 101.58L336.78 101.698L336.635 101.814L336.485 101.925L336.332 102.032L336.175 102.136L336.015 102.237L335.849 102.333L335.681 102.426L335.507 102.516L335.331 102.602L335.152 102.686L334.968 102.768L334.781 102.844L334.588 102.918L334.393 102.99L334.175 103.065L333.956 103.134L333.736 103.201L333.516 103.261L333.296 103.317L333.073 103.369L332.853 103.416L332.633 103.458L332.413 103.497L332.192 103.532L331.971 103.562L331.752 103.589L331.533 103.612L331.316 103.632L331.096 103.648L330.895 103.658L330.748 103.664L330.601 103.656L330.455 103.637L330.309 103.61L330.168 103.572L330.029 103.522L329.893 103.464L329.763 103.397L329.636 103.321L329.519 103.236L329.404 103.141L329.297 103.04L329.199 102.93L329.108 102.814L329.024 102.692L328.952 102.565L328.888 102.432L328.833 102.296L328.789 102.156L328.755 102.012L328.731 101.868L328.716 101.72L328.713 101.573L328.72 101.426L328.737 101.28L328.765 101.136L328.804 100.993L328.852 100.854L328.911 100.718L328.977 100.588L329.056 100.462L329.141 100.342L329.235 100.229L329.336 100.122L329.445 100.024L329.561 99.9316L329.685 99.8502L329.811 99.7769L329.944 99.7129L330.08 99.6582L330.221 99.6142L330.364 99.5796L330.509 99.5556L330.655 99.5409L330.825 99.5302L330.98 99.5196L331.135 99.5062L331.285 99.4889L331.437 99.4716L331.588 99.4502L331.737 99.4276L331.884 99.4022L332.029 99.3729L332.176 99.3422L332.319 99.3089L332.461 99.2729L332.6 99.2342L332.739 99.1929L332.876 99.1502L333.012 99.1022L333.131 99.0582L333.245 99.0142L333.355 98.9689L333.457 98.9249L333.555 98.8796L333.644 98.8342L333.729 98.7902L333.808 98.7476L333.881 98.7049L333.949 98.6622L334.012 98.6209L334.069 98.5809L334.121 98.5422L334.168 98.5049L334.209 98.4689L334.247 98.4356L334.283 98.4022L334.312 98.3702L334.34 98.3422L334.363 98.3129L334.384 98.2876L334.401 98.2636L334.416 98.2396L334.431 98.2169L334.444 98.1956L334.455 98.1742L334.465 98.1542L334.472 98.1356L334.48 98.1156L334.487 98.0942L334.495 98.0729L334.5 98.0502L334.504 98.0276L334.511 98.0022L334.515 97.9769L334.517 97.9476L334.521 97.9182L334.523 97.8849V97.8489V97.8116L334.521 97.7716L334.517 97.7276L334.513 97.6836L334.508 97.6342L334.499 97.5836L334.489 97.5316L334.479 97.4756L334.467 97.4182L334.451 97.3556L334.432 97.2956L334.413 97.2289L334.393 97.1609L334.368 97.0929L334.343 97.0222L334.315 96.9489L334.285 96.8756L334.252 96.7982L334.219 96.7222L334.183 96.6436L334.143 96.5609L334.103 96.4809L334.061 96.3982L334.016 96.3142L333.969 96.2289L333.921 96.1409L333.871 96.0556L333.82 95.9662L333.765 95.8796L333.709 95.7889L333.652 95.6996L333.593 95.6089L333.533 95.5169L333.469 95.4276L333.408 95.3342L333.343 95.2422L333.279 95.1529L333.139 94.9636L332.997 94.7769L332.852 94.5902L332.7 94.4049L332.548 94.2182L332.392 94.0316L332.233 93.8476L332.071 93.6636L331.909 93.4836L331.744 93.3022L331.58 93.1249L331.413 92.9502L331.248 92.7782L331.083 92.6076L330.919 92.4409L330.757 92.2782L330.595 92.1182L330.439 91.9636L330.127 91.6622L329.832 91.3796L329.552 91.1156L329.292 90.8689L329.024 90.6169L328.755 90.3596L328.48 90.0969L328.211 89.8302L328.071 89.6916L327.932 89.5542L327.795 89.4116L327.657 89.2702L327.521 89.1262L327.384 88.9782L327.247 88.8289L327.115 88.6809L326.932 88.4742L326.748 88.2622L326.564 88.0422L326.38 87.8182L326.284 87.6982L326.189 87.5796L326.096 87.4596L326.003 87.3369L325.911 87.2116L325.816 87.0836L325.725 86.9556L325.635 86.8222L325.544 86.6889L325.456 86.5516L325.368 86.4129L325.283 86.2702L325.196 86.1262L325.115 85.9782L325.035 85.8276L324.956 85.6742L324.88 85.5196L324.805 85.3596L324.736 85.1982L324.668 85.0329L324.603 84.8649L324.541 84.6929L324.485 84.5196L324.433 84.3436L324.387 84.1756L324.345 84.0089L324.308 83.8422L324.273 83.6756L324.245 83.5089L324.22 83.3409L324.196 83.1742L324.179 83.0076L324.164 82.8409L324.152 82.6756L324.144 82.5089L324.141 82.3449V82.1796L324.144 82.0169L324.152 81.8529L324.163 81.6889L324.177 81.5289L324.193 81.3676L324.213 81.2076L324.239 81.0476L324.265 80.8902L324.296 80.7329L324.328 80.5769L324.364 80.4222L324.403 80.2689L324.445 80.1156L324.491 79.9636L324.537 79.8129L324.588 79.6636L324.64 79.5169L324.696 79.3702L324.755 79.2249L324.815 79.0809L324.879 78.9396L324.944 78.7969L325.012 78.6582L325.081 78.5196L325.155 78.3822L325.229 78.2476L325.304 78.1129L325.384 77.9809L325.467 77.8502L325.548 77.7182L325.633 77.5916L325.719 77.4636L325.808 77.3382L325.9 77.2142L325.991 77.0916L326.085 76.9716L326.183 76.8516L326.28 76.7342L326.377 76.6169L326.477 76.5009L326.581 76.3876L326.685 76.2769L326.791 76.1662L326.899 76.0569L327.007 75.9502L327.116 75.8436L327.228 75.7396L327.341 75.6356L327.456 75.5356L327.571 75.4356L327.688 75.3369L327.804 75.2409L327.923 75.1462L328.045 75.0529L328.168 74.9622L328.289 74.8716L328.413 74.7822L328.54 74.6969L328.665 74.6116L328.793 74.5289L328.92 74.4476L329.051 74.3676L329.181 74.2889L329.313 74.2129L329.445 74.1382L329.58 74.0649L329.715 73.9929L329.849 73.9249L329.985 73.8569L330.123 73.7916L330.26 73.7262L330.399 73.6649L330.539 73.6049L330.68 73.5476L330.821 73.4902L330.964 73.4369L331.105 73.3849L331.249 73.3342L331.395 73.2862L331.539 73.2396L331.684 73.1969L331.831 73.1542L331.977 73.1156L332.125 73.0756L332.272 73.0422L332.421 73.0089L332.571 72.9782L332.721 72.9489L332.871 72.9236L333.023 72.8996L333.173 72.8782L333.325 72.8582L333.477 72.8422L333.631 72.8276L333.783 72.8156L333.936 72.8076L334.088 72.7996L334.244 72.7969L334.397 72.7956L334.552 72.7969Z" fill="white"/>
<path fill-rule="evenodd" clip-rule="evenodd" d="M350.434 74.6797L350.579 74.6837L350.726 74.689L350.871 74.6983L351.018 74.709L351.164 74.7223L351.31 74.7383L351.456 74.757L351.602 74.7783L351.748 74.801L351.895 74.8263L352.039 74.8557L352.184 74.8877L352.33 74.9197L352.474 74.9557L352.619 74.9957L352.764 75.0383L352.907 75.081L353.051 75.1277L353.191 75.1783L353.336 75.2317L353.475 75.285L353.616 75.3437L353.756 75.4037L353.896 75.469L354.034 75.5343L354.172 75.6037L354.307 75.677L354.444 75.7503L354.56 75.8197L354.683 75.8957L354.799 75.981L354.907 76.073L355.012 76.173L355.108 76.281L355.196 76.3957L355.276 76.5143L355.348 76.6383L355.411 76.769L355.463 76.9023L355.508 77.0397L355.543 77.1797L355.567 77.321L355.583 77.4637L355.587 77.609L355.58 77.7517L355.566 77.8957L355.542 78.037L355.506 78.177L355.462 78.313L355.406 78.4463L355.344 78.5757L355.271 78.701L355.19 78.8183L355.102 78.9317L355.004 79.0397L354.902 79.1397L354.79 79.2317L354.674 79.317L354.551 79.3917L354.424 79.4597L354.292 79.517L354.156 79.5677L354.018 79.605L353.876 79.6357L353.735 79.6543L353.59 79.6637H353.447L353.303 79.6543L353.16 79.633L353.019 79.6023L352.882 79.5623L352.746 79.513L352.615 79.4543L352.488 79.3863L352.407 79.3397L352.343 79.3037L352.278 79.269L352.211 79.2343L352.143 79.2037L352.076 79.1717L352.008 79.1423L351.939 79.1143L351.87 79.0877L351.799 79.061L351.728 79.037L351.656 79.013L351.584 78.9903L351.511 78.969L351.438 78.949L351.364 78.9303L351.288 78.913L351.214 78.8983L351.138 78.8823L351.063 78.869L350.984 78.8557L350.907 78.8463L350.83 78.837L350.751 78.8277L350.672 78.8197L350.594 78.8157L350.515 78.8103L350.436 78.8063L350.355 78.805L350.276 78.8037H350.195L350.115 78.805L350.035 78.809L349.955 78.813L349.874 78.8183L349.794 78.825L349.712 78.833L349.632 78.8423L349.551 78.8517L349.47 78.865L349.391 78.877L349.31 78.8917L349.231 78.9063L349.151 78.9237L349.072 78.941L348.992 78.961L348.915 78.981L348.836 79.0023L348.759 79.0237L348.682 79.0477L348.604 79.073L348.528 79.0983L348.452 79.125L348.378 79.1543L348.303 79.1823L348.23 79.213L348.155 79.245L348.083 79.2757L348.012 79.309L347.943 79.3437L347.872 79.3783L347.803 79.4143L347.735 79.453L347.667 79.489L347.602 79.5277L347.536 79.569L347.472 79.609L347.408 79.6503L347.348 79.693L347.287 79.7343L347.228 79.7783L347.17 79.8237L347.11 79.8677L347.054 79.913L347 79.9597L346.946 80.0063L346.892 80.0543L346.842 80.1023L346.791 80.1517L346.742 80.1997L346.694 80.2503L346.648 80.2997L346.603 80.3517L346.56 80.4023L346.516 80.4557L346.476 80.5063L346.436 80.5597L346.399 80.613L346.36 80.665L346.326 80.7183L346.291 80.773L346.258 80.8277L346.227 80.8837L346.196 80.937L346.166 80.993L346.139 81.0503L346.112 81.1063L346.086 81.1637L346.063 81.221L346.04 81.2797L346.018 81.337L345.999 81.3983L345.979 81.457L345.962 81.5157L345.946 81.5783L345.93 81.6397L345.916 81.701L345.904 81.7637L345.894 81.8277L345.884 81.8917L345.875 81.957L345.868 82.0237L345.863 82.0903L345.859 82.1597L345.856 82.229V82.2983V82.3703L345.859 82.4437L345.863 82.5157L345.87 82.593L345.876 82.6677L345.887 82.7463L345.899 82.825L345.911 82.905L345.927 82.989L345.944 83.0717L345.963 83.1557L345.986 83.245L345.998 83.2877L346.011 83.3303L346.022 83.373L346.036 83.4157L346.051 83.4597L346.068 83.5037L346.084 83.5463L346.102 83.5903L346.119 83.633L346.136 83.6783L346.158 83.7223L346.175 83.7597L346.222 83.8557L346.268 83.945L346.318 84.0357L346.371 84.1263L346.428 84.2197L346.488 84.3117L346.551 84.4037L346.619 84.4983L346.687 84.593L346.76 84.689L346.836 84.785L346.915 84.881L346.996 84.977L347.08 85.0743L347.167 85.1717L347.256 85.269L347.348 85.369L347.443 85.465L347.538 85.565L347.635 85.665L347.735 85.7637L347.835 85.861L348.044 86.0637L348.251 86.2623L348.335 86.3383L348.416 86.4143L348.502 86.4877L348.588 86.565L348.678 86.6423L348.768 86.717L348.862 86.7943L348.954 86.869L349.154 87.029L349.359 87.1863L349.57 87.3463L349.786 87.5077L350.01 87.6703L350.236 87.837L350.704 88.1757L350.943 88.349L351.184 88.5263L351.43 88.7077L351.678 88.893L351.923 89.0823L352.168 89.2757L352.295 89.377L352.416 89.4797L352.54 89.581L352.664 89.685L352.787 89.7917L352.91 89.8997L353.031 90.009L353.154 90.1197L353.274 90.2343L353.395 90.349L353.514 90.4663L353.63 90.5863L353.747 90.7077L353.863 90.833L353.978 90.9583L354.092 91.089L354.204 91.221L354.315 91.3557L354.424 91.493L354.53 91.633L354.634 91.777L354.739 91.9237L354.838 92.0717L354.935 92.2237L355.031 92.3783L355.123 92.5383L355.212 92.6983L355.298 92.861L355.371 93.009L355.442 93.1543L355.507 93.3023L355.571 93.4503L355.63 93.5983L355.687 93.7463L355.74 93.8957L355.791 94.0437L355.838 94.1943L355.88 94.345L355.922 94.4957L355.96 94.6463L355.992 94.7957L356.023 94.9477L356.051 95.097L356.075 95.2477L356.095 95.3983L356.115 95.549L356.128 95.697L356.14 95.8477L356.148 95.997L356.155 96.1463L356.156 96.2943L356.155 96.4423L356.15 96.5903L356.144 96.737L356.134 96.8837L356.12 97.0277L356.104 97.173L356.086 97.3183L356.064 97.461L356.04 97.6023L356.014 97.745L355.983 97.885L355.95 98.025L355.915 98.1623L355.876 98.2997L355.836 98.437L355.794 98.5717L355.747 98.7063L355.7 98.8397L355.648 98.9703L355.595 99.101L355.542 99.2303L355.484 99.3583L355.423 99.485L355.362 99.609L355.299 99.7343L355.234 99.8557L355.164 99.9783L355.094 100.096L355.022 100.216L354.948 100.333L354.872 100.448L354.794 100.562L354.714 100.676L354.631 100.786L354.548 100.894L354.462 101.004L354.376 101.109L354.288 101.214L354.196 101.318L354.104 101.42L354.012 101.52L353.915 101.62L353.818 101.717L353.72 101.813L353.62 101.905L353.518 101.997L353.415 102.089L353.311 102.178L353.206 102.265L353.099 102.35L352.99 102.436L352.88 102.517L352.77 102.597L352.656 102.678L352.543 102.756L352.427 102.829L352.311 102.904L352.194 102.976L352.074 103.046L351.956 103.114L351.835 103.18L351.712 103.245L351.588 103.308L351.464 103.369L351.339 103.429L351.212 103.485L351.084 103.541L350.956 103.593L350.827 103.645L350.696 103.693L350.566 103.741L350.432 103.786L350.298 103.829L350.166 103.872L350.028 103.909L349.895 103.948L349.756 103.981L349.62 104.014L349.482 104.044L349.343 104.073L349.203 104.098L349.063 104.122L348.922 104.144L348.78 104.164L348.636 104.18L348.494 104.193L348.351 104.206L348.207 104.214L348.063 104.222L347.918 104.226L347.772 104.229H347.626L347.479 104.226L347.334 104.221L347.187 104.212L347.039 104.202L346.892 104.189L346.744 104.172L346.598 104.153L346.45 104.133L346.302 104.109L346.155 104.081L346.006 104.052L345.858 104.02L345.73 103.988L345.59 103.952L345.455 103.902L345.322 103.845L345.195 103.78L345.072 103.705L344.955 103.622L344.843 103.53L344.739 103.43L344.64 103.325L344.551 103.212L344.468 103.094L344.396 102.97L344.331 102.841L344.275 102.709L344.23 102.572L344.194 102.433L344.167 102.29L344.151 102.148L344.143 102.005L344.147 101.861L344.16 101.717L344.184 101.574L344.218 101.434L344.26 101.298L344.312 101.164L344.375 101.033L344.446 100.909L344.524 100.789L344.612 100.674L344.708 100.565L344.81 100.465L344.918 100.37L345.034 100.285L345.156 100.208L345.283 100.138L345.412 100.078L345.547 100.028L345.686 99.9863L345.827 99.9557L345.968 99.933L346.112 99.9223L346.256 99.921L346.4 99.929L346.543 99.9477L346.683 99.977L346.776 99.9983L346.85 100.013L346.927 100.029L347.002 100.042L347.075 100.056L347.15 100.065L347.224 100.074L347.299 100.084L347.374 100.089L347.448 100.096L347.522 100.1L347.596 100.102L347.672 100.104H347.746L347.82 100.102L347.895 100.1L347.968 100.096L348.043 100.093L348.118 100.085L348.19 100.078L348.264 100.069L348.338 100.06L348.41 100.048L348.483 100.037L348.558 100.022L348.63 100.008L348.702 99.9917L348.775 99.9743L348.847 99.957L348.918 99.937L348.988 99.9157L349.06 99.8943L349.13 99.8717L349.199 99.8463L349.27 99.8223L349.339 99.797L349.407 99.7703L349.476 99.741L349.546 99.7103L349.612 99.681L349.679 99.6503L349.746 99.617L349.81 99.5837L349.876 99.549L349.94 99.513L350.006 99.4783L350.068 99.441L350.128 99.4023L350.192 99.3637L350.252 99.3223L350.312 99.281L350.372 99.2397L350.432 99.197L350.49 99.1543L350.547 99.109L350.602 99.065L350.658 99.0197L350.712 98.9717L350.766 98.925L350.819 98.877L350.87 98.829L350.922 98.7797L350.97 98.7303L351.019 98.6797L351.067 98.6277L351.114 98.577L351.159 98.525L351.204 98.4717L351.247 98.4197L351.291 98.3663L351.33 98.3117L351.37 98.257L351.408 98.2037L351.448 98.1477L351.484 98.0917L351.519 98.0357L351.554 97.9797L351.587 97.9223L351.62 97.8663L351.65 97.809L351.68 97.7517L351.708 97.693L351.736 97.6357L351.76 97.577L351.787 97.5183L351.81 97.4597L351.832 97.401L351.854 97.3423L351.874 97.2837L351.894 97.2237L351.91 97.1637L351.927 97.1037L351.943 97.0437L351.956 96.9837L351.968 96.9237L351.982 96.8637L351.992 96.8037L352 96.741L352.01 96.681L352.015 96.6197L352.02 96.5583L352.024 96.497L352.027 96.433L352.03 96.373V96.309L352.028 96.2463L352.027 96.1823L352.023 96.1197L352.018 96.0557L352.012 95.9903L352.004 95.9263L351.996 95.861L351.984 95.7943L351.972 95.729L351.959 95.661L351.944 95.5943L351.927 95.5277L351.908 95.4583L351.888 95.389L351.867 95.3197L351.843 95.249L351.816 95.1783L351.79 95.1063L351.76 95.0343L351.73 94.961L351.696 94.8877L351.663 94.8143L351.626 94.741L351.582 94.657L351.538 94.5783L351.491 94.4983L351.442 94.4183L351.392 94.3397L351.338 94.2597L351.283 94.1797L351.224 94.101L351.164 94.021L351.1 93.9423L351.035 93.8623L350.967 93.7837L350.899 93.7037L350.826 93.6237L350.751 93.5437L350.676 93.4637L350.596 93.3837L350.515 93.3037L350.432 93.2237L350.347 93.1437L350.258 93.0637L350.17 92.9837L350.078 92.9023L349.984 92.8223L349.89 92.7423L349.794 92.6623L349.694 92.581L349.596 92.5023L349.388 92.337L349.176 92.1757L348.96 92.0117L348.738 91.8463L348.511 91.681L348.282 91.5143L347.814 91.1757L347.575 91.0023L347.335 90.825L347.094 90.6463L346.851 90.4637L346.61 90.277L346.372 90.0877L346.248 89.9877L346.128 89.889L346.011 89.789L345.89 89.685L345.771 89.5823L345.654 89.477L345.535 89.3703L345.42 89.2637L345.187 89.0397L344.954 88.813L344.831 88.6943L344.711 88.5743L344.59 88.4503L344.468 88.3263L344.347 88.197L344.226 88.0677L344.103 87.933L343.982 87.797L343.86 87.6583L343.74 87.517L343.623 87.3717L343.504 87.2223L343.387 87.069L343.272 86.9117L343.159 86.753L343.05 86.5903L342.94 86.4223L342.835 86.2503L342.731 86.0743L342.631 85.8943L342.536 85.7103L342.448 85.5277L342.4 85.4263L342.356 85.3277L342.314 85.2303L342.274 85.1303L342.235 85.0303L342.195 84.929L342.159 84.825L342.124 84.7223L342.088 84.6183L342.056 84.5103L342.026 84.4037L341.996 84.293L341.954 84.1277L341.914 83.9583L341.88 83.7903L341.85 83.6237L341.82 83.4557L341.795 83.289L341.776 83.1223L341.759 82.9557L341.747 82.7903L341.738 82.6237L341.734 82.4583L341.73 82.2957L341.734 82.1317L341.739 81.9703L341.747 81.809L341.759 81.649L341.778 81.4877L341.796 81.3303L341.82 81.173L341.848 81.0157L341.878 80.8597L341.911 80.7077L341.95 80.5557L341.988 80.405L342.032 80.2543L342.079 80.1063L342.128 79.961L342.183 79.817L342.239 79.673L342.296 79.533L342.358 79.393L342.423 79.2557L342.491 79.1197L342.56 78.9863L342.634 78.853L342.708 78.725L342.787 78.5957L342.867 78.469L342.95 78.3463L343.032 78.225L343.122 78.1037L343.21 77.9863L343.3 77.8717L343.395 77.757L343.488 77.645L343.586 77.5357L343.684 77.429L343.787 77.3223L343.89 77.2197L343.994 77.117L344.099 77.0183L344.208 76.921L344.316 76.825L344.427 76.7317L344.539 76.6423L344.654 76.553L344.768 76.465L344.884 76.381L345.003 76.2983L345.122 76.2183L345.242 76.1397L345.363 76.0623L345.486 75.9863L345.611 75.9143L345.735 75.8437L345.86 75.7757L345.987 75.709L346.116 75.645L346.244 75.5823L346.375 75.521L346.506 75.4623L346.636 75.4063L346.77 75.353L346.904 75.301L347.036 75.2503L347.174 75.2023L347.307 75.1557L347.446 75.1117L347.58 75.0703L347.72 75.0303L347.858 74.993L347.998 74.957L348.136 74.9237L348.278 74.8917L348.419 74.8623L348.56 74.8357L348.702 74.8103L348.846 74.7877L348.987 74.765L349.13 74.7463L349.275 74.7317L349.418 74.717L349.563 74.7037L349.707 74.6957L349.851 74.6863L349.996 74.6823L350.142 74.6783H350.287L350.434 74.6797Z" fill="white"/>
<path fill-rule="evenodd" clip-rule="evenodd" d="M236.699 263.141C236.699 263.141 220.241 268.21 217.991 289.926C211.447 353.157 213.823 383.219 206.725 395.769C205.231 398.41 137.599 388.771 136.883 390.645C134.878 395.898 121.762 417.594 124.215 418.299C131.918 420.511 222.111 445.354 241.378 427.125C259.119 410.345 256.669 376.878 252.645 359.291C247.53 336.937 262.318 264.478 236.699 263.141Z" fill="#FF5F6D"/>
<path d="M362.762 430.611C345.604 373.624 294.826 249.921 294.826 249.921L267.114 246.244C263.628 243.561 228.758 270.888 228.758 270.888C228.758 270.888 225.804 287.476 222.984 304C220.404 319.121 205.698 334.817 207.083 342.86C210.299 361.511 233.255 366.005 233.255 366.005C237.323 398.836 240.482 418.463 244.907 435.279" fill="#FF717D"/>
<path fill-rule="evenodd" clip-rule="evenodd" d="M291.634 250.202C291.634 250.202 283.091 269.134 287.309 296.682C289.106 308.411 302.887 356.019 306.142 367.482C313.198 392.297 301.542 392.798 276.894 392.955C273.41 392.979 247.883 390.319 247.369 392.482C245.93 398.55 240.755 427.215 250.234 429.314C261.817 431.878 322.226 439.325 339.699 416.783C355.789 396.03 349.526 359.238 343.463 340.237C335.757 316.083 317.753 248.573 291.634 250.202Z" fill="#FF5F6D"/>
<path fill-rule="evenodd" clip-rule="evenodd" d="M247.844 391.481C251.349 391.437 254.734 399.851 255.405 410.281C256.077 420.71 253.78 429.201 250.274 429.245C246.769 429.291 243.385 420.874 242.713 410.446C242.042 400.017 244.34 391.525 247.844 391.481Z" fill="#FF8D73"/>
<path fill-rule="evenodd" clip-rule="evenodd" d="M254.253 407.479C254.253 407.479 240.301 404.206 229.199 397.614C225.794 395.59 226.289 399.703 226.609 400.161C228.27 402.553 235.709 407.747 235.007 408.075C233.539 408.762 217.03 404.394 211.511 402.197C210.955 401.977 205.061 399.377 204.698 400.234C203.847 402.23 206.823 403.913 208.215 404.674C212.938 407.253 228.493 412.798 227.674 412.625C226.202 412.309 213.478 410.162 208.663 409.126C208.349 409.061 201.543 407.59 201.307 408.466C200.83 410.249 205.879 411.993 207.078 412.321C211.789 413.619 224.538 417.319 226.149 417.806C226.821 418.007 221.199 417.705 219.637 417.601C214.797 417.275 209.985 416.162 205.145 415.997C204.197 415.965 200.974 415.57 200.713 417.139C200.543 418.165 202.917 419.107 203.57 419.345C207.641 420.826 236.783 425.122 245.271 423.686C248.538 423.134 253.803 424.894 253.803 424.894C253.803 424.894 260.15 412.669 254.253 407.479" fill="#FFC0B1"/>
<path d="M216.143 126.858C216.143 126.858 195.072 122.858 185.036 136C175 149.143 177.285 166.858 161.857 173.143C146.428 179.428 141.219 209.396 156.109 218.414C171 227.428 152.961 244 152.961 244C152.961 244 139.504 257.143 156.109 273.715C156.109 273.715 168.215 281.268 185.036 286.063C185.036 286.063 172.943 274.268 176.543 259.42C176.543 259.42 177.837 284.126 200.704 286.063C223.572 288 238.496 272 238.496 272L305.329 255.73C305.329 255.73 344.244 245.592 344.291 218.61C344.336 191.627 318.127 194.858 313.135 175.428C308.143 156 306.913 136.904 285.243 130.738C263.572 124.572 237.285 101.715 216.143 126.858Z" fill="#FFB773"/>
<path d="M266.848 247.503L264.928 195.931C259.746 184.915 229.425 184.329 219.293 189.736C209.914 194.741 205.07 206.628 207.876 217.756L232.922 281.875C236.569 294.893 252.549 291.308 258.637 283.056C274.305 261.82 267.692 248.871 266.848 247.503Z" fill="#FFC0B1"/>
<path d="M193.529 221.417L188.814 200.767C188.814 200.767 179.665 196.535 176.97 206.49C174.278 216.449 184.847 224.358 193.529 221.417Z" fill="#FFC0B1"/>
<path d="M182.611 194.995C188.221 234.279 192.837 260.233 221.026 259.401C249.217 258.567 285.097 226.143 284.693 191.973C284.294 157.808 261.118 130.781 232.929 131.619C204.739 132.452 182.213 160.827 182.611 194.995Z" fill="#FFC8BC"/>
<path fill-rule="evenodd" clip-rule="evenodd" d="M245.77 348.453C245.77 348.453 266.823 365.874 294.34 357.366C294.34 357.366 265.683 381.478 245.77 348.453Z" fill="#FF5F6D"/>
<path fill-rule="evenodd" clip-rule="evenodd" d="M255.842 211.912C258.637 217.618 255.3 224.987 248.389 228.371C241.48 231.754 233.613 229.871 230.818 224.166C228.024 218.46 231.361 211.091 238.272 207.707C245.182 204.323 253.049 206.206 255.842 211.912Z" fill="#FF9EA7"/>
<path fill-rule="evenodd" clip-rule="evenodd" d="M201.594 228.52C198.417 234.021 190.44 235.364 183.777 231.516C177.113 227.668 174.286 220.09 177.464 214.588C180.64 209.085 188.617 207.744 195.281 211.59C201.944 215.437 204.77 223.017 201.594 228.52Z" fill="#FF9EA7"/>
<path d="M189.72 162.51C189.72 162.51 196.309 150.736 207.083 162.51C217.857 174.286 212.849 193.076 238.496 196.252C264.143 199.428 248.075 223.92 265.932 222.922L267.872 264.848C267.872 264.848 314.757 199.264 290.428 161.142C266.1 123.022 206.727 111.308 189.72 162.51Z" fill="#FFB773"/>
<path d="M258.954 224.35L267.686 203.23C267.686 203.23 279.54 198.73 281.442 208.81C283.334 218.893 269.213 227.162 258.954 224.35Z" fill="#FFC8BC"/>
<path fill-rule="evenodd" clip-rule="evenodd" d="M119.256 418.339H250.877V431.201H119.256V418.339Z" fill="#FF5F6D"/>
<path fill-rule="evenodd" clip-rule="evenodd" d="M181.025 428.665L165.734 286.063L8.88745 296.989L33.2354 428.669L181.025 428.665Z" fill="#FF5F6D"/>
<path fill-rule="evenodd" clip-rule="evenodd" d="M171.122 430.84L156.571 286.195L0.384399 297.392L24.0031 430.951L171.122 430.84Z" fill="url(#paint0_linear_105:72)"/>
<path fill-rule="evenodd" clip-rule="evenodd" d="M81.6491 343.837C89.2451 340.556 98.1291 345.809 101.494 355.569C104.86 365.331 101.429 375.903 93.8344 379.185C86.2384 382.467 77.3531 377.213 73.9877 367.453C70.6237 357.692 74.0531 347.119 81.6491 343.837Z" fill="#FF8D73"/>
<path fill-rule="evenodd" clip-rule="evenodd" d="M409.884 281.34C409.884 281.34 377.72 265.855 398.451 246.601C419.179 227.351 377.591 213.703 389.467 194.015C401.344 174.325 415.177 183.365 417.419 170.409C419.661 157.453 403.081 147.541 413.783 128.637C424.481 109.731 436.944 101.536 452.407 103.945C467.865 106.356 447.72 144.619 463.579 152.241C479.436 159.864 477.276 184.328 453.048 205.599C428.82 226.868 467.667 240.427 444.869 255.099C422.073 269.772 409.884 281.34 409.884 281.34Z" fill="url(#paint1_linear_105:72)"/>
<path fill-rule="evenodd" clip-rule="evenodd" d="M379.799 321.841C379.799 321.841 402.326 300.713 384.57 292.017C366.817 283.319 396.649 260.869 385.517 249.277C374.386 237.685 364.962 248.588 361.837 239.348C358.714 230.107 362.359 216.896 355.319 203.403C346.129 185.792 329.541 186.024 319.613 198.604C311.549 208.823 336.147 228.428 325.039 238.836C313.933 249.243 318.27 267.292 338.883 276.517C359.497 285.743 331.722 307.331 350.529 311.935C369.333 316.537 379.799 321.841 379.799 321.841Z" fill="url(#paint2_linear_105:72)"/>
<path fill-rule="evenodd" clip-rule="evenodd" d="M442.066 130.788L442.473 130.927L442.842 131.146L443.157 131.437L443.408 131.788L443.576 132.183L443.66 132.604L443.654 133.034L443.56 133.453L443.31 134.193L443.064 134.932L442.816 135.672L442.573 136.413L442.333 137.153L442.094 137.897L441.857 138.641L441.622 139.385L441.389 140.131L441.157 140.877L440.928 141.624L440.702 142.372L440.477 143.121L440.253 143.87L440.033 144.621L439.813 145.373L439.594 146.125L439.378 146.878L439.165 147.633L438.952 148.389L438.742 149.144L438.533 149.9L438.326 150.657L438.12 151.416L437.917 152.174L437.714 152.933L437.513 153.693L437.314 154.455L437.116 155.216L436.921 155.977L436.726 156.741L436.533 157.505L436.341 158.268L436.15 159.033L435.961 159.797L435.773 160.564L435.588 161.33L435.402 162.099L435.218 162.867L435.038 163.634L434.856 164.402L434.676 165.173L434.497 165.941L434.318 166.712L434.144 167.482L433.968 168.253L433.794 169.025L433.621 169.797L433.449 170.571L433.278 171.344L432.938 172.892L432.604 174.44L432.27 175.99L431.942 177.542L431.62 179.096L431.297 180.649L430.978 182.204L430.661 183.761L430.348 185.318L430.036 186.876L429.725 188.434L429.418 189.993L429.113 191.553L428.808 193.113L428.504 194.673L427.901 197.795L427.3 200.916L426.7 204.036L426.098 207.154L425.497 210.272L425.196 211.828L424.892 213.384L424.586 214.94L424.281 216.492L423.973 218.046L423.662 219.597L423.352 221.148L423.037 222.697L422.72 224.244L422.4 225.789L422.078 227.333L421.753 228.873L421.425 230.414L421.093 231.95L420.17 236.193L419.242 240.433L418.313 244.676L417.377 248.917L416.442 253.157L415.506 257.4L413.628 265.882L411.748 274.368L410.808 278.609L409.87 282.853L408.932 287.097L407.997 291.34L407.065 295.585L406.136 299.828L405.209 304.074L404.288 308.32L403.826 310.442L403.369 312.566L402.912 314.689L402.454 316.812L402.001 318.934L401.546 321.058L401.094 323.182L400.646 325.307L400.197 327.428L399.749 329.553L399.304 331.677L398.86 333.802L398.418 335.926L397.978 338.05L397.54 340.176L397.102 342.301L396.669 344.426L396.237 346.55L395.808 348.676L395.378 350.802L394.953 352.928L394.532 355.053L394.109 357.18L393.692 359.305L393.276 361.432L392.862 363.56L392.452 365.685L392.044 367.814L391.92 368.225L391.712 368.601L391.43 368.926L391.089 369.186L390.7 369.369L390.281 369.466L389.852 369.476L389.428 369.393L389.033 369.228L388.681 368.982L388.386 368.668L388.164 368.3L388.024 367.894L387.97 367.468L388.006 367.038L388.414 364.909L388.826 362.777L389.241 360.646L389.657 358.514L390.076 356.384L390.498 354.253L390.922 352.122L391.348 349.992L391.777 347.864L392.206 345.734L392.642 343.604L393.076 341.476L393.512 339.346L393.952 337.218L394.393 335.092L394.836 332.962L395.28 330.834L395.725 328.708L396.173 326.581L396.624 324.454L397.074 322.328L397.526 320.201L397.981 318.076L398.436 315.949L398.892 313.824L399.349 311.7L399.81 309.574L400.269 307.448L401.192 303.2L402.12 298.95L403.049 294.704L403.984 290.458L404.92 286.212L405.856 281.966L406.794 277.721L407.733 273.48L409.614 264.993L411.492 256.512L412.429 252.272L413.365 248.032L414.297 243.793L415.226 239.554L416.153 235.316L417.074 231.081L417.405 229.552L417.732 228.021L418.056 226.488L418.374 224.952L418.693 223.416L419.008 221.875L419.32 220.335L419.632 218.79L419.941 217.243L420.248 215.696L420.552 214.146L420.857 212.594L421.16 211.041L421.461 209.489L422.062 206.376L422.662 203.26L423.262 200.14L423.865 197.016L424.469 193.892L424.772 192.327L425.078 190.763L425.384 189.2L425.694 187.636L426.004 186.072L426.316 184.509L426.632 182.945L426.949 181.381L427.27 179.818L427.594 178.258L427.921 176.696L428.25 175.134L428.585 173.574L428.922 172.016L429.262 170.46L429.434 169.68L429.608 168.902L429.782 168.122L429.958 167.347L430.136 166.569L430.313 165.792L430.492 165.014L430.67 164.238L430.853 163.464L431.037 162.686L431.22 161.912L431.405 161.139L431.593 160.364L431.78 159.591L431.969 158.816L432.16 158.044L432.353 157.271L432.546 156.499L432.741 155.729L432.937 154.957L433.137 154.186L433.336 153.419L433.538 152.649L433.741 151.88L433.944 151.112L434.15 150.344L434.36 149.576L434.569 148.812L434.781 148.045L434.994 147.28L435.209 146.514L435.426 145.752L435.645 144.988L435.866 144.226L436.088 143.464L436.313 142.704L436.538 141.942L436.765 141.183L436.997 140.424L437.229 139.666L437.462 138.91L437.7 138.153L437.937 137.397L438.178 136.643L438.421 135.889L438.665 135.136L438.914 134.384L439.162 133.632L439.416 132.881L439.666 132.134L439.846 131.744L440.104 131.4L440.426 131.116L440.802 130.905L441.21 130.778L441.64 130.737L442.066 130.788Z" fill="#481D21"/>
<path fill-rule="evenodd" clip-rule="evenodd" d="M339.115 209.283L339.468 209.35L339.803 209.478L340.109 209.662L340.38 209.895L340.607 210.173L340.781 210.487L341.005 210.987L341.231 211.49L341.677 212.498L342.12 213.509L342.56 214.523L342.997 215.541L343.431 216.561L343.863 217.583L344.291 218.61L344.716 219.638L345.139 220.67L345.559 221.703L345.976 222.739L346.392 223.778L346.805 224.818L347.215 225.861L347.623 226.906L348.029 227.953L348.432 229.002L348.835 230.053L349.235 231.106L349.633 232.159L350.028 233.215L350.421 234.271L350.815 235.33L351.205 236.39L351.595 237.45L351.981 238.511L352.368 239.575L352.753 240.639L353.137 241.705L353.52 242.77L353.901 243.835L354.281 244.902L354.66 245.97L355.416 248.106L356.167 250.242L356.917 252.381L357.664 254.515L358.411 256.651L359.898 260.917L360.643 263.045L361.387 265.169L362.132 267.287L362.879 269.401L363.253 270.455L363.628 271.509L364.004 272.561L364.38 273.61L364.757 274.658L365.136 275.705L365.514 276.746L365.894 277.789L366.951 280.675L368.009 283.562L369.069 286.45L370.13 289.339L372.256 295.115L374.384 300.89L376.514 306.67L378.642 312.449L380.771 318.23L381.833 321.123L382.896 324.017L383.956 326.911L385.014 329.807L386.072 332.703L387.126 335.601L388.18 338.499L389.231 341.398L390.279 344.299L391.324 347.202L392.366 350.106L393.408 353.009L394.444 355.917L395.476 358.825L396.506 361.734L397.02 363.189L397.532 364.646L398.044 366.102L398.555 367.559L399.064 369.015L399.572 370.473L399.66 370.821L399.685 371.177L399.649 371.534L399.552 371.879L399.396 372.201L399.188 372.493L398.929 372.742L398.634 372.943L398.308 373.09L397.96 373.178L397.601 373.205L397.246 373.17L396.901 373.071L396.578 372.915L396.288 372.706L396.037 372.45L395.836 372.153L395.689 371.826L395.182 370.37L394.673 368.915L394.164 367.462L393.653 366.009L393.142 364.557L392.631 363.103L391.603 360.198L390.572 357.294L389.536 354.394L388.498 351.493L387.457 348.593L386.412 345.694L385.365 342.797L384.315 339.901L383.262 337.006L382.209 334.113L381.152 331.218L380.095 328.326L379.035 325.433L377.975 322.542L376.913 319.65L374.785 313.87L372.656 308.09L370.528 302.311L368.398 296.535L366.272 290.758L365.209 287.869L364.149 284.979L363.089 282.09L362.032 279.201L361.651 278.153L361.269 277.105L360.891 276.054L360.511 275.001L360.133 273.946L359.754 272.89L359.38 271.833L359.004 270.774L358.255 268.655L357.507 266.53L356.761 264.402L356.017 262.273L354.528 258.006L353.784 255.873L353.036 253.738L352.289 251.605L351.539 249.474L350.785 247.343L350.408 246.281L350.029 245.218L349.649 244.155L349.268 243.095L348.887 242.034L348.504 240.977L348.12 239.919L347.735 238.863L347.348 237.809L346.959 236.755L346.569 235.705L346.177 234.655L345.784 233.607L345.389 232.561L344.993 231.517L344.593 230.475L344.195 229.435L343.792 228.397L343.388 227.362L342.981 226.33L342.572 225.298L342.161 224.271L341.749 223.246L341.332 222.223L340.915 221.203L340.493 220.186L340.071 219.173L339.644 218.163L339.216 217.155L338.785 216.151L338.352 215.151L337.915 214.155L337.475 213.161L337.253 212.666L337.031 212.17L336.913 211.831L336.856 211.478L336.861 211.119L336.928 210.767L337.056 210.433L337.24 210.125L337.475 209.854L337.752 209.627L338.064 209.453L338.403 209.335L338.756 209.278L339.115 209.283Z" fill="#481D21"/>
<path fill-rule="evenodd" clip-rule="evenodd" d="M421.46 351.356H340.209V396.298C340.209 410.573 358.74 430.385 358.74 430.385L401.486 431.282C401.486 431.282 421.46 411.181 421.46 396.298V351.356Z" fill="#FFB773"/>
<defs>
<linearGradient id="paint0_linear_105:72" x1="85.7531" y1="430.951" x2="85.7531" y2="286.195" gradientUnits="userSpaceOnUse">
<stop stop-color="#FF8D73"/>
<stop offset="1" stop-color="#FF5F6D"/>
</linearGradient>
<linearGradient id="paint1_linear_105:72" x1="430.508" y1="281.34" x2="430.508" y2="103.535" gradientUnits="userSpaceOnUse">
<stop stop-color="#FF8D73"/>
<stop offset="1" stop-color="#FF5F6D"/>
</linearGradient>
<linearGradient id="paint2_linear_105:72" x1="354.673" y1="321.841" x2="354.673" y2="189.617" gradientUnits="userSpaceOnUse">
<stop stop-color="#FF8D73"/>
<stop offset="1" stop-color="#FF5F6D"/>
</linearGradient>
</defs>
</svg>
