<svg width="31" height="22" viewBox="0 0 31 22" fill="none" xmlns="http://www.w3.org/2000/svg">
<path d="M7.994 6.244C9.35667 6.244 10.5047 6.53333 11.438 7.112C12.3807 7.69067 13.0947 8.45133 13.58 9.394C14.0747 10.3367 14.3313 11.3493 14.35 12.432H9.94C9.90267 12.1613 9.82333 11.858 9.702 11.522C9.58067 11.186 9.38933 10.8967 9.128 10.654C8.86667 10.402 8.50267 10.276 8.036 10.276C7.336 10.276 6.77133 10.57 6.342 11.158C5.922 11.7367 5.712 12.6093 5.712 13.776C5.712 14.9613 5.94067 15.8853 6.398 16.548C6.85533 17.2013 7.43867 17.528 8.148 17.528C8.60533 17.528 8.96 17.3927 9.212 17.122C9.47333 16.842 9.66 16.534 9.772 16.198C9.89333 15.862 9.968 15.596 9.996 15.4H14.28C14.28 16.4267 14.028 17.388 13.524 18.284C13.0293 19.18 12.3153 19.9033 11.382 20.454C10.4487 21.0047 9.31933 21.28 7.994 21.28C6.61267 21.28 5.37133 20.9673 4.27 20.342C3.16867 19.7167 2.296 18.844 1.652 17.724C1.01733 16.604 0.7 15.3067 0.7 13.832C0.7 12.3387 1.01733 11.0227 1.652 9.884C2.28667 8.74533 3.15467 7.854 4.256 7.21C5.35733 6.566 6.60333 6.244 7.994 6.244ZM16.5211 21V0.195999H21.9671V8.582C22.1911 8.302 22.4524 8.00333 22.7511 7.686C23.0591 7.36867 23.4511 7.098 23.9271 6.874C24.4124 6.64067 25.0331 6.524 25.7891 6.524C26.6944 6.524 27.5298 6.71067 28.2951 7.084C29.0604 7.448 29.6764 7.98933 30.1431 8.708C30.6098 9.42667 30.8431 10.3133 30.8431 11.368V21H25.3831V12.068C25.3831 11.592 25.2011 11.2373 24.8371 11.004C24.4731 10.7613 24.0858 10.64 23.6751 10.64C23.2738 10.64 22.8864 10.7707 22.5131 11.032C22.1491 11.2933 21.9671 11.662 21.9671 12.138V21H16.5211Z" fill="url(#paint0_linear)"/>
<defs>
<linearGradient id="paint0_linear" x1="2.45869e-07" y1="10.5" x2="33" y2="10.5" gradientUnits="userSpaceOnUse">
<stop stop-color="#FF5F6D"/>
<stop offset="1" stop-color="#FFB773"/>
</linearGradient>
</defs>
</svg>
