<svg width="500" height="500" viewBox="0 0 500 500" fill="none" xmlns="http://www.w3.org/2000/svg">
<path d="M252 480.37C380.881 480.37 485.36 420.049 485.36 345.64C485.36 271.231 380.881 210.91 252 210.91C123.119 210.91 18.64 271.231 18.64 345.64C18.64 420.049 123.119 480.37 252 480.37Z" fill="#FFB773" fill-opacity="0.06"/>
<path d="M147.85 412.01C186.615 412.01 218.04 393.869 218.04 371.49C218.04 349.111 186.615 330.97 147.85 330.97C109.085 330.97 77.66 349.111 77.66 371.49C77.66 393.869 109.085 412.01 147.85 412.01Z" fill="#FFB773" fill-opacity="0.12"/>
<path d="M122.88 227.74C115.72 244.04 121.93 293.2 121.93 293.2C121.7 295.82 118.7 300.99 117.58 312.56C116.26 326.22 120.02 356.89 120.02 356.89C120.02 356.89 123.63 359.58 128.87 357.07C128.87 357.07 138.43 309.24 140.15 295.66C141.64 283.8 145.82 259.17 145.82 259.17L152.67 295.59C151.48 299.41 150.617 303.324 150.09 307.29C149.31 315.29 157.09 349.48 157.09 349.48C157.09 349.48 160.74 351.4 165.91 349.3C165.91 349.3 169.36 303.41 170.08 293.78C171.08 280.89 168.85 245.62 165.9 227.54L122.88 227.74Z" fill="#455A64"/>
<path opacity="0.6" d="M145.82 259.17L147.58 247.1C147.58 247.1 157.77 245.74 162.39 241.39C161.069 243.459 159.309 245.212 157.236 246.525C155.162 247.838 152.825 248.68 150.39 248.99L148.59 259.9L151.71 291.54L145.82 259.17Z" fill="#263238"/>
<path d="M185.7 370.41C185.7 370.41 183.45 368.55 179.59 365.55C175.73 362.55 168.29 356.76 167.49 354.55C166.69 352.34 166.76 348.19 167.49 340.68C168.32 332.2 169.49 327.46 167.37 327.49L167.27 328.89C166.77 330.07 165.27 331.13 162.41 331.67C159.14 332.28 155.15 331.22 153.55 329.89L153.28 328.32C151.88 329.21 152.57 332.46 153.28 336.72C153.99 340.98 155.52 348.29 155.46 352.57C155.462 354.864 155.345 357.157 155.11 359.44L155.05 359.88C154.85 361.1 154.819 362.342 154.96 363.57C155.23 365.05 158.59 367.24 160.89 367.63C163.19 368.02 166.43 370.28 168.24 371.98C171.131 374.365 174.708 375.766 178.45 375.98C182.29 375.98 184.96 374.7 186.23 372.64C186.9 371.63 186.64 371.06 185.7 370.41Z" fill="#FFB773"/>
<path opacity="0.35" d="M185.7 370.41C185.7 370.41 183.45 368.55 179.59 365.55C175.73 362.55 168.29 356.76 167.49 354.55C166.69 352.34 166.76 348.19 167.49 340.68C168.32 332.2 169.49 327.46 167.37 327.49L167.27 328.89C166.77 330.07 165.27 331.13 162.41 331.67C159.14 332.28 155.15 331.22 153.55 329.89L153.28 328.32C151.88 329.21 152.57 332.46 153.28 336.72C153.99 340.98 155.52 348.29 155.46 352.57C155.462 354.864 155.345 357.157 155.11 359.44L155.05 359.88C154.85 361.1 154.819 362.342 154.96 363.57C155.23 365.05 158.59 367.24 160.89 367.63C163.19 368.02 166.43 370.28 168.24 371.98C171.131 374.365 174.708 375.766 178.45 375.98C182.29 375.98 184.96 374.7 186.23 372.64C186.9 371.63 186.64 371.06 185.7 370.41Z" fill="#FFB773"/>
<path d="M133.17 340.69C133.81 337.25 134.17 335.31 132.74 335L132.44 336.73C131.72 337.32 129.74 338.28 125.34 338.15C122.758 338.132 120.255 337.26 118.22 335.67L118.1 333.91C116.83 334.41 116.61 335.02 117.3 339.91C118.09 345.59 118.68 351.33 119.2 357.05C119.375 360.083 119.314 363.126 119.02 366.15C118.82 369.49 117.75 373 117.3 376.31C116.929 378.624 117.08 380.991 117.74 383.24C118.283 385.047 119.177 386.729 120.37 388.19C121.194 389.214 122.214 390.064 123.37 390.69C125.67 391.9 128.23 391.52 129.37 389.02C131.42 384.7 131.24 382.16 130.91 377.71C130.74 375.35 130.66 374.82 130.35 372.5C130.04 370.18 128.98 364.82 129.67 360.5C130.36 356.18 132.54 344.15 133.17 340.69Z" fill="#FFB773"/>
<path opacity="0.35" d="M133.17 340.69C133.81 337.25 134.17 335.31 132.74 335L132.44 336.73C131.72 337.32 129.74 338.28 125.34 338.15C122.758 338.132 120.255 337.26 118.22 335.67L118.1 333.91C116.83 334.41 116.61 335.02 117.3 339.91C118.09 345.59 118.68 351.33 119.2 357.05C119.375 360.083 119.314 363.126 119.02 366.15C118.82 369.49 117.75 373 117.3 376.31C116.929 378.624 117.08 380.991 117.74 383.24C118.283 385.047 119.177 386.729 120.37 388.19C121.194 389.214 122.214 390.064 123.37 390.69C125.67 391.9 128.23 391.52 129.37 389.02C131.42 384.7 131.24 382.16 130.91 377.71C130.74 375.35 130.66 374.82 130.35 372.5C130.04 370.18 128.98 364.82 129.67 360.5C130.36 356.18 132.54 344.15 133.17 340.69Z" fill="#FFB773"/>
<path d="M180.3 218.52C180.88 212.86 180.98 209.07 180.81 208.36C180.02 205.15 178.22 202.79 175.86 198.89C171.81 192.18 166.4 183.5 162.42 178.62C159.25 174.72 155.62 174.06 151.95 174.26C149.4 174.4 152.18 185.86 154.69 193.13L169.07 210.37C169.509 210.981 169.712 211.731 169.64 212.48L168.76 225.62L173.06 231.37C173.06 231.37 179.56 225.76 180.3 218.52Z" fill="#FF5F6D"/>
<path d="M208.67 117.86C199.79 119.56 191.28 127.06 186.6 135.01C168.46 134.09 145.71 140.26 124.49 151.01L108.49 89.0098C143.2 82.4498 176.88 88.1798 208.67 117.86Z" fill="#FF5F6D"/>
<path opacity="0.35" d="M186.59 135C168.46 134.08 145.71 140.25 124.49 151L108.49 88.9999C132.46 87.7799 166.31 105.08 186.59 135Z" fill="#FFB773"/>
<path opacity="0.25" d="M208.67 117.86C176.88 88.1798 143.2 82.4498 108.53 88.9998C132.47 87.7998 166.31 105.11 186.6 135C191.28 127.06 199.79 119.56 208.67 117.86Z" fill="#FFB773"/>
<path d="M34.77 162.61C43.37 159.8 54.44 162.27 62.38 166.97C77.83 157.41 100.72 151.83 124.49 150.97L108.49 88.97C75 100 48.29 121.27 34.77 162.61Z" fill="#FFB773"/>
<path opacity="0.45" d="M62.38 167C77.82 157.45 100.73 151.86 124.49 151L108.49 89C87 99.48 65.7 131 62.38 167Z" fill="#FF5F6D"/>
<path opacity="0.55" d="M34.77 162.61C48.29 121.27 75 100 108.53 89C87 99.47 65.7 131 62.38 167C54.44 162.27 43.37 159.8 34.77 162.61Z" fill="#FF5F6D"/>
<path d="M137.54 174.62H131.48C131.48 174.62 131.35 175.33 129.8 176.19C126.6 177.97 122.92 182.33 122.88 186.13C122.88 190.29 123.49 194.02 125.6 199.51L129.74 208.51C130.39 212.92 125.66 215.82 121.74 230.31C133.95 237.13 150.63 235.92 159.24 232.23C161.82 231.229 164.114 229.608 165.92 227.51C164.5 220.03 163.92 220.13 163.22 213.29C162.83 210.535 162.676 207.751 162.76 204.97C166.67 199.97 167.92 193.22 165.94 188.7C161.94 179.52 155.24 173.92 151.36 174.23L137.54 174.62Z" fill="#FF717D"/>
<path d="M146.6 223.86C143.459 222.219 140.087 221.062 136.6 220.43C135.89 220.5 137.54 215.49 139.21 210.69C139.21 210.69 134.13 186.96 132.84 183.53L122.84 186.48C122.883 190.95 123.808 195.368 125.56 199.48L129.7 208.48C130.35 212.89 125.62 215.79 121.7 230.28C131.01 235.48 142.92 236 151.87 234.28C147.076 234.283 142.306 233.609 137.7 232.28C131.97 230.38 129.61 226.53 132.83 225.51C134.584 224.913 136.478 224.864 138.26 225.37C139.62 225.767 140.917 226.356 142.11 227.12C144.268 228.404 146.761 229.011 149.267 228.863C151.774 228.715 154.178 227.819 156.17 226.29C161.17 222.65 157.17 217.77 157.17 217.77C157.17 217.77 149.19 225.53 146.6 223.86Z" fill="#FF717D"/>
<path d="M165.35 172.26H140.35C135.876 172.26 131.585 170.483 128.421 167.319C125.257 164.155 123.48 159.864 123.48 155.39V148C123.48 142.751 125.565 137.718 129.276 134.006C132.988 130.295 138.021 128.21 143.27 128.21H145.57C150.817 128.213 155.848 130.299 159.557 134.01C163.266 137.721 165.35 142.753 165.35 148V172.26Z" fill="#FFB773"/>
<path d="M158.05 137.12C160.26 138.43 162.99 143.99 162.72 155.66C162.5 165.54 159.29 167.98 157.72 168.66C156.15 169.34 153.01 168.93 149.99 168.43V174.36C149.99 174.36 153.23 176.95 152.99 179.67C152.75 182.39 146.22 182.81 142.32 180.16C138.42 177.51 137.61 174.59 137.61 174.59V160.59C137.61 160.59 135.96 162.34 133.03 160.33C132.4 159.928 131.861 159.4 131.447 158.779C131.032 158.158 130.752 157.457 130.623 156.722C130.494 155.986 130.52 155.232 130.698 154.507C130.877 153.781 131.204 153.101 131.66 152.51C132.084 152.125 132.587 151.836 133.133 151.661C133.678 151.487 134.255 151.433 134.824 151.501C135.393 151.569 135.941 151.759 136.43 152.057C136.919 152.355 137.339 152.755 137.66 153.23C137.66 153.23 141.71 152.88 148.12 149.36C152.916 146.751 156.486 142.351 158.05 137.12V137.12Z" fill="#FFC8BC"/>
<path d="M150.58 153.17C150.592 153.336 150.571 153.503 150.518 153.662C150.466 153.82 150.382 153.966 150.272 154.092C150.162 154.217 150.029 154.32 149.879 154.393C149.729 154.467 149.566 154.51 149.4 154.52C149.144 154.542 148.887 154.486 148.663 154.361C148.438 154.236 148.256 154.046 148.14 153.817C148.024 153.588 147.98 153.329 148.012 153.074C148.044 152.819 148.151 152.579 148.32 152.386C148.489 152.192 148.713 152.054 148.961 151.988C149.209 151.922 149.472 151.932 149.715 152.016C149.957 152.1 150.17 152.255 150.324 152.461C150.478 152.666 150.567 152.913 150.58 153.17Z" fill="#263238"/>
<path d="M152 161.55L154.89 162.47C154.834 162.66 154.741 162.837 154.615 162.991C154.49 163.145 154.335 163.272 154.16 163.365C153.985 163.458 153.793 163.515 153.596 163.533C153.398 163.551 153.199 163.53 153.01 163.47C152.628 163.339 152.311 163.068 152.123 162.711C151.936 162.354 151.892 161.938 152 161.55V161.55Z" fill="#9A4A4D"/>
<path d="M161.6 149.36L159.09 147.61C159.196 147.441 159.336 147.296 159.499 147.183C159.663 147.069 159.848 146.99 160.043 146.95C160.239 146.91 160.44 146.91 160.635 146.949C160.83 146.989 161.016 147.067 161.18 147.18C161.514 147.422 161.744 147.782 161.822 148.187C161.9 148.592 161.821 149.011 161.6 149.36Z" fill="#263238"/>
<path d="M161 152.27C161.008 152.433 160.984 152.595 160.929 152.749C160.874 152.902 160.789 153.044 160.679 153.164C160.57 153.285 160.437 153.383 160.29 153.452C160.143 153.522 159.983 153.562 159.82 153.57C159.657 153.578 159.494 153.553 159.341 153.498C159.187 153.443 159.046 153.359 158.926 153.249C158.805 153.139 158.707 153.007 158.637 152.86C158.568 152.712 158.528 152.553 158.52 152.39C158.512 152.227 158.536 152.064 158.591 151.911C158.646 151.757 158.731 151.616 158.841 151.495C158.95 151.375 159.083 151.277 159.23 151.207C159.377 151.138 159.537 151.098 159.7 151.09C159.863 151.082 160.026 151.106 160.179 151.161C160.333 151.216 160.474 151.301 160.594 151.411C160.715 151.52 160.813 151.652 160.883 151.8C160.952 151.947 160.992 152.107 161 152.27Z" fill="#263238"/>
<path d="M154.12 151.56L154.32 159.05L158.26 157.83L154.12 151.56Z" fill="#481D21" fill-opacity="0.59"/>
<path d="M150 168.46C146.82 168.04 140.28 166.17 139.27 163.58C139.68 164.887 140.479 166.039 141.56 166.88C143.56 168.55 150 170.44 150 170.44V168.46Z" fill="#481D21" fill-opacity="0.6"/>
<path d="M110.86 97.3099H110.48H110.03H109.64C109.06 97.3099 109.22 96.9999 109.1 96.7099L108.48 94.2299C107.99 92.1799 107.37 89.4299 106.84 86.6599C106.57 85.2799 106.33 83.8799 106.13 82.5699C106.03 81.9199 105.91 81.2899 105.84 80.6799C105.77 80.0699 105.68 79.5099 105.61 78.9799C105.54 78.4499 105.49 77.9799 105.44 77.5399C105.39 77.0999 105.35 76.7299 105.33 76.4199C105.27 75.7999 105.25 75.4199 105.25 75.4199C105.25 75.4199 105.41 75.7399 105.66 76.3099C105.79 76.5999 105.93 76.9499 106.1 77.3099C106.27 77.6699 106.46 78.1599 106.65 78.6499L107.27 80.2499C107.5 80.8199 107.7 81.4299 107.93 82.0499C108.38 83.2999 108.84 84.6299 109.27 85.9699C110.14 88.6599 110.93 91.3599 111.49 93.3999C111.76 94.3999 111.99 95.2699 112.15 95.8599C112.15 96.1699 112.46 96.3499 111.96 96.6499C111.851 96.7231 111.737 96.7899 111.62 96.8499L111.21 97.0399L110.86 97.3099Z" fill="#455A64"/>
<path d="M132 212.88C129.44 213.88 119.69 210.75 114.52 209.52L129.75 194.52C133.42 187.21 132.2 177.7 131.37 175.24C126.37 175.31 124.96 176.24 119.46 183.54C115.46 188.78 103.63 202.25 99.71 210.6C98.42 213.34 98.48 215.68 100.78 217.16C106.06 220.56 115.25 220.88 133.72 222.46" fill="#FFC8BC"/>
<path d="M130 194.94C132.9 191.51 134 182.34 131.51 174.62C129.934 174.421 128.332 174.598 126.838 175.137C125.343 175.675 123.997 176.561 122.91 177.72C117.91 182.56 106.16 199.61 106.16 199.61C102.32 203.96 97.95 212.11 98.16 214.28C98.37 216.45 100.16 218.53 104.86 219.81C109.56 221.09 130 222.45 130 222.45C130.654 219.266 130.953 216.02 130.89 212.77C124.73 211.57 119.13 210.41 115.51 209.38C115.5 209.38 127.39 198 130 194.94Z" fill="#FF5F6D"/>
<path d="M130.88 213.07C131.772 212.963 132.618 212.617 133.33 212.07C134.15 211.51 134.92 210.88 135.77 210.38C137.92 209.237 140.153 208.257 142.45 207.45C142.662 207.34 142.901 207.291 143.14 207.31C143.269 207.344 143.389 207.409 143.49 207.497C143.59 207.585 143.669 207.696 143.72 207.82C143.818 208.072 143.872 208.339 143.88 208.61C143.94 209.17 143.8 209.74 143.88 210.3C144.55 216 132.15 215.85 130.88 213.07Z" fill="#FFC0B1"/>
<path d="M140.21 212.08C140.036 212.125 139.855 212.134 139.677 212.108C139.499 212.082 139.329 212.02 139.175 211.927C139.021 211.834 138.888 211.711 138.782 211.565C138.676 211.42 138.601 211.255 138.56 211.08L112.27 108.89C112.226 108.718 112.216 108.539 112.242 108.363C112.267 108.187 112.326 108.018 112.417 107.866C112.507 107.713 112.627 107.579 112.769 107.473C112.911 107.366 113.073 107.289 113.245 107.245C113.417 107.201 113.596 107.191 113.772 107.217C113.948 107.242 114.117 107.301 114.269 107.392C114.422 107.482 114.556 107.602 114.662 107.744C114.769 107.886 114.846 108.048 114.89 108.22L141.18 210.44C141.225 210.611 141.236 210.79 141.211 210.966C141.187 211.141 141.128 211.31 141.037 211.462C140.947 211.615 140.828 211.748 140.686 211.854C140.544 211.96 140.382 212.037 140.21 212.08V212.08Z" fill="#455A64"/>
<path d="M152.86 226.44C151.541 226.916 150.137 227.112 148.738 227.015C147.339 226.917 145.976 226.529 144.735 225.875C143.495 225.221 142.405 224.315 141.534 223.216C140.664 222.116 140.032 220.847 139.68 219.49L137.74 211.99C137.717 211.908 137.712 211.822 137.723 211.738C137.734 211.653 137.761 211.572 137.804 211.498C137.847 211.425 137.904 211.36 137.972 211.309C138.04 211.258 138.118 211.221 138.2 211.2L141.54 210.34C141.707 210.298 141.884 210.323 142.032 210.411C142.181 210.499 142.288 210.643 142.33 210.81L144.27 218.31C144.46 219.043 144.804 219.726 145.279 220.316C145.754 220.905 146.349 221.387 147.024 221.728C147.7 222.07 148.44 222.264 149.197 222.297C149.953 222.33 150.707 222.201 151.41 221.92C152.62 221.402 153.603 220.464 154.176 219.278C154.749 218.093 154.875 216.741 154.53 215.47L153.74 212.42C153.594 211.88 153.637 211.307 153.862 210.795C154.088 210.284 154.483 209.865 154.98 209.61C155.297 209.457 155.643 209.376 155.995 209.373C156.346 209.37 156.694 209.446 157.013 209.594C157.332 209.743 157.614 209.96 157.838 210.231C158.062 210.502 158.224 210.819 158.31 211.16L159.09 214.16C159.759 216.615 159.492 219.231 158.341 221.5C157.19 223.77 155.236 225.53 152.86 226.44V226.44Z" fill="#FFB773"/>
<g opacity="0.35">
<path opacity="0.35" d="M152.86 226.44C151.541 226.916 150.137 227.112 148.738 227.015C147.339 226.917 145.976 226.529 144.735 225.875C143.495 225.221 142.405 224.315 141.534 223.216C140.664 222.116 140.032 220.847 139.68 219.49L137.74 211.99C137.717 211.908 137.712 211.822 137.723 211.738C137.734 211.653 137.761 211.572 137.804 211.498C137.847 211.425 137.904 211.36 137.972 211.309C138.04 211.258 138.118 211.221 138.2 211.2L141.54 210.34C141.707 210.298 141.884 210.323 142.032 210.411C142.181 210.499 142.288 210.643 142.33 210.81L144.27 218.31C144.46 219.043 144.804 219.726 145.279 220.316C145.754 220.905 146.349 221.387 147.024 221.728C147.7 222.07 148.44 222.264 149.197 222.297C149.953 222.33 150.707 222.201 151.41 221.92C152.62 221.402 153.603 220.464 154.176 219.278C154.749 218.093 154.875 216.741 154.53 215.47L153.74 212.42C153.594 211.88 153.637 211.307 153.862 210.795C154.088 210.284 154.483 209.865 154.98 209.61C155.297 209.457 155.643 209.376 155.995 209.373C156.346 209.37 156.694 209.446 157.013 209.594C157.332 209.743 157.614 209.96 157.838 210.231C158.062 210.502 158.224 210.819 158.31 211.16L159.09 214.16C159.759 216.615 159.492 219.231 158.341 221.5C157.19 223.77 155.236 225.53 152.86 226.44V226.44Z" fill="#FFB773"/>
</g>
<path d="M130.88 213.12C132.13 213.63 136.44 213.36 139 212.81C140.242 212.607 141.437 212.184 142.53 211.56L142.11 209.91C142.11 209.91 144.18 209.8 145.11 210.69C146.04 211.58 145.5 212.87 145.89 213.39C146.336 214.045 146.674 214.767 146.89 215.53C147.05 216.2 147.89 217.53 147.83 218.21C147.77 218.89 147.83 220.39 147.83 220.39C147.362 221.301 146.659 222.071 145.794 222.619C144.929 223.168 143.934 223.475 142.91 223.51C139.2 223.77 132.69 222.23 132.69 222.23L130.88 213.12Z" fill="#FFC8BC"/>
<path d="M179 211.57L178.14 210.83C178.013 210.742 177.866 210.687 177.713 210.67C177.559 210.652 177.404 210.673 177.26 210.73L168 213.26C167.535 213.416 167.109 213.67 166.75 214.005C166.391 214.34 166.108 214.747 165.92 215.2L159.26 234.4C159.178 234.56 159.147 234.742 159.17 234.92C159.193 235.099 159.27 235.266 159.39 235.4V235.4L160.27 236.16C160.397 236.253 160.545 236.311 160.701 236.331C160.857 236.35 161.015 236.329 161.16 236.27L170.4 233.75C170.867 233.597 171.294 233.344 171.653 233.009C172.013 232.674 172.295 232.265 172.48 231.81L179.14 212.61C179.28 212.11 179.2 211.75 179 211.57Z" fill="#455A64"/>
<path d="M160.11 235.14L166.77 215.94C166.955 215.486 167.236 215.078 167.593 214.744C167.95 214.409 168.376 214.155 168.84 214L178.09 211.48C178.95 211.25 179.41 211.74 179.09 212.58L172.43 231.78C172.245 232.235 171.962 232.644 171.603 232.979C171.244 233.313 170.817 233.566 170.35 233.72L161.11 236.24C160.28 236.47 159.82 236 160.11 235.14Z" fill="#FF5F6D"/>
<path d="M167.84 214.53C167.362 214.897 166.99 215.383 166.76 215.94L160.11 235.14C160.025 235.297 159.989 235.476 160.005 235.653C160.021 235.831 160.089 236 160.2 236.14L159.37 235.43C159.247 235.297 159.169 235.13 159.145 234.951C159.122 234.771 159.155 234.589 159.24 234.43L165.9 215.23C166.112 214.707 166.457 214.249 166.9 213.9L167.84 214.53Z" fill="#37474F"/>
<path d="M176.41 220.32C175.76 222.32 173.41 223.58 169.61 224.48C165.81 225.38 163.68 229.48 164.3 230.68C164.92 231.88 171.08 233.06 173.55 232.68C176.02 232.3 178.55 228.76 179.25 227.68C179.95 226.6 180.87 218.86 180.08 217.81C179.765 217.484 179.38 217.233 178.953 217.077C178.527 216.921 178.071 216.864 177.62 216.91L176.41 220.32Z" fill="#FFC8BC"/>
<path d="M117.38 123.37C98.5269 124.737 80.5111 131.701 65.64 143.37C50 146.12 40.35 153 34.77 162.61C46.77 120.56 76.35 97.2599 108.53 88.9699C140.71 80.6799 177.82 86.8499 208.67 117.86C199.13 112.11 187.38 110.77 172.37 115.94C153.709 112.889 134.562 115.476 117.38 123.37V123.37Z" fill="#FF8D73"/>
<path opacity="0.15" d="M172.37 115.94C153.706 112.887 134.555 115.474 117.37 123.37L108.53 89C145.3 79.52 172.37 115.94 172.37 115.94Z" fill="#FF5F6D"/>
<path opacity="0.25" d="M34.77 162.61C46.77 120.56 76.35 97.26 108.53 88.97C71.76 98.44 65.64 143.4 65.64 143.4C50 146.12 40.35 153 34.77 162.61Z" fill="#FF5F6D"/>
<path d="M444.15 53.74L437.7 49.74L435.22 54.74L438.72 58.56C438.72 58.56 438.93 59.31 440.64 57.99C442.001 56.7421 443.182 55.3119 444.15 53.74Z" fill="#FF5F6D"/>
<path opacity="0.5" d="M444.15 53.74L437.7 49.74L435.22 54.74L438.72 58.56C438.72 58.56 438.93 59.31 440.64 57.99C442.001 56.7421 443.182 55.3119 444.15 53.74Z" fill="#37474F"/>
<path d="M439.28 62.5701C439.28 70.4601 437.02 80.0001 432.83 88.8601C428.04 98.9601 420.76 108.19 411.53 113.13C406.24 115.96 401.4 116.55 397.38 115.29L390.92 111.29C395.11 109.69 399.36 106.29 403.03 101.48L399.03 99.0101C397.676 98.0692 396.749 96.6315 396.45 95.0101C397.405 94.7144 398.312 94.2797 399.14 93.7201L396.5 92.0701C394.5 90.8401 393.39 88.0701 393.58 84.4001C395.016 84.6205 396.484 84.364 397.76 83.6701C397.349 83.5323 396.962 83.3334 396.61 83.0801C393.56 80.9101 393.04 75.0001 395.4 68.8901L401.85 72.8901C406.034 73.868 410.429 73.3257 414.25 71.3601C413.14 64.4401 417.81 54.7101 423.84 51.4901C426.53 50.0501 428.91 50.2301 430.54 51.7101C432.779 49.9077 434.794 47.8429 436.54 45.5601L443 49.5601C442.193 52.8265 440.718 55.8907 438.67 58.5601C440.66 57.1755 442.482 55.5647 444.1 53.7601C442.799 56.854 441.184 59.8062 439.28 62.5701V62.5701Z" fill="#FF5F6D"/>
<path d="M439.28 62.5701C439.28 70.4601 437.02 80.0001 432.83 88.8601C428.04 98.9601 420.76 108.19 411.53 113.13C406.24 115.96 401.4 116.55 397.38 115.29C402.31 113.41 407.32 108.97 411.38 102.84C407.3 104.92 403.96 103.24 402.93 99.0101C404.504 98.5107 405.948 97.6708 407.16 96.5501C402.71 97.7601 399.78 94.1201 400.06 88.4101C401.499 88.6305 402.97 88.3741 404.25 87.6801C403.924 87.5667 403.611 87.4157 403.32 87.2301C400.07 85.2301 399.48 79.1401 401.89 72.9001C402.58 76.1501 408.62 78.6601 413.84 78.5801C418.89 78.5101 420.62 75.5801 420.72 75.3901C419.61 68.4701 424.29 58.7401 430.32 55.5101C433 54.0801 435.38 54.2601 437.01 55.7201C439.249 53.9247 441.263 51.8666 443.01 49.5901C442.203 52.8566 440.728 55.9207 438.68 58.5901C440.67 57.2055 442.492 55.5948 444.11 53.7901C442.804 56.8741 441.186 59.8162 439.28 62.5701V62.5701Z" fill="#FF5F6D"/>
<path opacity="0.2" d="M443.05 49.5801C441.298 51.8488 439.284 53.903 437.05 55.7001C436.629 55.3223 436.14 55.0272 435.61 54.8301L430.61 51.7001C432.849 49.8977 434.863 47.8329 436.61 45.55L443.05 49.5801Z" fill="#37474F"/>
<path opacity="0.5" d="M407.16 96.55C405.947 97.6671 404.503 98.5035 402.93 99L396.48 95C397.435 94.7043 398.341 94.2696 399.17 93.71L402.83 96L402.94 96.07L403.11 96.18C403.726 96.51 404.402 96.7129 405.097 96.7765C405.793 96.84 406.495 96.763 407.16 96.55V96.55Z" fill="#37474F"/>
<path opacity="0.2" d="M420.73 75.3801C420.53 75.7201 418.73 78.4801 413.86 78.5501C408.64 78.6301 402.6 76.1201 401.91 72.8701C403.018 73.1617 404.155 73.3294 405.3 73.3701C408.416 73.4259 411.501 72.7404 414.3 71.3701L420.73 75.3801Z" fill="#37474F"/>
<path opacity="0.3" d="M401.89 72.9001L395.44 68.9001C393.08 75.0101 393.6 80.9001 396.65 83.0901L397.09 83.3701L397.69 83.7301L403.33 87.2501C400.08 85.1901 399.47 79.1401 401.89 72.9001Z" fill="#37474F"/>
<path opacity="0.5" d="M404.25 87.68C402.97 88.374 401.499 88.6304 400.06 88.41L393.61 84.41C395.005 84.6344 396.434 84.3955 397.68 83.73L403.32 87.25C403.613 87.4267 403.925 87.5709 404.25 87.68V87.68Z" fill="#37474F"/>
<path opacity="0.5" d="M411.38 102.84C407.32 108.97 402.31 113.41 397.38 115.29L390.92 111.29C395.11 109.69 399.36 106.29 403.03 101.48L405.54 103.04C407.07 104 409.11 104 411.38 102.84Z" fill="#37474F"/>
<path opacity="0.3" d="M435.64 54.8601C434.763 54.5652 433.831 54.4695 432.913 54.5803C431.994 54.691 431.112 55.0052 430.33 55.5001C424.33 58.7301 419.62 68.5001 420.73 75.3801L414.28 71.3801C413.17 64.4601 417.84 54.7301 423.87 51.5101C426.56 50.0701 428.94 50.2501 430.57 51.7301L435.64 54.8601Z" fill="#37474F"/>
<path opacity="0.3" d="M402.83 96.0002L399.17 93.7302L396.53 92.0802C394.53 90.8502 393.42 88.0802 393.61 84.4102L400.06 88.4102C399.89 92.0002 400.94 94.6902 402.83 96.0002Z" fill="#37474F"/>
<path opacity="0.3" d="M405.35 102.91L403 101.47L399 99.01C397.65 98.0654 396.724 96.6294 396.42 95.01L402.87 99.01C403.185 100.572 404.069 101.962 405.35 102.91V102.91Z" fill="#37474F"/>
<path d="M426.34 142.19L425.33 142.62L432.87 126.22L426.99 122.56L409.45 129.96L398.15 162.22L404.03 165.88L404.76 165.57L397.24 190.1L403.11 193.76L432.22 145.85L426.34 142.19Z" fill="#FF5F6D"/>
<path d="M415.33 133.62L432.87 126.22L421.84 150.23L432.22 145.85L403.11 193.76L412.8 162.18L404.03 165.88L415.33 133.62Z" fill="#FF5F6D"/>
<path opacity="0.2" d="M432.87 126.22L426.99 122.56L409.45 129.96L415.33 133.62L432.87 126.22Z" fill="#37474F"/>
<path opacity="0.3" d="M415.33 133.62L404.03 165.88L398.15 162.22L409.45 129.96L415.33 133.62Z" fill="#37474F"/>
<path opacity="0.5" d="M404.76 165.57L412.8 162.18L403.11 193.76L397.24 190.1L404.76 165.57Z" fill="#37474F"/>
<path opacity="0.2" d="M426.34 142.19L425.33 142.62L421.84 150.23L432.22 145.85L426.34 142.19Z" fill="#37474F"/>
<path d="M434.74 198.12L428.74 194.37C426.51 192.95 423.12 193.1 419.27 195.15C413.95 198 409.27 205.15 407.21 211.25L402.93 208.6C400.74 207.02 397.67 206.69 394.21 208.54C393.78 208.77 393.35 209.02 392.93 209.29L392.27 209.74C392.08 209.87 391.88 209.99 391.69 210.13C391.5 210.27 391.11 210.58 390.82 210.81L390.49 211.07C390.15 211.35 389.82 211.64 389.49 211.94L389.34 212.08C388.98 212.41 388.62 212.77 388.27 213.13C387.192 214.249 386.205 215.453 385.32 216.73C382.89 220.24 381.32 224.18 381.2 227.67C380.98 234.16 384.86 238.44 389.7 241.25L394.45 244.25C397.269 246.068 400.343 247.456 403.57 248.37L411.5 250.75L419.86 239.67C427.86 229.1 437.39 214.46 437.71 204.67C437.75 201.47 436.64 199.25 434.74 198.12Z" fill="#FF5F6D"/>
<path d="M394.32 244.16L389.63 241.26C384.8 238.45 380.92 234.17 381.13 227.68C381.469 223.72 382.902 219.932 385.27 216.74L391.45 220.58C389.01 224.09 387.45 228.03 387.32 231.52C387.13 237.32 390.21 241.37 394.32 244.16Z" fill="#FF5F6D"/>
<g opacity="0.5">
<path opacity="0.5" d="M394.32 244.16L389.63 241.26C384.8 238.45 380.92 234.17 381.13 227.68C381.469 223.72 382.902 219.932 385.27 216.74L391.45 220.58C389.01 224.09 387.45 228.03 387.32 231.52C387.13 237.32 390.21 241.37 394.32 244.16Z" fill="#37474F"/>
</g>
<path d="M434.71 198.07C432.48 196.78 429.16 196.98 425.42 198.98C419 202.4 413.47 212.13 412.47 218.65C411.86 213 406.79 208.93 400.36 212.37C396.795 214.381 393.746 217.192 391.45 220.58L385.27 216.74L385.58 216.29C385.67 216.17 385.75 216.05 385.85 215.93C386.07 215.63 386.31 215.32 386.54 215.03C387.202 214.205 387.913 213.42 388.67 212.68C388.85 212.49 389.04 212.31 389.23 212.13L389.65 211.75C391.025 210.496 392.546 209.411 394.18 208.52C395.651 207.684 397.318 207.253 399.01 207.27C400.408 207.308 401.763 207.765 402.9 208.58L407.18 211.23C409.18 205.14 413.92 197.98 419.25 195.13C423.09 193.13 426.48 192.92 428.71 194.35L434.71 198.07Z" fill="#FF5F6D"/>
<path opacity="0.2" d="M434.71 198.07C432.48 196.78 429.16 196.98 425.42 198.98C419 202.4 413.47 212.13 412.47 218.65C411.86 213 406.79 208.93 400.36 212.37C396.795 214.381 393.746 217.192 391.45 220.58L385.27 216.74L385.58 216.29C385.67 216.17 385.75 216.05 385.85 215.93C386.07 215.63 386.31 215.32 386.54 215.03C387.202 214.205 387.913 213.42 388.67 212.68C388.85 212.49 389.04 212.31 389.23 212.13L389.65 211.75C391.025 210.496 392.546 209.411 394.18 208.52C395.651 207.684 397.318 207.253 399.01 207.27C400.408 207.308 401.763 207.765 402.9 208.58L407.18 211.23C409.18 205.14 413.92 197.98 419.25 195.13C423.09 193.13 426.48 192.92 428.71 194.35L434.71 198.07Z" fill="#37474F"/>
<path d="M240.56 351.46L236.76 349.26C236.132 348.848 235.609 348.293 235.234 347.642C234.858 346.991 234.641 346.26 234.6 345.51V129.87C234.641 129.119 234.858 128.389 235.234 127.738C235.609 127.086 236.132 126.532 236.76 126.12L342.11 65.2999C342.781 64.9599 343.523 64.7827 344.275 64.7827C345.027 64.7827 345.769 64.9599 346.44 65.2999L350.23 67.4899C350.862 67.8999 351.387 68.4533 351.764 69.1049C352.141 69.7566 352.359 70.4881 352.4 71.2399V286.88C352.359 287.632 352.141 288.363 351.764 289.015C351.387 289.667 350.862 290.22 350.23 290.63L244.89 351.46C244.219 351.8 243.477 351.977 242.725 351.977C241.973 351.977 241.231 351.8 240.56 351.46V351.46Z" fill="#455A64"/>
<path d="M352.38 70.8799C352.23 69.7599 351.32 69.3499 350.23 69.9799L244.89 130.81C244.253 131.21 243.727 131.763 243.36 132.42L235.23 127.73C235.594 127.068 236.12 126.511 236.76 126.11L342.11 65.2899C342.781 64.9499 343.523 64.7727 344.275 64.7727C345.027 64.7727 345.769 64.9499 346.44 65.2899L350.23 67.4799C350.812 67.8588 351.305 68.3587 351.676 68.9454C352.047 69.5321 352.287 70.192 352.38 70.8799V70.8799Z" fill="#455A64"/>
<path d="M244.52 351.63C243.88 351.889 243.192 352.008 242.502 351.979C241.812 351.95 241.136 351.773 240.52 351.46L236.72 349.26C236.092 348.848 235.569 348.294 235.193 347.642C234.818 346.991 234.601 346.261 234.56 345.51V129.86C234.586 129.108 234.803 128.375 235.19 127.73L243.32 132.42C242.925 133.066 242.704 133.803 242.68 134.56V350.21C242.72 351.45 243.5 352 244.52 351.63Z" fill="#263238"/>
<path d="M242.72 134.56V350.21C242.72 351.59 243.72 352.15 244.89 351.46L350.23 290.63C350.861 290.22 351.387 289.667 351.764 289.015C352.141 288.363 352.359 287.632 352.4 286.88V71.24C352.4 69.86 351.4 69.3 350.23 69.99L244.89 130.81C244.258 131.22 243.733 131.773 243.356 132.425C242.979 133.077 242.761 133.808 242.72 134.56V134.56Z" fill="#37474F"/>
<path d="M234.6 160.2L209.69 186.92C209.485 187.138 209.331 187.399 209.24 187.684C209.148 187.969 209.123 188.272 209.164 188.568C209.205 188.865 209.312 189.148 209.478 189.398C209.643 189.647 209.863 189.857 210.12 190.01C210.46 190.21 217.24 194.07 218.25 194.68C218.612 194.894 219.032 194.988 219.45 194.95L242.72 193V164.87L234.6 160.2Z" fill="#FF5F6D"/>
<path d="M218.12 194.6C216.76 193.79 210.45 190.2 210.12 190.01C209.863 189.857 209.643 189.647 209.478 189.398C209.312 189.148 209.205 188.865 209.164 188.568C209.123 188.272 209.148 187.969 209.24 187.684C209.331 187.399 209.485 187.138 209.69 186.92L234.6 160.2L242.72 164.86L217.82 191.59C217.623 191.798 217.473 192.047 217.38 192.318C217.287 192.59 217.254 192.878 217.282 193.164C217.311 193.449 217.4 193.725 217.545 193.973C217.689 194.221 217.885 194.435 218.12 194.6Z" fill="#455A64"/>
<path d="M242.72 164.87L217.82 191.59C217.543 191.885 217.363 192.257 217.302 192.657C217.242 193.057 217.304 193.466 217.48 193.83C217.657 194.194 217.94 194.496 218.291 194.696C218.643 194.896 219.047 194.984 219.45 194.95L242.72 193V164.87Z" fill="#37474F"/>
<path d="M253 135.53L342.1 84.0898C343.29 83.3998 344.26 83.9598 344.26 85.3398V99.0998C344.219 99.8504 344.002 100.581 343.627 101.232C343.252 101.883 342.729 102.438 342.1 102.85L253 154.29C251.81 154.98 250.84 154.42 250.84 153.04V139.28C250.88 138.529 251.096 137.798 251.471 137.146C251.847 136.495 252.37 135.941 253 135.53V135.53Z" fill="#455A64"/>
<path d="M261.89 143.36L259.77 141.36L262.03 136.57C262.106 136.412 262.115 136.231 262.057 136.066C261.999 135.901 261.878 135.766 261.72 135.69C261.561 135.618 261.379 135.611 261.215 135.671C261.05 135.731 260.916 135.852 260.84 136.01L258.77 140.39L257 138.62C256.871 138.516 256.708 138.463 256.543 138.474C256.378 138.484 256.222 138.556 256.108 138.676C255.993 138.796 255.928 138.954 255.924 139.12C255.921 139.285 255.98 139.446 256.09 139.57L258.21 141.57L255.95 146.36C255.875 146.518 255.865 146.699 255.923 146.864C255.981 147.029 256.102 147.164 256.26 147.24C256.351 147.28 256.45 147.3 256.55 147.3C256.674 147.3 256.796 147.264 256.901 147.196C257.005 147.129 257.088 147.033 257.14 146.92L259.21 142.54L261.02 144.27C261.078 144.331 261.148 144.379 261.225 144.412C261.303 144.445 261.386 144.461 261.47 144.46C261.56 144.461 261.65 144.443 261.733 144.406C261.815 144.37 261.889 144.317 261.95 144.25C262.055 144.122 262.108 143.959 262.097 143.793C262.086 143.628 262.012 143.473 261.89 143.36V143.36Z" fill="#FF5F6D"/>
<path d="M311.78 106.29L331.78 94.7199C334.17 93.3399 336.11 94.3199 336.11 96.9099C336.003 98.3641 335.556 99.7727 334.803 101.022C334.051 102.271 333.015 103.325 331.78 104.1L311.78 115.67C309.38 117.05 307.45 116.07 307.45 113.48C307.555 112.025 308.001 110.616 308.754 109.366C309.506 108.117 310.543 107.063 311.78 106.29V106.29Z" fill="#FF5F6D"/>
<path d="M313.1 107.83C313.113 107.819 313.129 107.813 313.145 107.813C313.161 107.813 313.177 107.819 313.19 107.83C313.206 107.868 313.206 107.911 313.19 107.95V108.49C313.203 108.542 313.203 108.597 313.19 108.65C313.171 108.694 313.14 108.733 313.1 108.76L312.23 109.27V113.37C312.239 113.423 312.239 113.477 312.23 113.53C312.21 113.577 312.175 113.616 312.13 113.64L311.74 113.87C311.74 113.87 311.67 113.87 311.65 113.87C311.63 113.87 311.65 113.81 311.65 113.75V109.66L310.77 110.16C310.764 110.166 310.757 110.171 310.75 110.175C310.742 110.178 310.734 110.18 310.725 110.18C310.717 110.18 310.708 110.178 310.7 110.175C310.693 110.171 310.686 110.166 310.68 110.16C310.667 110.124 310.667 110.085 310.68 110.05V109.51C310.671 109.457 310.671 109.403 310.68 109.35C310.699 109.306 310.73 109.267 310.77 109.24L313.1 107.83Z" fill="white"/>
<path d="M315.9 109.88L316.33 107.49C316.342 107.438 316.359 107.388 316.38 107.34C316.384 107.315 316.394 107.292 316.41 107.273C316.426 107.253 316.447 107.238 316.47 107.23L316.84 107.01C316.853 106.999 316.869 106.993 316.885 106.993C316.901 106.993 316.917 106.999 316.93 107.01C316.946 107.048 316.946 107.091 316.93 107.13V107.19L316.19 111.06C316.195 111.11 316.195 111.16 316.19 111.21C316.182 111.234 316.169 111.257 316.152 111.276C316.135 111.295 316.114 111.31 316.09 111.32L315.72 111.54C315.72 111.54 315.65 111.54 315.63 111.54C315.607 111.51 315.59 111.476 315.58 111.44L315.11 109.72L314.64 111.99C314.628 112.041 314.611 112.091 314.59 112.14C314.574 112.186 314.542 112.225 314.5 112.25L314.13 112.47C314.08 112.47 314.05 112.47 314.03 112.47C314.023 112.437 314.023 112.403 314.03 112.37L313.29 109.37C313.276 109.314 313.276 109.256 313.29 109.2C313.309 109.155 313.34 109.117 313.38 109.09L313.75 108.88C313.803 108.88 313.833 108.88 313.84 108.88C313.861 108.911 313.877 108.945 313.89 108.98L314.32 110.87L314.79 108.46C314.783 108.41 314.783 108.36 314.79 108.31C314.806 108.263 314.838 108.224 314.88 108.2L315.24 107.99C315.24 107.99 315.31 107.99 315.33 107.99C315.356 108.017 315.374 108.052 315.38 108.09L315.9 109.88Z" fill="white"/>
<path d="M317.38 108.65C317.38 108.367 317.41 108.086 317.47 107.81C317.518 107.542 317.595 107.281 317.7 107.03C317.8 106.799 317.928 106.581 318.08 106.38C318.212 106.202 318.379 106.053 318.57 105.94C318.717 105.84 318.893 105.794 319.07 105.81C319.212 105.827 319.343 105.894 319.44 106C319.561 106.132 319.644 106.295 319.68 106.47C319.743 106.691 319.774 106.92 319.77 107.15V107.49C319.783 107.542 319.783 107.597 319.77 107.65C319.748 107.692 319.717 107.73 319.68 107.76L318.05 108.7C318.048 108.796 318.065 108.891 318.1 108.98C318.123 109.039 318.165 109.088 318.22 109.12C318.279 109.138 318.341 109.138 318.4 109.12C318.474 109.107 318.546 109.08 318.61 109.04C318.706 108.99 318.793 108.926 318.87 108.85C318.93 108.78 318.98 108.7 319.03 108.63C319.053 108.585 319.08 108.541 319.11 108.5C319.139 108.468 319.172 108.441 319.21 108.42L319.59 108.2C319.605 108.19 319.622 108.185 319.64 108.185C319.658 108.185 319.675 108.19 319.69 108.2C319.706 108.238 319.706 108.281 319.69 108.32C319.674 108.429 319.648 108.536 319.61 108.64C319.551 108.791 319.48 108.938 319.4 109.08C319.3 109.248 319.182 109.406 319.05 109.55C318.908 109.701 318.747 109.832 318.57 109.94C318.424 110.033 318.253 110.081 318.08 110.08C317.933 110.063 317.797 109.992 317.7 109.88C317.586 109.733 317.508 109.562 317.47 109.38C317.41 109.141 317.38 108.896 317.38 108.65ZM318.57 106.84C318.479 106.892 318.398 106.96 318.33 107.04C318.267 107.12 318.214 107.208 318.17 107.3C318.12 107.388 318.083 107.482 318.06 107.58C318.06 107.68 318.06 107.77 318.01 107.85L319.11 107.21C319.115 107.14 319.115 107.07 319.11 107C319.095 106.937 319.064 106.878 319.02 106.83C318.978 106.784 318.921 106.756 318.86 106.75C318.757 106.753 318.657 106.784 318.57 106.84V106.84Z" fill="white"/>
<path d="M320.29 107C320.29 106.718 320.32 106.436 320.38 106.16C320.428 105.892 320.505 105.631 320.61 105.38C320.71 105.149 320.838 104.931 320.99 104.73C321.123 104.552 321.289 104.403 321.48 104.29C321.627 104.19 321.803 104.144 321.98 104.16C322.122 104.177 322.253 104.245 322.35 104.35C322.471 104.482 322.554 104.645 322.59 104.82C322.653 105.041 322.684 105.27 322.68 105.5V105.84C322.693 105.893 322.693 105.947 322.68 106C322.658 106.042 322.627 106.08 322.59 106.11L320.96 107.05C320.958 107.146 320.975 107.241 321.01 107.33C321.036 107.387 321.078 107.436 321.13 107.47C321.189 107.488 321.251 107.488 321.31 107.47C321.384 107.457 321.456 107.43 321.52 107.39C321.616 107.34 321.703 107.276 321.78 107.2C321.84 107.13 321.89 107.05 321.94 106.98C321.964 106.935 321.99 106.891 322.02 106.85C322.049 106.818 322.083 106.791 322.12 106.77L322.5 106.55C322.515 106.54 322.532 106.535 322.55 106.535C322.568 106.535 322.585 106.54 322.6 106.55C322.608 106.569 322.613 106.589 322.613 106.61C322.613 106.631 322.608 106.651 322.6 106.67C322.584 106.779 322.558 106.886 322.52 106.99C322.461 107.141 322.39 107.288 322.31 107.43C322.21 107.598 322.092 107.756 321.96 107.9C321.818 108.051 321.657 108.182 321.48 108.29C321.334 108.383 321.163 108.431 320.99 108.43C320.843 108.413 320.707 108.342 320.61 108.23C320.496 108.083 320.418 107.912 320.38 107.73C320.32 107.491 320.29 107.246 320.29 107V107ZM321.48 105.19C321.389 105.242 321.308 105.31 321.24 105.39C321.178 105.473 321.121 105.56 321.07 105.65C321.028 105.74 320.994 105.834 320.97 105.93C320.97 106.03 320.97 106.12 320.92 106.2L322.02 105.56C322.025 105.49 322.025 105.42 322.02 105.35C322.005 105.287 321.974 105.228 321.93 105.18C321.888 105.134 321.831 105.106 321.77 105.1C321.67 105.094 321.57 105.115 321.48 105.16V105.19Z" fill="white"/>
<path d="M324.18 105.26C324.171 105.373 324.199 105.485 324.26 105.58C324.31 105.65 324.41 105.58 324.56 105.58L324.85 105.41C324.864 105.399 324.882 105.392 324.9 105.392C324.918 105.392 324.936 105.399 324.95 105.41C324.963 105.445 324.963 105.484 324.95 105.52V106.02C324.959 106.073 324.959 106.127 324.95 106.18C324.93 106.23 324.895 106.272 324.85 106.3L324.49 106.5C324.19 106.68 323.96 106.7 323.79 106.57C323.62 106.44 323.55 106.14 323.55 105.67V104L323.23 104.18C323.215 104.19 323.198 104.195 323.18 104.195C323.162 104.195 323.145 104.19 323.13 104.18C323.118 104.141 323.118 104.099 323.13 104.06V103.56C323.121 103.507 323.121 103.453 323.13 103.4C323.152 103.355 323.187 103.317 323.23 103.29L323.55 103.1V101.88C323.537 101.827 323.537 101.772 323.55 101.72C323.556 101.696 323.567 101.674 323.583 101.655C323.599 101.636 323.618 101.621 323.64 101.61L324.01 101.39C324.016 101.384 324.023 101.378 324.03 101.375C324.038 101.371 324.047 101.37 324.055 101.37C324.064 101.37 324.072 101.371 324.08 101.375C324.088 101.378 324.094 101.384 324.1 101.39C324.1 101.39 324.1 101.45 324.1 101.51V102.73L324.73 102.37C324.743 102.359 324.759 102.354 324.775 102.354C324.792 102.354 324.807 102.359 324.82 102.37C324.832 102.409 324.832 102.451 324.82 102.49V102.99C324.829 103.043 324.829 103.097 324.82 103.15C324.798 103.192 324.767 103.23 324.73 103.26L324.1 103.62L324.18 105.26Z" fill="white"/>
<path d="M328.33 99C328.38 99 328.42 99 328.44 99C328.475 99.0437 328.499 99.0951 328.51 99.15L329.7 103.15C329.709 103.206 329.709 103.264 329.7 103.32C329.678 103.362 329.647 103.4 329.61 103.43L329.26 103.63C329.19 103.63 329.15 103.63 329.12 103.63C329.111 103.597 329.111 103.563 329.12 103.53L328.91 102.82L327.37 103.71L327.16 104.71C327.151 104.765 327.134 104.819 327.11 104.87C327.077 104.929 327.029 104.977 326.97 105.01L326.62 105.21C326.614 105.216 326.607 105.221 326.6 105.225C326.592 105.229 326.584 105.23 326.575 105.23C326.566 105.23 326.558 105.229 326.55 105.225C326.543 105.221 326.536 105.216 326.53 105.21C326.515 105.171 326.515 105.129 326.53 105.09C326.53 105.09 326.53 105.09 326.53 105.09L327.72 99.68C327.731 99.6002 327.755 99.5226 327.79 99.45C327.809 99.3918 327.848 99.3423 327.9 99.31L328.33 99ZM328.59 102.12L328.06 100.3L327.53 102.74L328.59 102.12Z" fill="white"/>
<path d="M330.86 102.61C330.874 102.662 330.874 102.717 330.86 102.77C330.84 102.817 330.809 102.858 330.77 102.89L330.4 103.1C330.4 103.1 330.33 103.1 330.31 103.1C330.29 103.1 330.31 103.04 330.31 102.98V98.0799C330.296 98.0241 330.296 97.9657 330.31 97.9099C330.326 97.8634 330.358 97.8243 330.4 97.7999L330.77 97.5899C330.783 97.5793 330.799 97.5735 330.815 97.5735C330.832 97.5735 330.847 97.5793 330.86 97.5899C330.876 97.6284 330.876 97.6714 330.86 97.7099V102.61Z" fill="white"/>
<path d="M332.28 101.79C332.294 101.842 332.294 101.897 332.28 101.95C332.274 101.974 332.263 101.996 332.247 102.015C332.232 102.034 332.212 102.049 332.19 102.06L331.82 102.28C331.82 102.28 331.75 102.28 331.73 102.28C331.722 102.261 331.718 102.24 331.718 102.22C331.718 102.199 331.722 102.179 331.73 102.16V97.2398C331.717 97.1872 331.717 97.1324 331.73 97.0798C331.746 97.0333 331.778 96.9942 331.82 96.9698L332.19 96.7498C332.203 96.7392 332.219 96.7334 332.235 96.7334C332.252 96.7334 332.267 96.7392 332.28 96.7498C332.296 96.7883 332.296 96.8313 332.28 96.8698V101.79Z" fill="white"/>
<path opacity="0.9" d="M259 164.9C263.49 162.31 267.13 164.41 267.12 169.59C267.11 174.77 263.49 181.07 259 183.67C254.51 186.27 250.88 184.16 250.88 178.98C250.88 173.8 254.49 167.5 259 164.9Z" fill="#FF5F6D"/>
<path d="M258.88 167.42C260.08 166.73 261.06 167.29 261.06 168.68C261.019 169.436 260.8 170.171 260.421 170.826C260.042 171.481 259.514 172.037 258.88 172.45C257.68 173.14 256.7 172.58 256.7 171.19C256.741 170.434 256.96 169.699 257.339 169.044C257.718 168.389 258.246 167.833 258.88 167.42V167.42Z" fill="white"/>
<path d="M263.17 175.37C263.17 173.09 261.57 172.08 259.59 173.22L258.36 173.93C257.318 174.609 256.45 175.524 255.828 176.602C255.206 177.679 254.847 178.888 254.78 180.13V180.74C254.78 180.74 255.62 182.48 258.97 180.5C260.856 179.493 262.338 177.869 263.17 175.9V175.37Z" fill="white"/>
<path d="M273.32 156.62L338.05 119.25C339.24 118.56 340.21 119.05 340.21 120.34C340.158 121.067 339.935 121.772 339.559 122.398C339.184 123.023 338.667 123.551 338.05 123.94L273.32 161.31C272.13 162 271.16 161.51 271.16 160.21C271.214 159.484 271.438 158.781 271.813 158.158C272.188 157.534 272.704 157.008 273.32 156.62Z" fill="#F0F0F0"/>
<path d="M273.32 166L338.05 128.63C339.24 127.94 340.21 128.43 340.21 129.73C340.156 130.456 339.932 131.158 339.557 131.782C339.182 132.406 338.666 132.932 338.05 133.32L273.32 170.69C272.13 171.38 271.16 170.89 271.16 169.6C271.213 168.873 271.435 168.168 271.811 167.542C272.186 166.917 272.703 166.389 273.32 166V166Z" fill="#F0F0F0"/>
<path d="M273.32 175.33L338.05 138C339.24 137.31 340.21 137.8 340.21 139.09C340.158 139.817 339.935 140.522 339.559 141.148C339.184 141.773 338.667 142.301 338.05 142.69L273.32 180C272.13 180.69 271.16 180.2 271.16 178.9C271.217 178.178 271.442 177.479 271.817 176.859C272.192 176.239 272.707 175.716 273.32 175.33V175.33Z" fill="#F0F0F0"/>
<path d="M273.32 184.68L338.05 147.31C339.24 146.62 340.21 147.11 340.21 148.41C340.156 149.136 339.932 149.838 339.557 150.462C339.182 151.085 338.666 151.612 338.05 152L273.32 189.37C272.13 190.06 271.16 189.57 271.16 188.27C271.214 187.544 271.438 186.841 271.813 186.218C272.188 185.594 272.704 185.068 273.32 184.68Z" fill="#F0F0F0"/>
<path opacity="0.9" d="M259 216.5C263.49 213.91 267.13 216 267.12 221.19C267.11 226.38 263.49 232.67 259 235.26C254.51 237.85 250.88 235.75 250.88 230.57C250.88 225.39 254.49 219.09 259 216.5Z" fill="#FF5F6D"/>
<path d="M258.88 219C260.08 218.31 261.06 218.87 261.06 220.26C261.019 221.016 260.8 221.751 260.421 222.406C260.042 223.061 259.514 223.617 258.88 224.03C257.68 224.73 256.7 224.16 256.7 222.78C256.742 222.023 256.961 221.287 257.34 220.63C257.719 219.974 258.246 219.415 258.88 219V219Z" fill="white"/>
<path d="M263.17 227C263.17 224.71 261.57 223.7 259.59 224.84L258.36 225.56C257.318 226.237 256.451 227.15 255.829 228.226C255.206 229.302 254.847 230.509 254.78 231.75V232.37C254.78 232.37 255.62 234.1 258.97 232.12C260.854 231.116 262.336 229.495 263.17 227.53V227Z" fill="white"/>
<path d="M273.32 208.21L338.05 170.84C339.24 170.15 340.21 170.64 340.21 171.94C340.156 172.666 339.932 173.368 339.557 173.992C339.182 174.615 338.666 175.142 338.05 175.53L273.32 212.9C272.13 213.59 271.16 213.1 271.16 211.81C271.213 211.082 271.435 210.378 271.811 209.752C272.186 209.127 272.703 208.599 273.32 208.21Z" fill="#F0F0F0"/>
<path d="M273.32 217.56L338.05 180.19C339.24 179.5 340.21 179.99 340.21 181.29C340.158 182.017 339.935 182.722 339.559 183.348C339.184 183.973 338.667 184.501 338.05 184.89L273.32 222.25C272.13 222.94 271.16 222.45 271.16 221.16C271.213 220.433 271.435 219.728 271.811 219.102C272.186 218.477 272.703 217.949 273.32 217.56V217.56Z" fill="#F0F0F0"/>
<path d="M273.32 226.92L338.05 189.55C339.24 188.86 340.21 189.35 340.21 190.64C340.158 191.367 339.935 192.072 339.559 192.698C339.184 193.323 338.667 193.851 338.05 194.24L273.32 231.61C272.13 232.3 271.16 231.81 271.16 230.51C271.214 229.784 271.438 229.081 271.813 228.458C272.188 227.834 272.704 227.308 273.32 226.92Z" fill="#F0F0F0"/>
<path d="M273.32 236.27L338.05 198.9C339.24 198.21 340.21 198.7 340.21 200C340.156 200.726 339.932 201.428 339.557 202.052C339.182 202.676 338.666 203.202 338.05 203.59L273.32 241C272.13 241.69 271.16 241.2 271.16 239.91C271.206 239.176 271.426 238.463 271.802 237.83C272.177 237.197 272.698 236.663 273.32 236.27V236.27Z" fill="#F0F0F0"/>
<path opacity="0.9" d="M259 268.11C263.49 265.52 267.13 267.62 267.12 272.8C267.11 277.98 263.49 284.28 259 286.87C254.51 289.46 250.88 287.36 250.88 282.18C250.88 277 254.49 270.7 259 268.11Z" fill="#FF5F6D"/>
<path d="M258.88 270.62C260.08 269.93 261.06 270.49 261.06 271.88C261.019 272.635 260.8 273.371 260.421 274.026C260.042 274.681 259.514 275.237 258.88 275.65C257.68 276.35 256.7 275.79 256.7 274.4C256.742 273.643 256.961 272.907 257.34 272.25C257.719 271.594 258.246 271.035 258.88 270.62V270.62Z" fill="white"/>
<path d="M263.17 278.58C263.17 276.3 261.57 275.28 259.59 276.42L258.36 277.14C257.318 277.817 256.451 278.73 255.829 279.806C255.206 280.882 254.847 282.089 254.78 283.33V284C254.78 284 255.62 285.73 258.97 283.75C260.854 282.745 262.336 281.125 263.17 279.16V278.58Z" fill="white"/>
<path d="M273.32 259.82L338.05 222.45C339.24 221.76 340.21 222.25 340.21 223.55C340.156 224.276 339.932 224.979 339.557 225.602C339.182 226.226 338.666 226.752 338.05 227.14L273.32 264.51C272.13 265.2 271.16 264.71 271.16 263.42C271.213 262.693 271.435 261.988 271.811 261.362C272.186 260.737 272.703 260.209 273.32 259.82V259.82Z" fill="#F0F0F0"/>
<path d="M273.32 269.18L338.05 231.81C339.24 231.12 340.21 231.61 340.21 232.9C340.158 233.627 339.935 234.332 339.559 234.958C339.184 235.583 338.667 236.111 338.05 236.5L273.32 273.87C272.13 274.56 271.16 274.07 271.16 272.77C271.214 272.044 271.438 271.341 271.813 270.718C272.188 270.094 272.704 269.568 273.32 269.18Z" fill="#F0F0F0"/>
<path opacity="0.9" d="M259 189.35V210.81C259 211.36 259.39 211.58 259.87 211.31C260.12 211.143 260.327 210.921 260.476 210.661C260.626 210.401 260.712 210.109 260.73 209.81V188.35C260.73 187.8 260.34 187.58 259.87 187.85C259.617 188.014 259.407 188.235 259.256 188.496C259.105 188.757 259.017 189.049 259 189.35V189.35Z" fill="#455A64"/>
<path opacity="0.9" d="M259 241V262.45C259 263 259.39 263.23 259.87 262.95C260.12 262.783 260.327 262.561 260.476 262.301C260.626 262.041 260.712 261.749 260.73 261.45V240C260.73 239.44 260.34 239.22 259.87 239.5C259.616 239.662 259.404 239.883 259.253 240.144C259.101 240.405 259.015 240.699 259 241V241Z" fill="#455A64"/>
<path d="M253 318.62L342.1 267.18C343.29 266.49 344.26 267.05 344.26 268.43V282.19C344.219 282.94 344.002 283.671 343.627 284.322C343.252 284.974 342.729 285.528 342.1 285.94L253 337.38C251.81 338.07 250.84 337.51 250.84 336.13V322.37C250.881 321.619 251.098 320.889 251.473 320.238C251.849 319.586 252.372 319.032 253 318.62V318.62Z" fill="#455A64"/>
<path d="M259 329.75C258.912 329.752 258.825 329.727 258.75 329.68C258.674 329.636 258.612 329.574 258.568 329.498C258.524 329.423 258.501 329.337 258.5 329.25V319.87C258.501 319.781 258.524 319.694 258.568 319.617C258.612 319.54 258.674 319.476 258.75 319.43L266.88 314.75C266.956 314.706 267.042 314.683 267.129 314.683C267.217 314.683 267.303 314.706 267.379 314.749C267.455 314.793 267.518 314.855 267.562 314.931C267.606 315.006 267.629 315.092 267.63 315.18V324.56C267.629 324.647 267.606 324.733 267.562 324.808C267.518 324.884 267.456 324.946 267.38 324.99L259.25 329.68C259.175 329.727 259.088 329.752 259 329.75V329.75ZM259.5 320.16V328.38L266.63 324.27V316L259.5 320.16Z" fill="#FF5F6D"/>
<path d="M259 326.37C258.909 326.367 258.82 326.343 258.74 326.3C258.626 326.231 258.543 326.121 258.509 325.992C258.476 325.863 258.494 325.726 258.56 325.61L261.06 321.38C261.1 321.315 261.154 321.26 261.218 321.219C261.282 321.177 261.355 321.15 261.43 321.14C261.506 321.129 261.584 321.137 261.656 321.161C261.729 321.185 261.796 321.226 261.85 321.28L265.74 325.18C265.832 325.273 265.883 325.399 265.883 325.53C265.883 325.661 265.832 325.786 265.74 325.88C265.694 325.927 265.638 325.964 265.577 325.989C265.516 326.015 265.451 326.028 265.385 326.028C265.319 326.028 265.254 326.015 265.193 325.989C265.132 325.964 265.077 325.927 265.03 325.88L261.6 322.45L259.43 326.12C259.386 326.195 259.323 326.257 259.248 326.301C259.172 326.345 259.087 326.368 259 326.37V326.37Z" fill="#FF5F6D"/>
<path d="M263.17 323.78C263.108 323.794 263.043 323.794 262.98 323.78C262.919 323.756 262.863 323.72 262.817 323.674C262.77 323.628 262.733 323.573 262.707 323.512C262.682 323.451 262.669 323.386 262.67 323.321C262.67 323.255 262.684 323.19 262.71 323.13L264.61 318.56C264.645 318.479 264.7 318.409 264.77 318.356C264.84 318.304 264.923 318.27 265.01 318.26C265.096 318.247 265.184 318.256 265.264 318.288C265.345 318.319 265.416 318.372 265.47 318.44L267.47 321.03C267.551 321.136 267.587 321.271 267.57 321.403C267.554 321.536 267.485 321.657 267.38 321.74C267.274 321.818 267.142 321.852 267.012 321.836C266.882 321.819 266.763 321.752 266.68 321.65L265.19 319.73L263.61 323.52C263.568 323.6 263.504 323.666 263.427 323.712C263.349 323.758 263.26 323.781 263.17 323.78V323.78Z" fill="#FF5F6D"/>
<path d="M291.47 311C291.337 311 291.21 310.947 291.116 310.853C291.023 310.76 290.97 310.632 290.97 310.5V301.12C290.97 300.987 291.023 300.86 291.116 300.766C291.21 300.673 291.337 300.62 291.47 300.62C291.603 300.62 291.73 300.673 291.824 300.766C291.917 300.86 291.97 300.987 291.97 301.12V310.5C291.967 310.632 291.914 310.757 291.821 310.851C291.727 310.944 291.602 310.997 291.47 311V311Z" fill="#FF5F6D"/>
<path d="M291.47 307.47C291.381 307.47 291.294 307.447 291.217 307.403C291.14 307.359 291.075 307.296 291.03 307.22C290.965 307.104 290.949 306.968 290.985 306.841C291.02 306.713 291.105 306.605 291.22 306.54L299.09 302.02V300.8L291.72 305.06C291.663 305.093 291.6 305.114 291.535 305.122C291.469 305.131 291.403 305.126 291.339 305.109C291.276 305.092 291.216 305.062 291.164 305.022C291.112 304.982 291.068 304.932 291.035 304.875C291.002 304.818 290.981 304.755 290.972 304.689C290.964 304.624 290.968 304.558 290.986 304.494C291.003 304.43 291.032 304.371 291.073 304.319C291.113 304.266 291.163 304.223 291.22 304.19L299.34 299.5C299.416 299.456 299.502 299.433 299.589 299.433C299.677 299.433 299.763 299.456 299.839 299.499C299.915 299.543 299.978 299.605 300.022 299.681C300.066 299.756 300.09 299.842 300.09 299.93V302.31C300.09 302.397 300.066 302.483 300.022 302.558C299.978 302.634 299.916 302.696 299.84 302.74L291.72 307.4C291.645 307.446 291.558 307.47 291.47 307.47V307.47Z" fill="#FF5F6D"/>
<path d="M291.47 305.12C291.382 305.122 291.295 305.101 291.218 305.059C291.14 305.017 291.076 304.955 291.03 304.88C290.967 304.762 290.952 304.625 290.987 304.497C291.023 304.369 291.106 304.259 291.22 304.19L296.3 301.24V300L291.72 302.68C291.663 302.715 291.601 302.738 291.535 302.748C291.469 302.759 291.402 302.756 291.338 302.74C291.273 302.724 291.213 302.695 291.16 302.656C291.106 302.616 291.061 302.566 291.027 302.509C290.994 302.452 290.971 302.389 290.962 302.323C290.953 302.257 290.957 302.191 290.974 302.126C290.991 302.062 291.021 302.002 291.061 301.949C291.102 301.897 291.152 301.853 291.21 301.82L296.55 298.69C296.626 298.646 296.712 298.623 296.8 298.623C296.888 298.623 296.974 298.646 297.05 298.69C297.126 298.736 297.188 298.8 297.232 298.877C297.276 298.954 297.299 299.041 297.3 299.13V301.5C297.299 301.587 297.276 301.673 297.232 301.748C297.188 301.824 297.126 301.886 297.05 301.93L291.72 305.03C291.645 305.079 291.559 305.11 291.47 305.12V305.12Z" fill="#FF5F6D"/>
<path d="M291.47 309.87C291.382 309.872 291.295 309.851 291.218 309.809C291.141 309.767 291.076 309.705 291.03 309.63C290.966 309.514 290.95 309.377 290.983 309.249C291.017 309.121 291.098 309.01 291.21 308.94L294.69 306.94V305.72L291.69 307.43C291.633 307.471 291.569 307.5 291.5 307.514C291.432 307.529 291.361 307.529 291.293 307.515C291.224 307.5 291.16 307.472 291.103 307.431C291.046 307.39 290.999 307.337 290.964 307.277C290.929 307.216 290.906 307.149 290.899 307.08C290.891 307.01 290.898 306.94 290.92 306.873C290.941 306.806 290.976 306.745 291.023 306.693C291.069 306.641 291.126 306.599 291.19 306.57L294.91 304.42C294.987 304.376 295.073 304.353 295.162 304.353C295.25 304.353 295.337 304.377 295.413 304.422C295.489 304.466 295.552 304.53 295.596 304.607C295.639 304.684 295.661 304.772 295.66 304.86V307.23C295.661 307.316 295.639 307.401 295.597 307.477C295.555 307.552 295.494 307.615 295.42 307.66L291.69 309.84C291.619 309.864 291.545 309.874 291.47 309.87Z" fill="#FF5F6D"/>
<path d="M309.29 296.44C309.118 296.439 308.949 296.395 308.8 296.31C308.595 296.167 308.432 295.972 308.327 295.745C308.221 295.519 308.178 295.269 308.2 295.02C308.206 294.512 308.334 294.013 308.572 293.564C308.811 293.115 309.153 292.73 309.57 292.44C309.738 292.326 309.934 292.26 310.137 292.249C310.339 292.238 310.541 292.284 310.72 292.38C310.923 292.522 311.084 292.715 311.188 292.94C311.291 293.165 311.334 293.413 311.31 293.66C311.304 294.168 311.177 294.668 310.939 295.116C310.7 295.565 310.358 295.951 309.94 296.24C309.745 296.363 309.521 296.433 309.29 296.44ZM310.23 293C310.127 293.005 310.028 293.036 309.94 293.09C309.638 293.315 309.391 293.605 309.217 293.939C309.044 294.274 308.949 294.643 308.94 295.02C308.94 295.4 309.05 295.59 309.16 295.66C309.227 295.682 309.299 295.687 309.369 295.675C309.439 295.663 309.504 295.634 309.56 295.59C309.864 295.367 310.113 295.077 310.287 294.742C310.46 294.407 310.554 294.037 310.56 293.66C310.56 293.29 310.45 293.09 310.34 293.03C310.307 293.009 310.269 292.999 310.23 293V293Z" fill="#FF5F6D"/>
<path d="M309.76 300C309.693 300.004 309.627 299.986 309.57 299.95L309.47 299.89C308.67 299.44 306.54 298.22 306.54 296.01C306.549 294.882 306.826 293.773 307.347 292.773C307.869 291.774 308.62 290.912 309.54 290.26C309.864 290.038 310.242 289.907 310.635 289.881C311.027 289.854 311.419 289.933 311.77 290.11C312.182 290.398 312.512 290.788 312.728 291.242C312.943 291.696 313.037 292.199 313 292.7C313 294.7 311.18 297.91 310.31 299.44L310.11 299.78C310.062 299.865 309.983 299.93 309.89 299.96L309.76 300ZM310.88 290.62C310.547 290.637 310.224 290.736 309.94 290.91C309.132 291.495 308.471 292.261 308.011 293.146C307.551 294.032 307.304 295.012 307.29 296.01C307.29 297.63 308.78 298.62 309.62 299.11C310.4 297.75 312.22 294.56 312.22 292.74C312.271 292.367 312.226 291.987 312.087 291.636C311.949 291.286 311.723 290.977 311.43 290.74C311.262 290.644 311.073 290.593 310.88 290.59V290.62Z" fill="#FF5F6D"/>
<path opacity="0.5" d="M332.09 277.65C334.33 276.36 336.15 277.41 336.15 280C336.067 281.403 335.656 282.766 334.951 283.982C334.246 285.198 333.266 286.231 332.09 287C329.84 288.29 328.02 287.24 328.02 284.65C328.104 283.246 328.517 281.882 329.223 280.666C329.93 279.451 330.912 278.418 332.09 277.65V277.65Z" fill="#FF5F6D"/>
<path d="M333.85 280.65L332.52 281.42V279.37C332.52 279 332.33 278.82 332.09 278.95C331.951 279.061 331.839 279.203 331.762 279.364C331.686 279.525 331.648 279.702 331.65 279.88V281.93L330.32 282.7C330.182 282.809 330.071 282.949 329.996 283.109C329.921 283.269 329.885 283.444 329.89 283.62C329.89 283.99 330.08 284.17 330.32 284.04L331.65 283.27V285.32C331.65 285.69 331.85 285.87 332.09 285.74C332.228 285.628 332.338 285.486 332.412 285.324C332.487 285.163 332.524 284.987 332.52 284.81V282.76L333.85 281.99C333.99 281.881 334.102 281.742 334.179 281.582C334.255 281.422 334.293 281.247 334.29 281.07C334.29 280.7 334.09 280.52 333.85 280.65Z" fill="#455A64"/>
<path d="M275.22 320.37C275.132 320.372 275.045 320.347 274.97 320.3C274.893 320.258 274.829 320.196 274.785 320.12C274.741 320.044 274.718 319.958 274.72 319.87V310.49C274.721 310.401 274.744 310.315 274.788 310.238C274.832 310.161 274.894 310.096 274.97 310.05L283.09 305.36C283.167 305.316 283.253 305.293 283.342 305.293C283.43 305.293 283.517 305.317 283.593 305.362C283.669 305.406 283.732 305.471 283.776 305.548C283.819 305.625 283.841 305.712 283.84 305.8V315.18C283.842 315.268 283.819 315.354 283.775 315.43C283.731 315.506 283.667 315.568 283.59 315.61L275.47 320.3C275.395 320.346 275.308 320.371 275.22 320.37V320.37ZM275.72 310.77V319L282.84 314.89V306.66L275.72 310.77Z" fill="#FF5F6D"/>
<path d="M279.31 314.77C279.31 314.77 279.26 314.77 279.25 314.77C279.245 314.757 279.242 314.744 279.242 314.73C279.242 314.716 279.245 314.703 279.25 314.69V311.4C279.241 311.36 279.241 311.319 279.25 311.28C279.254 311.265 279.262 311.25 279.272 311.238C279.283 311.226 279.296 311.217 279.31 311.21L279.58 311.05H279.64C279.64 311.05 279.64 311.05 279.64 311.13V314.41C279.65 314.446 279.65 314.484 279.64 314.52C279.628 314.552 279.607 314.579 279.58 314.6L279.31 314.77Z" fill="#FF5F6D"/>
</svg>
