<svg width="243" height="242" viewBox="0 0 243 242" fill="none" xmlns="http://www.w3.org/2000/svg">
<path d="M96.4218 107.765V70.4518H123.344C138.061 70.4518 146.667 77.3639 146.667 89.1614C146.667 101.292 137.531 107.765 119.987 107.765H96.4218ZM96.4218 164.665H125.129C143.037 164.665 152.505 157.405 152.505 143.838C152.505 130.453 142.674 123.45 123.979 123.45H96.4218V164.665V164.665Z" fill="url(#paint0_linear_104:68)"/>
<path d="M60.5283 0C44.4827 0 29.0943 6.37409 17.7484 17.72C6.40241 29.066 0.0283203 44.4544 0.0283203 60.5V181.5C0.0283203 197.546 6.40241 212.934 17.7484 224.28C29.0943 235.626 44.4827 242 60.5283 242H181.528C197.574 242 212.962 235.626 224.308 224.28C235.654 212.934 242.028 197.546 242.028 181.5V60.5C242.028 44.4544 235.654 29.066 224.308 17.72C212.962 6.37409 197.574 0 181.528 0L60.5283 0V0ZM76.5608 181.5V53.6181H127.971C151.974 53.6181 166.434 65.8543 166.434 85.5319C166.434 98.9024 156.602 110.866 144.003 112.999V114.511C161.291 116.281 172.801 128.593 172.801 145.261C172.801 167.767 156.406 181.5 129.12 181.5H76.5608V181.5Z" fill="url(#paint1_linear_104:68)"/>
<defs>
<linearGradient id="paint0_linear_104:68" x1="124.3" y1="7.70009" x2="124.3" y2="226.6" gradientUnits="userSpaceOnUse">
<stop stop-color="#FF5F6D"/>
<stop offset="1" stop-color="#FF8D73"/>
</linearGradient>
<linearGradient id="paint1_linear_104:68" x1="121.028" y1="0" x2="121.028" y2="242" gradientUnits="userSpaceOnUse">
<stop stop-color="#FF5F6D"/>
<stop offset="1" stop-color="#FF8D73"/>
</linearGradient>
</defs>
</svg>
