<svg width="257" height="257" viewBox="0 0 257 257" fill="none" xmlns="http://www.w3.org/2000/svg">
<path d="M0 0V257H257V0H0ZM137.679 199.634C137.679 224.651 122.901 236.847 101.509 236.847C82.1884 236.847 70.9733 226.843 65.2826 214.767L84.9477 202.864C88.7396 209.593 91.6194 215.283 99.8973 215.283C106.781 215.283 112.438 212.18 112.438 200.104V119.321H137.679V199.634ZM194.672 236.274C172.247 236.274 157.757 226.154 150.683 212.18L170.377 200.781C175.54 209.237 182.281 214.87 194.184 214.87C204.189 214.87 210 210.442 210 203.541C210 195.263 204.017 192.331 192.974 187.478L186.939 184.885C169.511 177.473 157.957 168.157 157.957 148.486C157.957 130.376 171.754 117.147 193.318 117.147C208.675 117.147 219.706 121.92 227.652 135.894L208.813 148.004C204.671 140.587 200.208 137.679 193.289 137.679C186.216 137.679 181.73 142.165 181.73 148.004C181.73 155.25 186.216 158.181 196.565 162.667L202.6 165.254C223.131 174.054 234.69 183.038 234.69 203.208C234.696 224.95 217.618 236.274 194.672 236.274Z" fill="url(#paint0_linear_102:31)"/>
<defs>
<linearGradient id="paint0_linear_102:31" x1="128.5" y1="0" x2="128.5" y2="257" gradientUnits="userSpaceOnUse">
<stop stop-color="#FF5F6D"/>
<stop offset="1" stop-color="#FFB773"/>
</linearGradient>
</defs>
</svg>
