<svg width="257" height="248" viewBox="0 0 257 248" fill="none" xmlns="http://www.w3.org/2000/svg">
<path d="M16.3184 58.1374C-6.42226 90.8422 -3.60981 133.383 13.7792 168.225C14.181 169.06 14.6229 169.88 15.0488 170.7L15.8524 172.267C16.0131 172.572 16.1899 172.869 16.3586 173.167C16.6559 173.729 16.9613 174.243 17.2666 174.79L18.93 177.634L19.8782 179.193L21.8067 182.207L22.6263 183.476C23.5344 184.826 24.4585 186.176 25.4147 187.494L25.9611 188.233C26.7894 189.372 27.636 190.497 28.5004 191.608L29.4646 192.83L31.811 195.723L32.711 196.799C33.7797 198.061 34.8806 199.314 35.9815 200.536C36.094 200.656 36.1422 200.697 36.1743 200.745C37.266 201.929 38.375 203.097 39.5011 204.248L40.5698 205.325L43.2215 207.929L44.3063 208.973C45.4997 210.099 46.7133 211.202 47.9464 212.284L51.9321 215.659L53.2981 216.752L56.0543 218.905L57.5249 220.03L60.6186 222.248L62.065 223.268C63.0533 223.951 64.0578 224.602 65.0703 225.253L66.372 226.121C67.923 227.106 69.4902 228.065 71.0728 228.998L72.3746 229.801L75.9103 231.778C76.5531 232.124 77.212 232.453 77.8629 232.783L80.3861 234.092L80.9727 234.374L82.0173 234.872L86.019 236.72L86.8627 237.098C88.4075 237.771 89.9639 238.416 91.5314 239.034L92.6564 239.484L97.0599 241.115L97.6224 241.308C99.2483 241.868 100.882 242.404 102.524 242.915L103.713 243.269C105.32 243.775 107.056 244.394 108.776 244.699C218.815 264.764 250.764 178.567 250.764 178.567C223.926 213.537 176.275 222.762 131.034 212.493C129.323 212.107 127.659 211.577 125.996 211.079L124.742 210.701C123.116 210.201 121.498 209.673 119.889 209.118L119.222 208.877C117.79 208.368 116.365 207.841 114.947 207.294L113.742 206.812C112.189 206.201 110.648 205.558 109.121 204.883L108.197 204.481L104.3 202.665L103.175 202.127C102.162 201.645 101.166 201.106 100.162 200.52L98.1527 199.475C96.9313 198.832 95.7421 198.141 94.5367 197.45L93.3153 196.767C91.7333 195.833 90.1662 194.874 88.6145 193.89C88.1886 193.617 87.7708 193.328 87.3449 193.047L84.0021 190.821C83.6324 190.58 83.1985 190.307 82.9253 190.065L79.7593 187.775L78.3531 186.715L75.5004 184.481L74.2308 183.46L70.6791 180.463C70.5499 180.35 70.4159 180.243 70.2773 180.142L66.5408 176.742L65.4961 175.73L62.8283 173.078L61.7837 172.034C60.6587 170.885 59.5659 169.727 58.5695 168.546C58.5132 168.49 58.457 168.434 58.4088 168.369C57.271 167.121 56.1566 165.851 55.066 164.561L54.2624 163.516L51.8517 160.543L51.0482 159.442L48.2679 155.746C23.0522 121.578 14.0363 74.3452 34.077 35.6137L16.3184 58.1374ZM86.9511 30.5914C70.4943 54.2723 71.3862 86.0369 84.219 111.011C86.3694 115.221 88.8017 119.28 91.4993 123.161C93.9662 126.697 96.6983 130.9 99.9688 133.736C101.158 135.046 102.396 136.307 103.665 137.569L104.629 138.533C105.858 139.731 107.114 140.899 108.398 142.037C108.454 142.077 108.495 142.133 108.559 142.173C110.021 143.459 111.5 144.584 113.002 145.854L113.999 146.633C115.506 147.796 117.044 148.919 118.611 150L118.748 150.097C119.439 150.579 120.146 151.021 120.853 151.487C121.191 151.704 121.512 151.937 121.85 152.146C122.973 152.866 124.112 153.563 125.265 154.235L125.747 154.516L128.768 156.123C129.122 156.324 129.572 156.493 129.845 156.686L131.958 157.779C132.063 157.835 132.175 157.875 132.28 157.923C133.729 158.645 135.198 159.328 136.683 159.972L137.648 160.374C138.844 160.882 140.05 161.37 141.264 161.837L142.806 162.399C143.907 162.799 145.013 163.182 146.125 163.548L147.628 164.03C149.211 164.512 150.842 165.155 152.425 165.42C237.385 179.499 257 113.993 257 113.993C239.322 139.465 205.09 151.599 168.544 142.117C166.929 141.692 165.324 141.229 163.731 140.727C163.249 140.582 162.767 140.422 162.285 140.261L158.91 139.104L157.303 138.541C156.089 138.073 154.884 137.586 153.687 137.079L152.706 136.677C151.211 136.027 149.732 135.341 148.271 134.62L146.045 133.495L144.759 132.836C143.814 132.323 142.876 131.795 141.947 131.253L141.272 130.875C140.122 130.202 138.986 129.505 137.865 128.786C137.519 128.569 137.182 128.328 136.836 128.103L134.626 126.641C133.07 125.562 131.543 124.442 130.046 123.282L129.001 122.478C112.93 109.846 100.33 92.5859 94.3037 73.0273C87.9877 52.7375 89.3457 29.9566 100.29 11.4748L86.9511 30.5914ZM146.35 10.0043C136.659 24.3478 135.695 42.01 142.429 57.7758C149.524 74.5139 164.069 87.636 181.048 93.9359L183.153 94.7394L184.085 95.0287L187.115 95.8323C234.026 104.896 246.739 71.7577 250.138 66.8801C238.992 82.9271 220.261 86.7762 197.28 81.1995C195.464 80.7575 193.471 80.0986 191.719 79.4799C189.471 78.683 187.266 77.7684 185.114 76.7398C181.029 74.7753 177.15 72.4093 173.534 69.6765C152.971 54.0794 140.195 24.2353 153.614 0" fill="url(#paint0_linear_102:39)"/>
<defs>
<linearGradient id="paint0_linear_102:39" x1="128.5" y1="0" x2="128.5" y2="247.728" gradientUnits="userSpaceOnUse">
<stop stop-color="#FF5F6D"/>
<stop offset="1" stop-color="#FF8D73"/>
</linearGradient>
</defs>
</svg>
