<svg width="289" height="257" viewBox="0 0 289 257" fill="none" xmlns="http://www.w3.org/2000/svg">
<path d="M236.889 83.2653C233.82 82.2169 230.728 81.2405 227.615 80.3361C228.131 78.2353 228.607 76.1225 229.044 73.9977C236.066 39.8443 231.475 12.3295 215.802 3.27197C200.797 -5.41943 176.187 3.63811 151.361 25.2946C148.92 27.4314 146.529 29.6323 144.188 31.8972C142.628 30.3926 141.027 28.92 139.387 27.4794C113.366 4.32238 87.2862 -5.43144 71.632 3.65612C56.6262 12.3655 52.1664 38.2297 58.4869 70.6003C59.1191 73.8016 59.8294 76.9888 60.6177 80.1621C57.0305 81.179 53.4737 82.2999 49.9516 83.5234C19.4836 94.1775 0 110.882 0 128.205C0 146.104 20.9122 164.051 52.6826 174.933C55.2596 175.81 57.8606 176.624 60.4857 177.376C59.6333 180.773 58.8791 184.209 58.2228 187.682C52.2204 219.495 56.9023 244.746 71.8781 253.402C87.3462 262.339 113.294 253.156 138.588 231.007C140.589 229.254 142.59 227.404 144.591 225.455C147.12 227.9 149.721 230.273 152.394 232.574C176.883 253.69 201.067 262.219 216.019 253.54C231.475 244.572 236.499 217.442 229.974 184.435C229.474 181.914 228.898 179.341 228.245 176.716C230.07 176.176 231.857 175.617 233.605 175.041C266.618 164.075 288.125 146.344 288.125 128.223C288.113 110.816 268.005 94.0035 236.889 83.2653V83.2653ZM159.458 34.5982C180.725 16.045 200.605 8.7221 209.668 13.9562C219.314 19.5323 223.065 42.0171 217.003 71.5067C216.603 73.4274 216.171 75.3422 215.706 77.2509C203.015 74.3642 190.146 72.3269 177.183 71.1525C169.762 60.4616 161.626 50.2845 152.832 40.6906C154.985 38.6018 157.19 36.571 159.446 34.5982H159.458ZM85.0713 143.007C87.6763 148.049 90.3994 153.029 93.2405 157.947C96.1336 162.964 99.1488 167.908 102.286 172.778C93.367 171.809 84.5038 170.38 75.7316 168.499C78.2766 160.263 81.4099 151.71 85.0713 143.007V143.007ZM85.0713 113.997C81.4699 105.48 78.4207 97.1007 75.9177 89.0095C84.1409 87.1668 92.9044 85.6602 102.04 84.5198C98.9787 89.2976 96.0336 94.1455 93.2045 99.0635C90.3754 103.981 87.6583 108.959 85.0533 113.997H85.0713ZM91.6139 128.505C95.4074 120.594 99.493 112.835 103.871 105.228C108.244 97.6249 112.9 90.196 117.838 82.9411C126.409 82.2929 135.197 81.9508 144.074 81.9508C152.952 81.9508 161.793 82.2929 170.359 82.9472C175.245 90.186 179.872 97.5889 184.242 105.156C188.612 112.723 192.751 120.446 196.661 128.325C192.803 136.264 188.674 144.055 184.272 151.698C179.906 159.301 175.305 166.752 170.467 174.051C161.913 174.651 153.06 174.981 144.056 174.981C135.053 174.981 126.367 174.699 117.97 174.153C112.996 166.874 108.302 159.413 103.889 151.77C99.4749 144.127 95.3773 136.372 91.5959 128.505H91.6139ZM194.926 157.862C197.827 152.829 200.613 147.729 203.282 142.562C206.94 150.858 210.17 159.337 212.957 167.964C204.082 169.963 195.108 171.496 186.073 172.556C189.122 167.718 192.073 162.82 194.926 157.862V157.862ZM203.162 114.003C200.504 108.941 197.741 103.939 194.872 98.9974C192.071 94.1235 189.152 89.3096 186.115 84.5558C195.304 85.7202 204.122 87.2688 212.387 89.1596C209.73 97.59 206.651 105.882 203.162 114.003V114.003ZM144.194 49.5081C150.188 56.0572 155.847 62.9046 161.151 70.0241C149.807 69.4839 138.454 69.4839 127.094 70.0241C132.694 62.6172 138.426 55.7445 144.194 49.5081V49.5081ZM77.8265 14.3223C87.4662 8.72811 108.781 16.7232 131.247 36.693C132.682 37.9715 134.129 39.3101 135.569 40.6966C126.73 50.2891 118.537 60.4574 111.043 71.1345C98.1099 72.2999 85.2658 74.3049 72.5924 77.1369C71.8601 74.1917 71.1999 71.2266 70.6116 68.2414C65.1795 40.4925 68.7749 19.5744 77.8265 14.3223ZM63.775 165.491C61.374 164.807 59.0031 164.065 56.6622 163.265C42.6167 158.463 31.0141 152.196 23.049 145.372C15.9182 139.255 12.3048 133.151 12.3048 128.205C12.3048 117.695 27.9469 104.286 54.0332 95.1919C57.3104 94.0515 60.6157 93.0091 63.949 92.0647C67.8233 104.515 72.5153 116.697 77.9945 128.529C72.45 140.525 67.6999 152.872 63.775 165.491V165.491ZM130.479 221.715C119.297 231.511 108.096 238.456 98.2225 241.955C89.351 245.095 82.2862 245.185 78.0185 242.718C68.931 237.466 65.1495 217.184 70.3055 189.981C70.9178 186.78 71.618 183.579 72.4063 180.377C85.2066 183.135 98.1796 185.018 111.236 186.013C118.802 196.746 127.063 206.972 135.965 216.625C134.177 218.384 132.346 220.077 130.479 221.715ZM144.537 207.778C138.702 201.47 132.88 194.489 127.202 186.986C132.72 187.202 138.338 187.31 144.056 187.31C149.927 187.31 155.737 187.184 161.463 186.926C156.179 194.16 150.529 201.119 144.537 207.778V207.778ZM219.278 224.939C217.561 234.206 214.11 240.389 209.842 242.862C200.761 248.132 181.343 241.283 160.407 223.222C158.006 221.157 155.605 218.942 153.162 216.619C161.891 206.929 169.958 196.661 177.309 185.887C190.438 184.775 203.474 182.76 216.325 179.855C216.913 182.232 217.433 184.561 217.885 186.842C220.772 201.428 221.187 214.621 219.278 224.939V224.939ZM229.722 163.331C228.149 163.853 226.529 164.357 224.884 164.849C220.854 152.34 215.979 140.119 210.292 128.271C215.766 116.581 220.45 104.537 224.314 92.2208C227.261 93.0791 230.124 93.9795 232.879 94.9338C259.542 104.129 275.808 117.743 275.808 128.205C275.808 139.369 258.239 153.859 229.722 163.331V163.331Z" fill="url(#paint0_linear_102:41)"/>
<path d="M144.056 153.991C149.165 154.008 154.163 152.508 158.419 149.682C162.674 146.856 165.995 142.831 167.962 138.116C169.928 133.402 170.451 128.21 169.465 123.197C168.478 118.185 166.027 113.578 162.421 109.96C158.814 106.342 154.216 103.876 149.207 102.873C144.198 101.87 139.004 102.377 134.283 104.328C129.562 106.279 125.526 109.587 122.686 113.833C119.846 118.079 118.33 123.073 118.33 128.181C118.323 131.565 118.983 134.918 120.273 138.047C121.562 141.176 123.455 144.021 125.844 146.418C128.234 148.815 131.072 150.717 134.197 152.017C137.322 153.316 140.672 153.987 144.056 153.991Z" fill="url(#paint1_linear_102:41)"/>
<defs>
<linearGradient id="paint0_linear_102:41" x1="144.062" y1="0" x2="144.062" y2="256.901" gradientUnits="userSpaceOnUse">
<stop stop-color="#FF5F6D"/>
<stop offset="1" stop-color="#FFB773"/>
</linearGradient>
<linearGradient id="paint1_linear_102:41" x1="144.14" y1="102.371" x2="144.14" y2="153.991" gradientUnits="userSpaceOnUse">
<stop stop-color="#FF5F6D"/>
<stop offset="1" stop-color="#FFB773"/>
</linearGradient>
</defs>
</svg>
