<svg width="265" height="252" viewBox="0 0 265 252" fill="none" xmlns="http://www.w3.org/2000/svg">
<path d="M183.617 175.995C193.396 174.981 200.815 166.536 200.478 156.402C200.141 146.268 191.71 138.161 181.593 138.161H180.919C170.464 138.499 162.371 147.281 162.709 157.753C163.046 162.82 165.069 167.211 168.104 170.251C156.639 192.885 139.103 209.437 112.8 223.286C94.9269 232.745 76.38 236.123 57.8331 233.759C42.6577 231.732 30.8549 224.977 23.4349 213.828C12.6444 197.276 11.6331 179.372 20.7383 161.469C27.1459 148.632 37.2615 139.174 43.6691 134.444C42.3203 130.053 40.2965 122.622 39.2852 117.218C-9.61247 152.686 -4.55366 200.654 10.2843 223.286C21.4122 240.177 44.0065 250.649 68.9611 250.649C75.7051 250.649 82.4491 249.973 89.1942 248.285C132.359 239.839 165.07 214.166 183.617 175.995V175.995ZM242.969 134.107C217.339 104.043 179.571 87.4909 136.406 87.4909H131.01C127.975 81.4105 121.568 77.3563 114.486 77.3563H113.811C103.358 77.6943 95.2654 86.4768 95.6018 96.9494C95.9393 107.083 104.37 115.19 114.486 115.19H115.16C122.579 114.852 128.987 110.123 131.684 103.705H137.754C163.384 103.705 187.663 111.136 209.584 125.662C226.445 136.81 238.585 151.335 245.329 168.9C251.062 183.088 250.724 196.938 244.654 208.762C235.212 226.665 219.363 236.461 198.455 236.461C184.966 236.461 172.152 232.407 165.407 229.367C161.698 232.745 154.953 238.149 150.231 241.528C164.733 248.284 179.571 252 193.734 252C226.107 252 250.05 234.096 259.155 216.193C268.935 196.6 268.26 162.82 242.969 134.107V134.107ZM71.6587 181.736C71.9961 191.871 80.4264 199.977 90.543 199.977H91.2179C101.672 199.64 109.765 190.857 109.427 180.385C109.091 170.25 100.66 162.144 90.543 162.144H89.8691C89.1942 162.144 88.1818 162.144 87.509 162.481C73.6824 139.511 67.9497 114.514 69.9734 87.4898C71.3212 67.2217 78.0663 49.6557 89.8691 35.1299C99.6483 22.6312 118.533 16.5509 131.348 16.2139C167.093 15.5378 182.267 60.1273 183.28 78.0313C187.663 79.0443 195.082 81.4095 200.141 83.0986C196.094 28.3756 162.371 0 129.999 0C99.6483 0 71.6587 21.9572 60.5297 54.386C45.0179 97.6244 55.1345 139.174 74.0188 171.941C72.3336 174.305 71.3212 178.021 71.6587 181.737V181.736Z" fill="url(#paint0_linear_102:34)"/>
<defs>
<linearGradient id="paint0_linear_102:34" x1="132.5" y1="0" x2="132.5" y2="252" gradientUnits="userSpaceOnUse">
<stop stop-color="#FF5F6D"/>
<stop offset="1" stop-color="#FFB773"/>
</linearGradient>
</defs>
</svg>
