<svg width="361" height="248" viewBox="0 0 361 248" fill="none" xmlns="http://www.w3.org/2000/svg">
<path d="M360.851 174.771C359.815 166.372 355.556 159.087 348.16 153.091C348.068 152.979 347.966 152.875 347.856 152.781L347.483 152.513L347.363 152.428L343.436 149.61L343.302 149.511L342.801 149.159C342.617 149.052 342.421 148.969 342.216 148.912C329.792 141.521 309.225 136.343 277.758 147.44C270.249 134.814 269.395 124.696 274.423 109.195C275.318 106.497 274.486 104.714 271.807 103.559C266.42 101.269 259.045 102.438 253.813 103.819C251.374 104.453 249.907 105.834 249.442 107.927C246.128 123.428 236.497 137.59 227.182 151.259L226.632 152.062C220.893 139.901 222.085 130.481 226.083 118.679C226.879 116.326 226.252 114.762 224.045 113.592C217.882 110.414 208.639 112.598 204.958 113.683C200.291 115.043 195.285 127.648 189.693 142.74C188.283 146.538 187.071 149.786 186.344 151.301C184.617 154.824 182.967 158.84 181.218 163.103C177.27 172.748 172.821 183.606 166.461 190.426C164.148 185.318 167.787 177.265 171.319 169.451C175.5 160.214 179.449 151.484 174.901 145.911C174.182 145.03 173.29 144.305 172.279 143.782C171.269 143.258 170.163 142.947 169.028 142.867C167.547 142.755 166.06 142.996 164.691 143.572C165.164 139.591 165.185 136.448 164.022 132.651C162.358 127.233 158.035 124.196 152.085 124.358C138.533 124.752 127.068 134.842 119.827 143.241C115.005 148.877 104.316 153.175 94.931 156.945C91.2223 158.516 87.6969 159.925 84.7567 161.334C80.0679 157.374 74.11 153.38 67.8348 149.159C50.2079 137.336 30.233 123.928 29.5421 105.75C28.555 78.8984 59.1553 59.8536 85.8637 46.2622C106.106 35.9754 123.705 29.1551 139.668 25.4278C162.09 20.1928 181.028 21.2497 195.947 28.5562C204.112 32.5511 207.934 41.2386 205.508 50.1727C199.163 73.3886 172.87 89.298 150.385 96.4565C136.841 100.769 125.313 102.572 115.131 101.98C102.37 101.241 91.9485 94.843 87.4924 92.1163C86.7785 91.6291 86.0236 91.2048 85.2362 90.8481L85.0317 90.7987C84.6282 90.6984 84.2048 90.7111 83.8081 90.8353C83.4113 90.9596 83.0565 91.1907 82.7825 91.5033C81.8659 92.5954 82.1902 94.3216 82.5216 95.1953C86.8578 106.518 95.8123 113.669 109.131 116.452C113.49 117.325 117.927 117.747 122.373 117.714C153.544 117.714 193.318 99.7539 207.927 84.9648C217.89 74.8893 225.145 64.532 228.148 46.6709C231.286 27.9643 218.595 14.9648 205.663 8.97589C174.238 -5.51732 138.547 0.210918 114.137 7.56673C85.5816 16.1697 56.0389 31.8113 33.0957 50.4968C4.80794 73.5154 -5.41569 94.8853 2.69271 114.085C11.0197 133.764 31.3259 146.073 50.9623 157.98C57.308 161.82 63.3435 165.477 68.7796 169.254C67.1439 170.05 65.4728 170.86 63.7736 171.67C47.2889 179.653 28.5902 188.637 18.2185 203.482C10.6883 214.297 9.27813 225.063 14.0304 235.484C16.5686 241.029 21.0811 244.792 27.3493 246.666C30.6099 247.589 33.9867 248.038 37.3755 247.998C49.5804 247.998 63.0121 243.065 70.3238 238.507C83.2408 230.404 91.6101 219.525 95.206 206.174C98.407 194.294 97.6385 182.493 92.985 171.959L108.814 163.983C101.178 189.348 107.03 204.497 113.46 212.853C115.829 215.932 120.102 217.785 124.876 217.87C129.649 217.954 134.042 216.158 136.524 213.1C141.219 207.287 144.688 200.488 147.882 193.689C147.713 198.127 147.925 202.623 149.441 206.434C150.801 209.866 153.043 212.141 155.934 213.015C159.008 213.952 162.611 213.163 166.08 210.796C181.712 200.107 192.401 174.454 200.989 153.83C202.209 150.899 203.379 148.081 204.514 145.446C206.639 153.044 209.594 160.386 213.328 167.337C214.16 168.845 214.089 169.507 212.961 170.747C211.262 172.607 208.893 174.855 206.383 177.237C198.782 184.444 189.32 193.442 188.051 201.354C187.557 204.525 189.743 207.414 193.134 208.069C203.337 210.098 215.626 207.132 226.019 200.142C235.467 193.801 239.021 184.959 236.595 173.939C234.247 163.328 239.606 150.153 252.523 134.75C254.638 143.579 257.458 150.716 261.35 156.966L261.245 157.05C251.839 165.259 238.95 176.497 240.953 190.13C241.121 191.427 241.557 192.674 242.235 193.793C242.912 194.911 243.815 195.876 244.887 196.627C246.032 197.399 247.325 197.927 248.684 198.177C250.043 198.427 251.438 198.393 252.784 198.078C265.102 195.492 274.373 190.285 281.114 182.176C287.854 174.066 285.394 165.076 283.123 158.1C300.75 153.323 316.445 153.443 331.139 158.452C339.389 161.271 345.304 165.9 348.717 172.29C353.011 180.33 350.691 187.749 342.167 193.181C339.551 194.851 338.289 195.873 338.211 197.162C338.194 197.461 338.249 197.76 338.371 198.034C338.494 198.307 338.681 198.547 338.916 198.733C339.903 199.544 342.949 200.953 349.838 196.62C356.183 192.639 359.906 187.22 360.858 180.414C361.05 178.538 361.047 176.647 360.851 174.771V174.771ZM79.0103 192.427L78.9398 193.329C77.8399 203.644 72.5941 212.635 63.3223 220.103C57.4984 224.796 51.1739 227.677 45.5191 228.227C41.5707 228.607 38.701 228.072 36.9947 226.628C35.7186 225.55 35.0346 223.936 34.8795 221.696C33.7232 203.743 61.8981 185.903 77.7553 180.034C78.887 184.061 79.3116 188.255 79.0103 192.427V192.427ZM151.175 141.796C148.566 156.656 140.958 184.705 129 195.591C128.429 196.112 127.95 196.295 127.731 196.246C127.513 196.197 127.343 195.936 127.167 195.542C123.176 186.297 124.65 170.684 130.693 158.417C135.339 148.962 141.974 142.698 149.391 140.803C149.699 140.718 150.017 140.673 150.336 140.669C150.586 140.651 150.834 140.718 151.041 140.859C151.128 140.997 151.185 141.152 151.208 141.313C151.232 141.475 151.22 141.639 151.175 141.796V141.796ZM210.042 195.964C207.793 198.311 204.712 197.993 205.438 197.134L216.888 184.987C215.965 189.165 213.236 192.625 210.042 195.964V195.964ZM257.543 185.459C256.454 185.995 255.276 186.327 254.067 186.438C253.743 180.048 259.94 172.854 266.053 168.056C267.696 174.721 264.333 181.767 257.543 185.459Z" fill="url(#paint0_linear_102:28)"/>
<defs>
<linearGradient id="paint0_linear_102:28" x1="180.5" y1="0" x2="180.5" y2="248" gradientUnits="userSpaceOnUse">
<stop stop-color="#FF5F6D"/>
<stop offset="1" stop-color="#FFB773"/>
</linearGradient>
</defs>
</svg>
