<svg width="391" height="170" viewBox="0 0 391 170" fill="none" xmlns="http://www.w3.org/2000/svg">
<path d="M264.153 0L262.931 6.34497C261.041 18.3696 261.726 21.8098 266.906 26.2724L271.908 30.3942L266.727 53.4049C263.632 67.1334 259.836 78.6388 257.425 82.4198C255.356 85.6815 252.944 90.4849 252.423 93.0651C251.56 96.1483 248.627 99.2478 244.147 101.99C240.188 104.23 232.417 110.234 226.91 115.053C222.512 118.997 219.481 121.415 217.836 122.453L212.46 126.689C210.733 129.447 209.755 131.67 209.38 133.358C209.006 135.094 209.218 136.247 209.771 137.09C210.309 137.902 211.238 138.47 212.508 138.827C214.013 139.178 215.561 139.304 217.103 139.2C220.59 138.963 224.042 138.353 227.399 137.383C228.539 137.074 229.436 136.782 230.218 136.523C231.423 135.046 234.209 132.255 239.145 127.403C252.244 114.534 257.245 107.491 252.081 109.39C250.175 110.072 251.038 108.351 254.313 104.911C261.221 98.2092 265.179 88.0832 273.456 56.3259C280.005 31.2543 280.005 30.8973 284.827 30.8973C287.092 30.8973 293.494 31.2867 293.494 31.2867V0H278.799H264.153ZM326.697 51.3602C325.654 51.3602 323.927 52.9181 322.901 54.6382C321.011 57.7214 323.243 59.6038 351.688 77.2919C368.583 87.9534 382.202 97.0408 381.86 97.7386C381.518 98.2417 367.719 107.183 351.183 117.488C321.174 136.019 321.011 136.198 323.764 139.979C327.218 144.442 323.764 145.983 362.718 121.772L391 103.743V90.1766L359.443 70.7684C342.386 60.1231 327.56 51.5387 326.697 51.3602V51.3602ZM64.6453 53.2589C63.7819 53.2589 48.9565 62.0218 31.8991 72.4885L0 91.8967V105.463L31.7199 125.212C49.3149 136.019 64.1403 144.961 64.8245 144.961C65.5088 144.961 66.8936 143.403 68.2784 141.521C70.3474 138.259 68.6042 136.88 39.4747 118.51C11.73 101.163 8.7975 98.761 11.5671 96.8786C13.294 95.6777 26.3925 87.5964 40.5337 78.8497C72.7749 59.1008 71.048 60.4639 68.4576 56.3421C67.4312 54.6382 65.688 53.0966 64.6616 53.2589H64.6453ZM206.122 53.6321C201.365 53.5997 191.134 60.8209 160.505 85.7302C159.186 88.8622 159.072 91.0204 159.675 92.416C160.066 93.3734 160.782 94.0387 161.776 94.5256C162.754 95.0124 164.024 95.3045 165.426 95.4181C168.211 95.6615 171.502 95.2233 174.158 94.7041L175.95 94.2984C176.563 93.479 177.369 92.8216 178.296 92.3835C180.186 91.345 188.12 84.1399 196.054 76.4156C210.016 62.3301 213.29 55.9689 207.605 53.908C207.138 53.7231 206.64 53.6295 206.138 53.6321H206.122ZM241.899 63.4173C237.712 63.5309 230.169 68.3667 217.249 78.6388C210.765 83.8803 206.66 86.7039 204.46 87.2881L195.924 94.0063C192.714 99.8482 192.242 103.467 193.089 105.463C193.301 105.955 193.609 106.401 193.995 106.774C194.38 107.147 194.837 107.441 195.337 107.637C196.582 108.127 197.909 108.375 199.247 108.368C202.445 108.334 205.623 107.87 208.696 106.988C210.298 106.56 211.88 106.062 213.437 105.495L213.91 105.301L214.773 104.846C216.402 102.753 220.149 98.8096 224.841 94.2659C239.667 80.0181 247.242 69.8921 245.695 66.1111C244.994 64.2774 243.788 63.3524 241.899 63.4173V63.4173ZM202.408 80.9431C201.202 81.0729 198.498 83.15 193.626 87.4017C186.588 93.6006 178.915 97.1707 176.26 95.5804C175.642 95.7192 175.023 95.8491 174.402 95.9698C171.698 96.5053 168.325 96.9435 165.312 96.7001C163.891 96.6144 162.5 96.2678 161.206 95.6777C159.986 95.1221 159.012 94.1408 158.469 92.919C157.866 91.4586 157.866 89.6411 158.55 87.3205L147.961 95.9861L123.996 115.735V147.752L202.522 86.1359C202.506 85.4613 202.594 84.7882 202.782 84.1399C203.385 81.9654 203.353 80.862 202.408 80.9593V80.9431ZM236.197 91.3125C235.007 91.3125 233.02 92.984 229.843 96.3431C225.526 100.935 218.732 105.382 215.131 106.291L214.578 106.583C213.986 106.826 213.389 107.053 212.785 107.264C211.808 107.589 210.537 107.978 209.071 108.368C206.138 109.163 202.489 109.893 199.231 109.812C197.695 109.81 196.173 109.512 194.751 108.936C193.41 108.385 192.335 107.338 191.753 106.015C190.808 103.759 191.183 100.595 193.252 96.0996L123.98 150.446V170H154.412L218.96 119.5C220.638 117.65 223.163 115.118 226.568 111.954C235.692 103.532 237.761 100.627 237.761 96.3268C237.761 92.9839 237.386 91.2963 236.197 91.2963V91.3125ZM251.56 122.956L246.037 128.441C242.941 131.362 237.418 134.965 233.639 136.506L232.889 136.831L232.84 136.912L232.678 137.074C232.531 137.188 232.466 137.204 232.352 137.253C230.843 137.822 229.31 138.325 227.757 138.762C224.306 139.763 220.755 140.388 217.168 140.628C215.472 140.736 213.769 140.589 212.117 140.19C210.684 139.876 209.419 139.043 208.566 137.853C207.784 136.652 207.556 135.046 207.996 133.066C208.346 131.657 208.865 130.294 209.543 129.009L157.459 170H226.731L235.007 160.556C246.379 147.346 251.56 137.902 251.56 129.821V122.956Z" fill="url(#paint0_linear_102:40)"/>
<defs>
<linearGradient id="paint0_linear_102:40" x1="195.5" y1="0" x2="195.5" y2="170" gradientUnits="userSpaceOnUse">
<stop stop-color="#FF5F6D"/>
<stop offset="1" stop-color="#FFB773"/>
</linearGradient>
</defs>
</svg>
