<svg width="257" height="257" viewBox="0 0 257 257" fill="none" xmlns="http://www.w3.org/2000/svg">
<path d="M0 128.504V257H257V0H0V128.504ZM207.107 118.265C213.633 119.895 218.612 122.794 223.181 127.524C225.551 130.054 229.056 134.664 229.341 135.764C229.422 136.085 218.246 143.594 211.472 147.798C211.231 147.959 210.248 146.903 209.143 145.269C205.839 140.45 202.373 138.374 197.069 138.009C189.279 137.479 184.219 141.558 184.299 148.369C184.299 150.368 184.58 151.549 185.4 153.187C187.114 156.737 190.299 158.857 200.289 163.186C218.688 171.096 226.559 176.317 231.449 183.745C236.91 192.025 238.139 205.244 234.429 215.074C230.349 225.763 220.234 233.023 205.999 235.433C201.594 236.208 191.15 236.087 186.42 235.232C176.1 233.397 166.31 228.297 160.271 221.607C157.901 218.997 153.296 212.183 153.581 211.689C153.701 211.528 154.765 210.874 155.95 210.179L165.495 204.678L172.883 200.394L174.433 202.682C176.594 205.987 181.328 210.513 184.183 212.022C192.383 216.347 203.642 215.733 209.187 210.758C211.557 208.597 212.532 206.353 212.532 203.048C212.532 200.068 212.171 198.763 210.617 196.523C208.617 193.672 204.537 191.262 192.949 186.243C179.69 180.533 173.98 176.983 168.759 171.353C165.74 168.089 162.885 162.869 161.7 158.504C160.72 154.874 160.475 145.775 161.25 142.105C163.981 129.255 173.65 120.361 187.604 117.71C192.134 116.855 202.662 117.18 207.103 118.281L207.107 118.265ZM146.775 128.986L146.855 139.506H113.406V234.553H89.7464V139.506H56.2973V129.187L56.5784 118.586C56.6989 118.425 77.0574 118.345 101.737 118.385L146.65 118.505L146.775 128.986Z" fill="url(#paint0_linear_102:29)"/>
<defs>
<linearGradient id="paint0_linear_102:29" x1="128.5" y1="0" x2="128.5" y2="257" gradientUnits="userSpaceOnUse">
<stop stop-color="#FF5F6D"/>
<stop offset="1" stop-color="#FFB773"/>
</linearGradient>
</defs>
</svg>
